<ttFont>
          <CharString index="0">
            -43 -18 19 31 108 227 247 149 71 30 -37 -56 hvcurveto
            -276 66 rmoveto
            8 1 63 callsubr
            6 -7 0 0 vhcurveto
            -195 -21 -248 -312 -185 vvcurveto
            -79 45 -55 113 76 80 31 49 76 vhcurveto
            -1 5 6 0 6 hhcurveto
            139 107 115 23 22 hvcurveto
            6 6 6 9 5 vvcurveto
            1 -1 1 0 vhcurveto
            1 20 callsubr
            hhcurveto
            -4 -5 -6 -4 -4 hvcurveto
            -101 -87 -109 -33 -47 hhcurveto
            -13 hlineto
            180 127 150 223 132 vvcurveto
            64 -35 42 -83 -176 -234 -268 -117 return
          </CharString>
          <CharString index="1">
            rmoveto
            -3 3 -2 4 31 83 34 23 6 -3 3 -5 -7 -10 -6 -5 -5 vhcurveto
            -22 -24 -20 -11 -36 -9 rrcurveto
            -8 -2 -5 1 -5 vvcurveto
            return
          </CharString>
          <CharString index="2">
            -103 callgsubr
            -87 callgsubr
            0 -17 25 -41 -94 -72 -82 -51 vhcurveto
            return
          </CharString>
          <CharString index="3">
            rmoveto
            -58 -59 -52 -52 -48 -42 31 -17 41 -12 52 -3 15 55 16 70 3 60 rrcurveto
            317 334 rmoveto
            -116 -123 -95 -102 -84 -86 -3 -60 -22 -87 -16 -62 rrcurveto
            7 hlineto
            27 38 25 37 6 10 rrcurveto
            8 14 267 414 5 vvcurveto
            2 -4 0 0 vhcurveto
            -489 -478 rmoveto
            hintmask 1011111111010000
            52 46 58 56 63 65 rrcurveto
            97 -1 -48 220 -200 hhcurveto
            -59 -53 -27 -97 -67 53 -90 94 -22 hvcurveto
            24 26 36 17 45 hhcurveto
            23 10 -9 -9 -14 -29 -31 -63 -17 -16 2 3 -15 hvcurveto
            -14 -17 -7 -21 -22 vvcurveto
            -36 20 -39 42 -29 vhcurveto
            -439 -37 rmoveto
            35 57 19 0 7 8 -4 -6 vhcurveto
            -18 -40 11 -32 vvcurveto
            -28 30 -1 17 124 63 56 56 35 -29 36 -91 -168 -107 -97 -84 -63 61 -56 141 116 104 51 110 128 vhcurveto
            -45 28 -20 39 39 vvcurveto
            28 11 28 18 23 vhcurveto
            -95 30 -63 97 82 vvcurveto
            68 44 58 105 128 127 -129 -184 3 vhcurveto
            63 66 69 74 80 86 123 132 rcurveline
            10 10 12 15 11 hhcurveto
            7 5 -8 -4 -6 -3 -9 -8 -6 hvcurveto
            -24 -19 -207 -351 -139 -211 rrcurveto
            8 72 61 36 10 hhcurveto
            3 3 -2 -3 -5 -4 -6 -12 -4 hvcurveto
            0 -62 -29 -80 -8 vhcurveto
            -24 -36 -21 -31 -18 -24 rrcurveto
            -28 -21 -9 -9 -6 hhcurveto
            -5 -5 5 5 9 12 17 8 11 hvcurveto
            26 38 13 42 -59 2 -46 11 -33 17 rlinecurve
            -124 -142 -105 -50 -132 hhcurveto
            -144 -62 61 71 96 116 114 183 145 6 -59 -26 hvcurveto
            hintmask 1101111111100000
            -100 -162 -37 -61 -32 -46 6 36 vhcurveto
            endchar
          </CharString>
          <CharString index="4">
            hlineto
            -4 -11 -1 -11 -10 hvcurveto
            0 -2 -2 -3 vvcurveto
            -3 2 -3 9 vhcurveto
            return
          </CharString>
          <CharString index="5">
            rmoveto
            15 14 26 28 27 vhcurveto
            3 -10 2 -9 -9 vvcurveto
            -29 -15 -22 -22 -7 -3 4 7 vhcurveto
            -94 747 rmoveto
            18 21 38 36 19 vhcurveto
            -46 -6 -23 -39 -21 hhcurveto
            -5 -2 4 6 hvcurveto
            577 19 rmoveto
            4 3 -4 -4 -52 -147 -153 -148 -118 hvcurveto
            178 135 108 153 45 hhcurveto
            -637 -601 rmoveto
            36 30 -4 -7 25 hvcurveto
            -138 -123 -122 -105 -103 hhcurveto
            -60 -26 21 29 74 162 130 181 hvcurveto
            -123 460 rmoveto
            82 97 127 133 61 vhcurveto
            8 -16 3 -19 -18 vvcurveto
            -8 vlineto
            -50 -21 -32 -45 -27 vvcurveto
            return
          </CharString>
          <CharString index="6">
            rmoveto
            -17 -3 -46 -8 -38 -16 rrcurveto
            7 -8 -11 2 -7 hhcurveto
            -4 -22 -1 -7 -2 1 -1 4 hvcurveto
            3 2 3 10 hhcurveto
            9 7 -3 -4 4 hvcurveto
            -27 -13 -20 -17 -21 vvcurveto
            -12 11 -7 10 29 21 25 24 6 -1 6 -3 5 vhcurveto
            13 25 51 11 13 hhcurveto
            3 3 -1 -2 -2 0 -2 -3 -3 hvcurveto
            0 -179 -204 -42 -76 vhcurveto
            -4 vlineto
            -3 8 -2 5 3 5 1 7 3 vhcurveto
            4 8 17 26 0 vvcurveto
            112 156 109 114 0 vvcurveto
            1 2 callgsubr
            vvcurveto
            3 -11 1 -1 -12 -6 -5 -2 -16 vhcurveto
            return
          </CharString>
          <CharString index="7">
            rmoveto
            5 3 6 0 hvcurveto
            18 30 22 30 21 26 23 1 22 2 20 2 rrcurveto
            -1 vlineto
            -18 12 -10 12 4 1 3 1 1 -1 1 0 vhcurveto
            -17 3 0 12 8 vvcurveto
            2 vlineto
            39 7 26 14 25 vvcurveto
            8 -7 4 -8 -33 -17 -26 -21 -5 vhcurveto
            -17 -2 -21 -2 -22 -1 rrcurveto
            44 53 35 34 0 vvcurveto
            2 3 1 1 2 vvcurveto
            2 -3 1 0 -8 -12 -4 0 0 -36 -34 -47 -58 vhcurveto
            -27 hlineto
            -49 -21 2 0 hvcurveto
            -6 1 -1 1 3 vvcurveto
            4 5 6 0 vhcurveto
            105 107 136 60 0 vvcurveto
            return
          </CharString>
          <CharString index="8">
            184 -3 -127 129 -128 hhcurveto
            -105 -44 -58 -68 -82 63 -97 95 -30 hvcurveto
            -18 -23 -11 -28 -28 vvcurveto
            -39 20 -39 45 -28 vhcurveto
            -110 -128 -104 -51 -116 hhcurveto
            -141 -61 56 63 return
          </CharString>
          <CharString index="9">
            5 5 2 3 2 vvcurveto
            -65 callgsubr
            return
          </CharString>
          <CharString index="10">
            -14 -38 -57 -91 -17 vvcurveto
            -3 4 -4 3 6 8 7 5 4 vhcurveto
            174 152 355 498 313 hhcurveto
            70 28 -23 -33 -81 -170 -141 -106 -53 -21 19 25 46 74 67 83 9 9 7 6 hvcurveto
            6 -3 -5 1 -6 hhcurveto
            -110 -70 -83 -58 -32 21 -25 48 136 188 162 94 38 -31 27 -77 -336 -370 -528 -61 -64 hvcurveto
            -2 0 3 0 2 1 4 3 6 hvcurveto
            82 176 83 209 116 146 rrcurveto
            50 48 10 3 7 vvcurveto
            3 -2 9 -7 20 callsubr
            -2 vhcurveto
            -114 -235 -343 -611 -371 hhcurveto
            -128 -51 59 63 72 68 78 98 38 22 -12 -15 11 hvcurveto
            -44 -37 -24 -42 -25 vvcurveto
            -15 8 -10 18 32 36 54 48 9 -2 9 -3 9 vhcurveto
            32 43 66 28 90 hhcurveto
            6 5 3 5 4 -4 4 -7 hvcurveto
            endchar
          </CharString>
          <CharString index="11">
            -15 -13 -20 -10 -10 7 -3 8 hvcurveto
            -29 -6 -47 -15 -8 hhcurveto
            -9 39 callsubr
            4 -3 7 hvcurveto
            42 3 48 36 44 -28 callsubr
            return
          </CharString>
          <CharString index="12">
            6 -7 8 -7 vhcurveto
            return
          </CharString>
          <CharString index="13">
            64 callgsubr
            2 hlineto
            -3 -4 rlineto
            -39 callsubr
            2 vvcurveto
            -95 260 rmoveto
            7 4 -2 -6 -19 -50 -2 -11 -11 -10 1 1 -10 hvcurveto
            17 19 28 10 34 hhcurveto
            return
          </CharString>
          <CharString index="14">
            hhcurveto
            -99 -161 -80 -91 -15 8 -23 50 72 99 88 97 89 hvcurveto
            25 -13 10 -24 -23 vvcurveto
            -55 -20 -37 -39 -20 vvcurveto
            hintmask 01111100
            -7 5 -5 10 49 39 42 43 6 vhcurveto
            4 13 15 2 16 hhcurveto
            37 16 -23 -8 3 hvcurveto
            -7 3 5 -4 4 hhcurveto
            3 3 2 4 2 hvcurveto
            1 10 callgsubr
            3 vvcurveto
            23 -30 17 -40 -18 -18 -3 -4 -16 vhcurveto
            2 vlineto
            26 -12 25 -30 14 vhcurveto
            82 92 73 96 34 39 rrcurveto
            0 34 22 32 vhcurveto
            16 -1 6 -6 -9 -32 -89 -51 -36 vvcurveto
            -106 callgsubr
            -10 -4 5 6 hvcurveto
            endchar
          </CharString>
          <CharString index="15">
            rmoveto
            -6 4 -5 10 15 26 11 37 41 vhcurveto
            3 2 10 callgsubr
            hhcurveto
            2 2 -2 -3 -14 -66 -50 -47 -13 -9 6 17 21 24 22 13 17 hvcurveto
            29 34 41 51 5 3 rrcurveto
            3 3 5 3 5 hhcurveto
            5 6 -5 -5 -4 -3 -3 -3 -3 hvcurveto
            -75 -85 rlineto
            -13 -14 -13 -15 -15 vvcurveto
            endchar
          </CharString>
          <CharString index="16">
            -23 15 -17 33 41 50 33 0 vhcurveto
            1 -39 callsubr
            hhcurveto
            2 1 -4 -4 hvcurveto
            return
          </CharString>
          <CharString index="17">
            7 26 28 4 30 hhcurveto
            100 107 -19 -8 80 hvcurveto
            -189 -242 -206 -469 -357 -6 callgsubr
            19 -10 -15 11 hvcurveto
            -49 -34 -28 -41 -28 vvcurveto
            -19 13 -12 27 40 32 51 47 12 -2 12 -5 11 vhcurveto
            return
          </CharString>
          <CharString index="18">
            rmoveto
            -51 -30 -66 -36 -42 -34 rrcurveto
            -4 -3 -6 -7 -3 vvcurveto
            -6 4 -3 8 6 3 2 17 22 vhcurveto
            31 23 54 35 37 20 rrcurveto
            25 14 6 5 9 vvcurveto
            9 -64 39 -35 30 vhcurveto
            0 -5 6 -11 vhcurveto
            0 -11 -1 -4 vvcurveto
            -1 2 -3 3 -2 vhcurveto
            return
          </CharString>
          <CharString index="19">
            rmoveto
            5 4 3 5 10 15 -12 -29 -6 0 -5 -1 -5 vhcurveto
            -20 5 -13 14 30 vvcurveto
            29 -64 rmoveto
            -52 -17 -57 -38 -32 hhcurveto
            return
          </CharString>
          <CharString index="20">
            -25 7 -33 -10 -56 hvcurveto
            -8 -1 -5 0 -5 vvcurveto
            return
          </CharString>
          <CharString index="21">
            -15 -13 -20 -10 -10 7 -3 8 hvcurveto
            -29 -6 -47 -15 -8 hhcurveto
            -9 -1 -4 -3 -2 vvcurveto
            -2 4 -2 7 vhcurveto
            42 callsubr
          </CharString>
          <CharString index="22">
            2 7 8 2 9 hhcurveto
            35 15 -19 -27 -80 -126 -158 -107 -68 -29 32 45 return
          </CharString>
          <CharString index="23">
            500 rmoveto
            34 31 42 30 11 6 -3 -6 -18 -32 -30 -45 -30 vhcurveto
            -1 3 0 4 4 vvcurveto
            -876 -502 rmoveto
            -32 -73 0 37 -1 hvcurveto
            24 82 7 15 1 vhcurveto
            80 72 -11 -14 69 hvcurveto
            -28 -63 -70 -16 -79 hhcurveto
            978 578 rmoveto
            hintmask 1000101110000000
            11 -9 6 -20 -46 -49 -59 -44 -5 0 -5 2 -5 vhcurveto
            -68 -41 -90 -41 -70 -11 rrcurveto
            168 118 108 159 168 hhcurveto
            61 23 -27 -37 -74 -96 -112 -83 -22 -14 7 10 -8 hvcurveto
            return
          </CharString>
          <CharString index="24">
            hstemhm
            44 20 129 32 195 24 15 35 55 21 127 130 -22 22 return
          </CharString>
          <CharString index="25">
            -33 19 -21 43 12 13 2 3 12 vhcurveto
            -8 -23 -4 -24 -22 vvcurveto
            -46 18 -39 47 -13 vhcurveto
            return
          </CharString>
          <CharString index="26">
            vvcurveto
            -13 6 -18 27 12 17 3 10 22 vhcurveto
            36 16 25 24 9 vvcurveto
            3 -2 2 -2 -51 callsubr
            -3 -2 vhcurveto
            -20 -18 -20 -12 -19 -8 rrcurveto
            return
          </CharString>
          <CharString index="27">
            11 -361 rmoveto
            -25 -15 -28 -13 -30 -8 rrcurveto
            -61 15 44 -52 88 hhcurveto
            188 123 155 112 64 -40 49 -89 -34 -33 -7 -13 -28 hvcurveto
            -8 -68 -48 -77 -73 -52 rrcurveto
            -3 vlineto
            -16 8 -10 -9 vvcurveto
            -3 -1 -3 -4 -3 vhcurveto
            -2 -3 -2 -1 -3 hhcurveto
            -8 -5 9 10 -2 hvcurveto
            -1 5 -1 6 6 vvcurveto
            533 408 rmoveto
            0 -12 1 5 vvcurveto
            2 2 3 5 4 vhcurveto
            21 20 9 18 16 vvcurveto
            return
          </CharString>
          <CharString index="28">
            13 0 -14 0 -17 -22 -31 -33 -6 hvcurveto
            -12 5 -12 17 vhcurveto
            6 hlineto
            1 1 -1 -1 -3 -8 -3 -6 return
          </CharString>
          <CharString index="29">
            -48 34 -36 76 104 119 123 63 22 -14 15 -34 -17 -15 -3 -4 -15 56 callsubr
            6 5 vvcurveto
            21 -5 21 -11 18 vhcurveto
            return
          </CharString>
          <CharString index="30">
            rmoveto
            -6 -3 2 4 10 23 23 30 15 hvcurveto
            -31 -8 -18 -23 -18 hhcurveto
            return
          </CharString>
          <CharString index="31">
            414 410 rmoveto
            41 57 42 24 6 4 -3 -6 -19 -37 -30 -54 -26 vhcurveto
            125 84 rmoveto
            14 -9 6 -13 -41 -86 -58 -48 vhcurveto
            -8 vlineto
            -22 -53 -66 -17 -63 hhcurveto
            -9 hlineto
            163 115 194 156 172 hhcurveto
            88 35 -27 -38 -91 -198 -154 -133 -30 -18 10 14 -7 hvcurveto
            69 30 53 39 31 vvcurveto
            -378 -146 rmoveto
            -59 -85 -36 -87 -67 vvcurveto
            -76 46 -53 return
          </CharString>
          <CharString index="32">
            -15 58 61 -13 54 hhcurveto
            317 285 276 204 69 -33 61 -75 39 hvcurveto
            48 32 52 24 58 12 rrcurveto
            5 1 2 3 3 vvcurveto
            3 -3 3 -5 vhcurveto
            -64 -13 -56 -27 -53 -34 rrcurveto
            24 -53 -72 14 -93 hhcurveto
            -60 -57 -11 -19 -54 hvcurveto
            40 -22 -44 30 -73 hhcurveto
            -154 -148 -123 -72 -51 hvcurveto
            -3 -5 -1 -4 -3 vvcurveto
            -5 3 -3 4 4 5 3 9 5 vhcurveto
            endchar
          </CharString>
          <CharString index="33">
            689 517 rmoveto
            -7 -7 0 -1 -7 hvcurveto
            -20 15 22 -13 30 hhcurveto
            15 11 5 6 12 -18 8 -54 3 hvcurveto
            -304 -336 rmoveto
            53 44 33 58 10 54 -52 -35 -36 -55 -8 -66 rrcurveto
            100 190 rmoveto
            28 -8 25 -15 20 vhcurveto
            -111 -71 -79 -111 -100 vvcurveto
            -13 1 -12 2 -12 vhcurveto
            32 8 28 13 26 17 3 79 49 74 72 41 rrcurveto
            return
          </CharString>
          <CharString index="34">
            97 57 71 -31 -47 -16 -9 -18 -21 -20 vhcurveto
            -5 39 callsubr
            vvcurveto
            -5 12 -1 0 vhcurveto
            return
          </CharString>
          <CharString index="35">
            32 -25 -47 23 -76 hhcurveto
            -274 -73 -206 -76 callgsubr
            0 80 194 243 67 41 -21 -27 23 vhcurveto
            -119 -47 -72 -96 -69 vvcurveto
            return
          </CharString>
          <CharString index="36">
            34 -28 -54 29 -79 hhcurveto
            -274 -94 -222 -76 callgsubr
            0 99 211 245 71 52 -24 -32 28 vhcurveto
            -134 -57 -74 -101 -66 vvcurveto
            return
          </CharString>
          <CharString index="37">
            -28 -11 16 21 42 45 63 48 2 hvcurveto
            2 -36 22 -15 28 -3 rrcurveto
            -179 -61 rmoveto
            return
          </CharString>
          <CharString index="38">
            -16 -21 -51 -35 -40 hhcurveto
            -43 -10 32 34 33 18 46 28 51 hvcurveto
            167 135 157 167 59 vvcurveto
            11 -3 5 -12 -53 -188 -213 -164 -92 vhcurveto
            return
          </CharString>
          <CharString index="39">
            1 6 12 2 16 hhcurveto
            39 29 -10 -17 20 hvcurveto
            -113 -62 -97 -103 -138 vvcurveto
            -13 1 -14 2 -12 vhcurveto
            -2 -13 -14 -1 -14 hhcurveto
            -1 hlineto
            -101 -46 69 84 return
          </CharString>
          <CharString index="40">
            -80 -92 -111 -157 -108 -74 37 39 -67 vhcurveto
            24 8 25 7 25 4 rrcurveto
            7 callsubr
            15 -4 17 17 vvcurveto
            58 44 64 -73 callsubr
            return
          </CharString>
          <CharString index="41">
            40 35 rlineto
            -36 3 17 -28 37 hhcurveto
            43 15 21 3 6 hvcurveto
            5 2 2 4 3 vvcurveto
            3 -1 2 -3 -3 -3 -2 -4 -5 vhcurveto
            -14 -16 -10 -3 -25 hhcurveto
            return
          </CharString>
          <CharString index="42">
            -25 -10 -20 -21 -17 vvcurveto
            -12 7 -5 10 18 26 18 29 5 -1 5 -1 4 vhcurveto
            2 6 5 0 5 hhcurveto
            15 9 -12 -16 -25 -25 -33 -69 -99 -23 -2 -3 -20 hvcurveto
            0 -10 0 6 vvcurveto
            10 95 63 18 12 vhcurveto
            49 33 122 59 70 vvcurveto
            34 -27 15 -34 -6 -7 -1 -1 -6 vhcurveto
            return
          </CharString>
          <CharString index="43">
            32 40 -11 18 vvcurveto
            6 -8 4 -7 vhcurveto
            0 -57 -19 -35 vvcurveto
            return
          </CharString>
          <CharString index="44">
            -17 42 -18 -33 17 hhcurveto
            25 -7 33 10 56 hvcurveto
            8 1 5 0 5 vvcurveto
            return
          </CharString>
          <CharString index="45">
            -11 8 -8 19 56 42 53 60 10 vhcurveto
            1 4 4 0 4 hhcurveto
            29 12 -15 -24 -84 -151 -188 -148 -56 -24 27 41 92 125 160 171 72 hvcurveto
            8 -19 4 -21 -20 vvcurveto
            482 -108 rmoveto
            -195 -263 -263 -290 -48 -52 12 14 -51 vhcurveto
            return
          </CharString>
          <CharString index="46">
            -67 callgsubr
            82 8 rmoveto
            return
          </CharString>
          <CharString index="47">
            135 46 -33 -7 167 hvcurveto
            -214 -144 -150 -329 -265 -118 rrcurveto
            22 -57 -59 16 -62 hhcurveto
            -116 -56 -28 -26 -22 40 -20 76 84 74 15 24 66 hvcurveto
            -52 129 134 -79 92 hhcurveto
            70 116 8 58 90 hvcurveto
            4 3 3 6 4 vvcurveto
            return
          </CharString>
          <CharString index="48">
            313 -370 -20 22 -21 74 23 -23 192 7 118 -20 20 245 20 -20 209 -17 246 -200 34 32 117 return
          </CharString>
          <CharString index="49">
            -12 -22 -15 -33 -2 hvcurveto
            25 5 17 24 12 vvcurveto
            4 -2 3 -4 vhcurveto
            return
          </CharString>
          <CharString index="50">
            15 -11 -19 10 -27 hhcurveto
            -109 -69 -80 -75 -68 57 -65 136 357 206 469 189 242 hvcurveto
            8 -80 -107 19 -100 hhcurveto
            -30 -28 -4 -7 -26 hvcurveto
            11 -18 5 -21 -21 54 callsubr
            4 15 15 3 17 hhcurveto
            34 14 -15 -22 return
          </CharString>
          <CharString index="51">
            hhcurveto
            6 15 -1 -5 hvcurveto
            -9 -17 -4 -12 vvcurveto
            -11 25 0 1 vhcurveto
            0 21 8 18 vvcurveto
            return
          </CharString>
          <CharString index="52">
            26 -14 -16 8 -10 hhcurveto
            -5 -6 -5 -3 -1 1 -1 2 -1 hvcurveto
            return
          </CharString>
          <CharString index="53">
            rrcurveto
            66 -37 29 -57 -64 vvcurveto
            -954 56 rmoveto
            65 33 154 127 139 hhcurveto
            66 41 -29 -38 21 hvcurveto
            -190 -75 -133 -170 -100 vvcurveto
            -47 30 -33 66 163 185 202 95 29 -17 19 -40 -9 -9 -1 -1 -8 vhcurveto
            return
          </CharString>
          <CharString index="54">
            -20 -83 callsubr
            return
          </CharString>
          <CharString index="55">
            -120 -129 -144 -110 -63 -24 31 42 77 79 111 67 19 vhcurveto
            1 3 2 0 1 hhcurveto
            2 1 0 -1 -3 -9 -4 0 hvcurveto
            -55 -29 -66 -102 -68 vvcurveto
            -36 18 -26 49 -20 callsubr
            vhcurveto
            return
          </CharString>
          <CharString index="56">
            -2 -2 -1 return
          </CharString>
          <CharString index="57">
            0 callsubr
            -88 -44 52 61 -15 vhcurveto
            30 8 28 13 25 15 rrcurveto
            533 408 -58 callgsubr
            -26 -4 -28 -7 -28 -9 rrcurveto
            return
          </CharString>
          <CharString index="58">
            rmoveto
            -30 13 -14 20 -5 56 callsubr
            5 6 vvcurveto
            29 -15 12 -10 -5 -4 -3 -5 vhcurveto
            29 -64 rmoveto
            -28 3 -22 15 -2 36 rrcurveto
            -48 -2 -45 -63 -42 vvcurveto
            -21 11 -16 28 32 57 38 52 17 vhcurveto
            -179 -61 rmoveto
            return
          </CharString>
          <CharString index="59">
            -53 callsubr
            hintmask 1101111111100000
            64 callgsubr
            return
          </CharString>
          <CharString index="60">
            361 -49 170 -24 24 -24 175 -16 35 -16 92 -17 223 -109 245 -151 117 -52 86 return
          </CharString>
          <CharString index="61">
            rmoveto
            -3 3 -2 4 23 25 10 17 25 vhcurveto
            hintmask 01000000
            -26 14 16 -8 10 hhcurveto
            5 6 5 3 1 -1 1 -2 1 hvcurveto
            hintmask 10000000
            23 callgsubr
          </CharString>
          <CharString index="62">
            rmoveto
            -79 callsubr
            return
          </CharString>
          <CharString index="63">
            -14 -2 -13 -8 -22 hhcurveto
            -52 -35 17 25 -20 hvcurveto
            -25 -4 -25 -7 -24 -8 rrcurveto
            -39 67 74 -37 108 hhcurveto
            157 92 111 80 45 -29 34 -62 -7 -9 4 4 3 6 2 17 71 39 -46 -56 hvcurveto
            return
          </CharString>
          <CharString index="64">
            rmoveto
            55 21 57 30 35 vvcurveto
            15 -10 7 -13 -44 -45 -59 -42 vhcurveto
            137 87 rmoveto
            -51 -79 -35 -55 -18 vhcurveto
            -14 5 14 -9 25 hhcurveto
            34 41 13 37 41 hvcurveto
            3 2 10 callgsubr
            hhcurveto
            2 2 -2 -3 hvcurveto
            return
          </CharString>
          <CharString index="65">
            rrcurveto
            11 -72 -74 10 -82 hhcurveto
            -86 -61 -12 -40 -5 hvcurveto
            -35 59 -5 40 -3 vhcurveto
            106 90 20 32 78 hvcurveto
            return
          </CharString>
          <CharString index="66">
            18 43 47 11 48 hhcurveto
            76 28 -30 -45 hvcurveto
            return
          </CharString>
          <CharString index="67">
            0 37 -2 54 vhcurveto
            34 hlineto
            -20 -24 -19 -27 -19 -28 rrcurveto
            0 -1 -3 -3 vvcurveto
            0 8 -7 6 vhcurveto
            return
          </CharString>
          <CharString index="68">
            1 1 0 1 return
          </CharString>
          <CharString index="69">
            -64 callsubr
            endchar
          </CharString>
          <CharString index="70">
            -11 8 -7 10 33 32 36 46 1 vhcurveto
            9 22 23 4 14 58 3 -29 7 hhcurveto
            2 hlineto
            2 1 1 3 3 vvcurveto
            22 -40 13 -27 -19 -24 -6 -9 -22 vhcurveto
            -2 17 -8 18 -17 13 return
          </CharString>
          <CharString index="71">
            -47 -10 -34 -40 -36 hhcurveto
            -12 -6 6 9 hvcurveto
            -118 -204 rmoveto
            -63 -1 -56 -19 -41 -25 rrcurveto
            5 -11 2 -12 -12 vvcurveto
            -47 -32 -51 -40 -27 -13 12 19 28 28 41 49 34 vhcurveto
            return
          </CharString>
          <CharString index="72">
            rmoveto
            20 17 -5 -9 11 hvcurveto
            -6 -14 -16 -3 -16 hhcurveto
            -17 -8 5 6 6 8 6 15 hvcurveto
            -66 -129 rmoveto
            21 26 12 24 vhcurveto
            2 -2 hlineto
            -19 -14 -20 -24 -10 -4 3 5 vhcurveto
            return
          </CharString>
          <CharString index="73">
            3 1 1 2 1 vvcurveto
            1 0 3 -8 -5 -6 0 -5 -11 vhcurveto
            -10 -5 -10 -9 -10 vvcurveto
            return
          </CharString>
          <CharString index="74">
            -25 20 35 -17 52 hhcurveto
            22 13 8 14 2 hvcurveto
            return
          </CharString>
          <CharString index="75">
            hstem
            162 367 rmoveto
            15 13 20 10 10 -7 3 -8 hvcurveto
            29 6 47 15 8 hhcurveto
            9 4 2 3 2 -4 3 -7 hvcurveto
            -42 -3 -48 -36 -44 vvcurveto
            -6 7 -8 7 vhcurveto
            return
          </CharString>
          <CharString index="76">
            37 23 33 46 14 7 -3 -7 -15 -33 -27 -57 -27 vhcurveto
            396 26 rmoveto
            9 -10 6 -21 -45 -45 -53 -42 -8 vhcurveto
            -22 -44 -56 -17 -53 hhcurveto
            -8 -7 0 1 -7 hvcurveto
            return
          </CharString>
          <CharString index="77">
            -18 8 -44 70 107 138 126 59 18 -14 12 -31 -17 -15 -3 -4 -15 56 callsubr
            6 5 vvcurveto
            14 -2 14 -5 14 vhcurveto
            19 61 65 10 52 hhcurveto
            return
          </CharString>
          <CharString index="78">
            25 -45 11 -49 -9 -10 -1 -1 -10 vhcurveto
            -7 return
          </CharString>
          <CharString index="79">
            vvcurveto
            -95 callsubr
            return
          </CharString>
          <CharString index="80">
            -20 hstemhm
            -412 27 578 25 hintmask 10111100
            -122 -233 rmoveto
            13 23 28 40 16 vhcurveto
            -33 -4 -24 -30 -29 hhcurveto
            -4 -2 2 4 hvcurveto
            -29 140 rmoveto
            return
          </CharString>
          <CharString index="81">
            60 68 95 124 52 vhcurveto
            10 -16 6 -16 -17 vvcurveto
            -5 vlineto
            -57 -14 -42 -55 -26 vvcurveto
            -9 5 -6 11 52 36 45 53 9 vhcurveto
            43 callsubr
            return
          </CharString>
          <CharString index="82">
            -35 11 -18 25 37 vvcurveto
            31 44 64 34 vhcurveto
            10 9 -2 6 hhcurveto
            6 3 2 10 7 -7 5 -13 -44 -75 -64 -60 -45 33 -26 36 -11 hvcurveto
            endchar
          </CharString>
          <CharString index="83">
            -37 175 -136 -21 135 22 -22 154 -154 167 -28 194 -181 181 -37 146 -146 203 -76 154 -97 97 return
          </CharString>
          <CharString index="84">
            -106 callsubr
            endchar
          </CharString>
          <CharString index="85">
            rmoveto
            21 29 33 40 36 vhcurveto
            -54 -10 -29 -44 -25 hhcurveto
            -3 -2 2 6 hvcurveto
            return
          </CharString>
          <CharString index="86">
            hstemhm
            38 30 133 34 -5 194 -26 26 88 28 16 26 287 41 return
          </CharString>
          <CharString index="87">
            120 94 176 84 26 -10 18 -20 return
          </CharString>
          <CharString index="88">
            1 5 6 1 5 hhcurveto
            25 19 -11 -25 -32 -34 -42 -95 -57 hvcurveto
            0 -136 -83 -32 -42 vhcurveto
            0 -3 -6 -5 vvcurveto
            -3 0 -5 6 vhcurveto
            return
          </CharString>
          <CharString index="89">
            4 13 12 3 13 hhcurveto
            20 9 -8 -13 -48 -118 -114 -90 -27 -31 18 40 89 79 59 93 35 hvcurveto
            5 -14 3 -14 -14 vvcurveto
            return
          </CharString>
          <CharString index="90">
            -7 9 -15 23 27 41 27 32 25 -23 12 -31 -82 -81 -80 -54 vhcurveto
            return
          </CharString>
          <CharString index="91">
            -47 -23 -32 -46 -26 vvcurveto
            234 211 rmoveto
            -54 -53 -13 -21 -49 hvcurveto
            return
          </CharString>
          <CharString index="92">
            39 -29 29 -75 -184 -126 -169 -174 -135 vhcurveto
            -41 1 -27 18 43 vvcurveto
            44 41 51 52 vhcurveto
            11 1 -7 4 hhcurveto
            return
          </CharString>
          <CharString index="93">
            136 105 100 113 136 hhcurveto
            70 27 -25 -35 -73 -117 -112 -81 -27 -13 12 16 -3 hvcurveto
            62 30 45 36 20 vvcurveto
            return
          </CharString>
          <CharString index="94">
            6 4 3 5 4 vvcurveto
            3 -2 3 -5 -2 -3 0 -2 -3 vhcurveto
            return
          </CharString>
          <CharString index="95">
            3 2 2 3 4 vvcurveto
            0 1 9 -13 -6 -6 -3 -4 -4 vhcurveto
            return
          </CharString>
          <CharString index="96">
            0 0 17 -9 -4 -4 -5 0 vhcurveto
            return
          </CharString>
          <CharString index="97">
            hhcurveto
            -23 -11 14 20 43 50 69 67 15 16 -3 -14 17 hvcurveto
            -6 2 3 -2 4 hhcurveto
            5 5 4 8 0 -17 29 -41 return
          </CharString>
          <CharString index="98">
            38 -28 28 -68 -163 -116 -120 -141 -114 vhcurveto
            -35 13 -21 27 -8 28 rrcurveto
            74 34 41 38 23 vvcurveto
            return
          </CharString>
          <CharString index="99">
            28 36 55 24 79 hhcurveto
            14 15 -1 -7 15 hvcurveto
            -1 1 2 0 1 hhcurveto
            4 4 3 4 2 -1 3 -4 3 hvcurveto
            return
          </CharString>
          <CharString index="100">
            12 -7 6 -12 -31 -15 -31 -10 -1 vhcurveto
            -17 19 0 0 vhcurveto
            return
          </CharString>
          <CharString index="101">
            -16 -188 -21 974 -20 hstem
            58 -192 rmoveto
            -2 -5 0 -3 -3 vvcurveto
            -5 2 -1 3 5 6 4 0 vhcurveto
            return
          </CharString>
          <CharString index="102">
            -44 -131 -15 -42 -9 -10 0 1 -11 vhcurveto
            -178 -225 -225 -495 -394 hhcurveto
            -147 -63 69 74 return
          </CharString>
          <CharString index="103">
            3 callsubr
            endchar
          </CharString>
          <CharString index="104">
            rmoveto
            15 13 20 10 10 -7 3 -7 -5 -5 -2 -3 -4 hvcurveto
            -5 -4 -9 -11 -9 vvcurveto
            -6 7 -8 7 vhcurveto
            return
          </CharString>
          <CharString index="105">
            -135 133 rmoveto
            -15 -15 -1 -13 -3 1 -3 4 hvcurveto
            return
          </CharString>
          <CharString index="106">
            -3 -11 -8 -2 -7 hhcurveto
            -19 -5 12 10 return
          </CharString>
          <CharString index="107">
            -112 -123 -155 -188 return
          </CharString>
          <CharString index="108">
            33 34 52 56 8 vhcurveto
            return
          </CharString>
          <CharString index="109">
            -4 -2 -3 return
          </CharString>
          <CharString index="110">
            -20 callsubr
            -10 callgsubr
            32 4 25 28 22 hhcurveto
            return
          </CharString>
          <CharString index="111">
            27 -23 -41 21 -67 hhcurveto
            -243 -80 -194 0 hvcurveto
            -6 -4 -3 -2 -3 hhcurveto
            -4 -3 6 5 hvcurveto
            return
          </CharString>
          <CharString index="112">
            rmoveto
            -106 -63 68 87 136 140 127 148 106 63 -68 -88 -190 -201 -72 -87 hvcurveto
            return
          </CharString>
          <CharString index="113">
            -73 callsubr
            endchar
          </CharString>
          <CharString index="114">
            -33 callsubr
            -29 callsubr
            return
          </CharString>
          <CharString index="115">
            -11 -6 -5 -4 -3 3 -3 6 hvcurveto
            return
          </CharString>
          <CharString index="116">
            -31 -36 25 -23 hhcurveto
            return
          </CharString>
          <CharString index="117">
            rmoveto
            19 17 13 18 7 vhcurveto
            1 -4 1 -4 -4 vvcurveto
            -20 -18 -16 -11 -4 -4 3 6 vhcurveto
            return
          </CharString>
          <CharString index="118">
            rmoveto
            47 50 38 45 12 vhcurveto
            4 -6 1 -7 -7 vvcurveto
            -39 -40 -57 -45 -10 -5 8 11 vhcurveto
            return
          </CharString>
          <CharString index="119">
            0 -8 -24 -35 -15 -11 10 14 21 21 25 60 42 17 -19 -23 -28 -25 -35 -36 -20 vhcurveto
            return
          </CharString>
          <CharString index="120">
            rmoveto
            -34 -28 -10 -17 -19 hvcurveto
            -1 10 10 -1 11 hhcurveto
            11 50 2 19 6 -4 2 -7 hvcurveto
            return
          </CharString>
          <CharString index="121">
            15 10 20 13 17 -14 8 -17 -31 -43 -25 -43 return
          </CharString>
          <CharString index="122">
            rmoveto
            -4 -3 -2 -3 -2 vvcurveto
            -2 1 -2 9 vhcurveto
            return
          </CharString>
          <CharString index="123">
            -33 -42 -18 -24 -13 -2 6 3 18 29 3 1 return
          </CharString>
          <CharString index="124">
            rmoveto
            6 5 -3 -6 hvcurveto
            -13 -1 -13 -12 -13 hhcurveto
            return
          </CharString>
          <CharString index="125">
            -19 callgsubr
            1 callgsubr
            return
          </CharString>
          <CharString index="126">
            -80 -86 -69 -74 -63 -66 return
          </CharString>
          <CharString index="127">
            -1 -1 0 -1 return
          </CharString>
          <CharString index="128">
            0 vvcurveto
            -5 -4 -3 -7 -5 vvcurveto
            -3 1 -2 2 -1 vhcurveto
            -1 1 2 0 1 hhcurveto
            6 return
          </CharString>
          <CharString index="129">
            -10 7 -7 16 32 21 23 24 2 vhcurveto
            13 -6 rlineto
            1 10 callgsubr
            hvcurveto
            endchar
          </CharString>
          <CharString index="130">
            79 59 -35 -38 65 hvcurveto
            28 9 28 7 26 4 rrcurveto
            -8 14 -4 16 17 vvcurveto
            return
          </CharString>
          <CharString index="131">
            10 12 vhcurveto
            3 4 2 4 4 vvcurveto
            5 -4 4 -5 -5 -6 -3 -5 -4 vhcurveto
            return
          </CharString>
          <CharString index="132">
            -86 -93 -110 -212 -95 -75 42 42 -70 vhcurveto
            -22 -9 -20 -10 -20 -11 rrcurveto
            return
          </CharString>
          <CharString index="133">
            -10 25 -10 -21 35 -21 368 184 -108 151 -17 146 hstemhm
            return
          </CharString>
          <CharString index="134">
            9 -9 -13 6 -18 hhcurveto
            -7 -7 -1 -2 -6 hvcurveto
            -2 -2 -3 -4 -2 vvcurveto
            return
          </CharString>
          <CharString index="135">
            621 -46 23 116 173 63 20 6 21 60 232 -135 20 return
          </CharString>
          <CharString index="136">
            -3 170 -152 -21 157 return
          </CharString>
          <CharString index="137">
            10 rrcurveto
            17 5 7 -2 8 vvcurveto
            2 vlineto
            0 1 4 -11 vhcurveto
            -54 -7 return
          </CharString>
          <CharString index="138">
            30 13 -12 -18 -55 -119 -112 -91 return
          </CharString>
          <CharString index="139">
            0 3 4 -15 callgsubr
            return
          </CharString>
          <CharString index="140">
            17 -20 -29 10 -39 hhcurveto
            -16 -12 -2 -1 -6 hvcurveto
            -4 -1 3 3 return
          </CharString>
          <CharString index="141">
            1 2 0 1 1 vvcurveto
            4 -2 1 -3 -6 -8 -5 -12 -4 vhcurveto
            return
          </CharString>
          <CharString index="142">
            -20 hstemhm
            32 30 107 25 32 84 461 144 412 26 return
          </CharString>
          <CharString index="143">
            452 -24 139 -121 102 278 44 -15 80 -65 53 return
          </CharString>
          <CharString index="144">
            rlineto
            0 4 5 6 vvcurveto
            return
          </CharString>
          <CharString index="145">
            47 -71 31 -57 -97 -44 -64 -58 -17 4 -17 7 -15 vhcurveto
            return
          </CharString>
          <CharString index="146">
            2 callsubr
            -2 return
          </CharString>
          <CharString index="147">
            hstemhm
            211 94 374 72 -17 130 830 24 return
          </CharString>
          <CharString index="148">
            -280 189 -154 154 -61 169 0 -21 return
          </CharString>
          <CharString index="149">
            42 3 48 36 44 -28 callsubr
            endchar
          </CharString>
          <CharString index="150">
            2 2 1 3 hhcurveto
            return
          </CharString>
          <CharString index="151">
            21 47 174 -131 131 -23 23 26 20 return
          </CharString>
          <CharString index="152">
            5 -7 -10 4 -23 hhcurveto
            -82 -62 -25 -31 -43 hvcurveto
            return
          </CharString>
          <CharString index="153">
            162 -20 20 18 22 126 21 hstemhm
            66 32 return
          </CharString>
          <CharString index="154">
            0 73 206 274 76 47 -23 -32 25 vhcurveto
            return
          </CharString>
          <CharString index="155">
            99 146 125 65 return
          </CharString>
          <CharString index="156">
            hstemhm
            23 29 112 25 return
          </CharString>
          <CharString index="157">
            21 -3 -18 19 -38 hhcurveto
            -54 -33 -43 -40 hvcurveto
            return
          </CharString>
          <CharString index="158">
            -56 -8 -34 -52 -33 hhcurveto
            -13 -6 7 11 hvcurveto
            return
          </CharString>
          <CharString index="159">
            1 10 10 1 9 hhcurveto
            49 45 -11 -25 hvcurveto
            return
          </CharString>
          <CharString index="160">
            vhcurveto
            1 4 0 3 4 vvcurveto
            return
          </CharString>
          <CharString index="161">
            vvcurveto
            -19 callgsubr
            return
          </CharString>
          <CharString index="162">
            -33 -12 26 33 hvcurveto
            5 vlineto
            return
          </CharString>
          <CharString index="163">
            vhcurveto
            1 5 0 return
          </CharString>
          <CharString index="164">
            -20 hstemhm
            -253 25 231 32 hintmask 10011110
            return
          </CharString>
          <CharString index="165">
            182 -96 96 hstemhm
            19 32 158 27 return
          </CharString>
          <CharString index="166">
            -99 -121 -47 -87 -18 6 -37 65 -59 return
          </CharString>
          <CharString index="167">
            86 84 92 130 34 22 -12 -16 13 return
          </CharString>
          <CharString index="168">
            -40 -8 180 340 -20 hstem
            22 25 return
          </CharString>
          <CharString index="169">
            -41 161 -125 -21 129 177 return
          </CharString>
          <CharString index="170">
            2 2 3 vvcurveto
            return
          </CharString>
        <CharString name=".notdef">
          -153 endchar
        </CharString>
        <CharString name="A">
          -52 callgsubr
          351 -20 hstemhm
          44 20 129 32 195 24 15 35 55 21 127 130 -22 22 hintmask 1101111111100000
          -94 callsubr
          118 -61 -107 callgsubr
        </CharString>
        <CharString name="AE">
          1089 -49 21 25 -21 39 -21 77 222 -21 21 16 63 2 109 -12 58 -12 191 15 -53 callsubr
          55 35 89 22 237 30 86 36 147 26 hintmask 110101101011111101111100
          -94 callsubr
          648 162 rmoveto
          54 -3 18 -8 -12 vvcurveto
          -6 -11 -5 -15 -30 -22 13 20 -15 vhcurveto
          -427 -314 rmoveto
          -3 -15 -1 -15 -15 vvcurveto
          -12 1 -12 2 -11 vhcurveto
          -18 -6 -20 -4 -21 -3 rrcurveto
          -22 185 rmoveto
          -3 -60 -16 -70 -15 -55 -52 3 -41 12 -31 17 48 42 52 52 58 59 rrcurveto
          317 334 rmoveto
          0 4 0 -2 vvcurveto
          -5 -267 -414 -8 -14 vhcurveto
          -6 -10 -25 -37 -27 -38 rrcurveto
          -7 hlineto
          16 62 22 87 3 60 84 86 95 102 116 123 rrcurveto
          -489 -478 rmoveto
          -42 29 -20 39 36 vvcurveto
          22 7 21 14 17 vhcurveto
          -3 15 16 -2 17 hhcurveto
          63 29 31 14 9 -10 9 -23 -45 -36 -17 -24 -26 hvcurveto
          -94 22 -53 90 67 vvcurveto
          97 53 27 59 vhcurveto
          hintmask 110101101011111011111100
          -3 callgsubr
          hvcurveto
          -63 -65 -58 -56 -52 -46 rrcurveto
          907 401 -58 callgsubr
          -83 -13 -100 -40 -79 -63 91 145 76 125 14 12 rrcurveto
          8 6 3 9 6 vvcurveto
          hintmask 110011100111111101111100
          4 -5 8 -7 -11 -12 -15 -10 -10 vhcurveto
          -123 -132 19 callsubr
          rlinecurve
          -99 callsubr
          84 107 97 168 91 29 -36 -35 -56 -63 -56 -124 -17 -30 1 28 hvcurveto
          -64 callsubr
          hintmask 101101101011111101111100
          -36 46 -6 32 61 162 37 100 26 -6 59 -145 -183 -116 -114 -96 -71 62 -61 144 132 105 50 124 142 vhcurveto
          33 -17 46 -11 59 -2 -13 -42 rcurveline
          -26 -38 rlineto
          -8 -11 -12 -17 -9 vvcurveto
          -5 5 -5 5 6 9 9 28 21 vhcurveto
          18 24 21 31 24 36 27 3 22 4 21 5 rrcurveto
          hintmask 110101101011111101111100
          -73 17 57 -59 -60 callgsubr
          hintmask 101101010111111101111100
          0 callsubr
          -94 -42 59 65 -13 vhcurveto
          22 8 16 7 0 vvcurveto
          12 4 4 6 5 vvcurveto
          3 -3 2 -3 -5 -19 -10 -10 -26 vhcurveto
          0 -2 1 28 vvcurveto
          -61 callgsubr
        </CharString>
        <CharString name="Aacute">
          -52 callgsubr
          463 -20 hstemhm
          44 20 129 32 195 24 15 35 55 21 127 130 -22 22 hintmask 1101111111100000
          -94 callsubr
          495 419 -106 callsubr
          -377 -480 -107 callgsubr
        </CharString>
        <CharString name="Acircumflex">
          -52 callgsubr
          395 54 -83 callsubr
          hintmask 1101111111100000
          -94 callsubr
          463 417 -104 callgsubr
          -345 -478 -107 callgsubr
        </CharString>
        <CharString name="Adieresis">
          -52 callgsubr
          435 -48 callsubr
          -2 0 -1 -1 -1 vhcurveto
          3 4 rlineto
          -2 hlineto
          419 712 rmoveto
          -15 -13 -20 -10 -10 7 -3 7 5 5 2 3 4 hvcurveto
          5 4 9 11 9 -28 callsubr
          73 -9 rmoveto
          -15 -13 -20 -10 -10 7 -3 7 5 5 2 3 4 hvcurveto
          5 4 9 11 9 -28 callsubr
          -587 -443 13 callsubr
          118 -61 -104 callsubr
        </CharString>
        <CharString name="Agrave">
          -52 callgsubr
          469 -48 callsubr
          -2 0 -1 -1 -1 vhcurveto
          3 4 rlineto
          -2 hlineto
          -95 260 13 callsubr
          582 425 -102 callgsubr
          -464 -486 -104 callsubr
        </CharString>
        <CharString name="Aring">
          -52 callgsubr
          438 -48 callsubr
          2 hlineto
          -3 -4 rlineto
          -39 callsubr
          2 vvcurveto
          462 703 17 callsubr
          -6 -5 3 6 5 9 20 18 hvcurveto
          -557 -443 rmoveto
          7 4 -2 -6 -19 -50 -2 -11 -11 -10 1 1 -10 hvcurveto
          17 19 28 10 34 hhcurveto
          535 397 rmoveto
          22 24 20 20 1 hvcurveto
          -7 callsubr
          -417 -458 -107 callgsubr
        </CharString>
        <CharString name="Atilde">
          -52 callgsubr
          393 43 hstemhm
          44 20 129 32 195 24 15 35 0 55 -55 203 -148 21 0 235 -108 130 -22 22 hintmask 1101111100100010
          -94 callsubr
          485 453 rmoveto
          -15 -28 -9 -20 -2 2 -2 3 2 1 0 3 3 hvcurveto
          9 11 7 4 9 26 39 -26 25 hhcurveto
          12 33 10 16 3 -2 3 -3 hvcurveto
          57 callgsubr
          9 callsubr
          -367 -514 rmoveto
          -3 -60 -16 -70 -15 -55 -52 3 -41 12 -31 17 48 42 52 52 58 59 rrcurveto
          317 334 rmoveto
          0 4 0 -2 vvcurveto
          -5 -267 -414 -8 -14 vhcurveto
          -6 -10 -25 -37 -27 -38 rrcurveto
          -7 hlineto
          16 62 22 87 3 60 84 86 95 102 116 123 rrcurveto
          -489 -478 rmoveto
          hintmask 1101111101001000
          -42 29 -20 39 36 vvcurveto
          22 7 21 14 17 vhcurveto
          -3 15 16 -2 17 hhcurveto
          63 29 31 14 9 -10 9 -23 -45 -36 -17 -24 -26 hvcurveto
          -94 22 -53 90 67 vvcurveto
          97 53 27 59 -3 callgsubr
          vhcurveto
          -63 -65 -58 -56 -52 -46 rrcurveto
          -439 -37 rmoveto
          -36 46 -6 32 61 162 37 100 26 -6 59 -145 -183 -116 -114 -96 -71 62 -61 144 132 105 50 124 142 vhcurveto
          33 -17 46 -11 59 -2 -13 -42 rcurveline
          -26 -38 rlineto
          -8 -11 -12 -17 -9 vvcurveto
          -5 5 -5 5 6 9 9 28 21 vhcurveto
          18 24 21 31 24 36 rrcurveto
          80 8 62 29 0 vvcurveto
          12 4 4 6 5 vvcurveto
          3 -3 2 -3 -10 -61 -36 -8 -72 vhcurveto
          139 211 207 351 24 19 rrcurveto
          8 6 3 9 6 vvcurveto
          4 -5 8 -7 -11 -12 -15 -10 -10 vhcurveto
          -123 -132 rlineto
          hintmask 1011111110010100
          19 callsubr
          rrcurveto
          -99 callsubr
          84 107 97 168 91 29 -36 -35 -56 -63 -56 -124 -17 -30 1 28 hvcurveto
          -38 callsubr
        </CharString>
        <CharString name="B">
          730 -41 79 -43 -21 28 -21 34 -21 128 134 -12 126 -102 22 12 68 -17 141 -141 229 -114 26 73 118 42 -20 hstemhm
          13 31 191 75 153 25 33 36 45 194 -113 41 42 30 190 30 58 29 hintmask 001010101001111110111100
          286 181 rmoveto
          -16 -6 -26 -19 -4 -1 4 3 18 11 17 17 16 vhcurveto
          1 -5 1 -5 -6 vvcurveto
          438 154 rmoveto
          10 19 9 37 vhcurveto
          5 hlineto
          -29 -37 rlineto
          -21 3 -11 8 7 vvcurveto
          -88 159 rmoveto
          -4 -2 2 3 14 31 37 39 13 hvcurveto
          -39 -6 -25 -30 -33 hhcurveto
          149 -178 rmoveto
          6 8 6 7 16 22 33 -2 28 -6 23 -8 -34 -13 -38 -7 -40 -1 rrcurveto
          -146 -335 rmoveto
          -15 -67 5 23 8 11 7 17 26 51 -18 -16 61 hvcurveto
          -6 -27 -28 -3 -29 hhcurveto
          435 554 rmoveto
          -68 -60 -77 -91 -42 vhcurveto
          -27 9 -33 6 -40 2 44 55 84 114 90 78 rrcurveto
          22 -22 11 -27 -28 vvcurveto
          hintmask 100010100100111111001100
          -373 47 rmoveto
          -4 vlineto
          -56 -16 -43 -52 -26 vvcurveto
          hintmask 100010110011111110111100
          -10 6 -6 13 50 37 45 53 10 vhcurveto
          43 callsubr
          29 12 -11 -17 -54 -124 -115 -84 -47 -23 28 39 65 66 97 131 45 hvcurveto
          hintmask 100010100100111111001100
          11 -20 5 -21 -21 vvcurveto
          -205 -323 rmoveto
          -3 4 3 -1 3 hhcurveto
          6 4 5 5 4 -2 5 -6 4 hvcurveto
          -15 9 -6 1 -27 2 -53 -1 -63 -30 -47 -35 rrcurveto
          21 -17 -35 11 -39 hhcurveto
          -118 -75 -81 -78 -70 62 -68 145 hvcurveto
          hintmask 100010110011111111001100
          268 156 176 167 130 hvcurveto
          52 2 47 10 41 16 rrcurveto
          50 -22 22 -38 -41 vvcurveto
          -82 -85 -100 -128 -44 vhcurveto
          16 -73 -72 19 -30 hhcurveto
          -16 -61 -2 -24 -36 65 -11 37 44 43 7 11 40 hvcurveto
          -11 46 49 -9 49 hhcurveto
          39 64 13 6 11 hvcurveto
          3 1 1 3 2 vvcurveto
          hintmask 000110110011111111001100
          3 -3 3 -5 vhcurveto
          hintmask 001010101001111111001100
          -4 -17 -22 -9 -44 hhcurveto
          -33 -45 8 10 -47 hvcurveto
          130 52 90 103 84 vvcurveto
          42 -23 38 -53 23 vhcurveto
          101 47 62 81 72 vvcurveto
          32 -13 31 -28 25 vhcurveto
          35 27 35 22 34 10 rrcurveto
          13 4 6 3 5 vvcurveto
          0 0 7 -11 vhcurveto
          -47 -11 -43 -23 -41 -30 rrcurveto
          25 -40 -61 17 -85 hhcurveto
          -59 -53 -8 -14 -46 hvcurveto
          36 -24 -46 28 -77 hhcurveto
          -39 callgsubr
          66 43 -25 -33 23 vhcurveto
          -140 -50 -74 -102 -72 vvcurveto
          -45 29 -33 59 48 callsubr
          vhcurveto
          hintmask 100010100100111110111100
          -12 callgsubr
          20 -4 21 -10 18 vhcurveto
          11 39 45 7 50 hhcurveto
          86 59 -16 -26 38 hvcurveto
          -80 -67 -74 -96 -75 -98 rrcurveto
          -68 -43 -22 -18 hvcurveto
          hintmask 010010110011111111001100
          -12 18 -11 43 -1 vhcurveto
          -170 -135 -151 -158 -224 hhcurveto
          -136 -54 62 64 hvcurveto
          hintmask 100001000011111111001100
          70 64 74 89 37 31 -12 -24 14 vhcurveto
          -27 -23 -17 -24 -18 vvcurveto
          hintmask 100010110011111111001100
          -14 9 -7 14 33 19 38 28 9 -2 8 -4 8 vhcurveto
          33 48 70 22 27 hhcurveto
          21 18 -4 -5 8 hvcurveto
          endchar
        </CharString>
        <CharString name="C">
          235 0 -21 39 -21 354 46 callsubr
          -6 27 271 149 264 26 hintmask 1001111011000000
          -76 callsubr
          110 154 100 70 30 38 vhcurveto
          -13 callsubr
          hintmask 0110111011000000
          -45 callgsubr
          hintmask 1010110111000000
          -25 callsubr
        </CharString>
        <CharString name="Ccedilla">
          235 -95 92 3 -21 372 46 callsubr
          -32 188 -162 27 271 149 264 26 hintmask 0101110101100000
          -76 callsubr
          114 vhcurveto
          -6 -19 0 -2 -1 -9 13 4 -8 vvcurveto
          -16 -20 -8 -21 -7 -13 2 2 -6 vhcurveto
          -6 -2 -5 -3 hvcurveto
          hintmask 1010110101100000
          -7 13 -4 25 35 23 16 23 9 -9 5 -8 4 vhcurveto
          hintmask 0110111001100000
          2 17 144 5 94 66 37 29 rlinecurve
          -13 callsubr
          hintmask 1010111001100000
          -45 callgsubr
          hintmask 1010110011100000
          -25 callsubr
        </CharString>
        <CharString name="D">
          615 -11 86 -64 -21 230 3 callgsubr
          hintmask 1001011110100000
          -62 callgsubr
          hintmask 1010111101100000
          -62 callsubr
          259 115 140 318 210 157 -54 callsubr
          1 6 0 21 callgsubr
          -229 -163 -145 -321 -241 -109 rrcurveto
          19 -65 -63 18 -57 hhcurveto
          -54 -49 -6 -31 hvcurveto
          hintmask 0110111110100000
          61 callgsubr
          hintmask 1010111110100000
          -75 callsubr
        </CharString>
        <CharString name="E">
          -24 callgsubr
          25 callgsubr
          hintmask 1001001111111100
          -95 callgsubr
          -2 callsubr
          hintmask 1010010111111100
          -68 callsubr
          130 109 164 184 1 hvcurveto
          -92 callgsubr
          hvcurveto
          hintmask 0110001111111100
          -50 callsubr
          hintmask 1010010111111100
          -41 callgsubr
          -70 callgsubr
          hintmask 1001010111111100
          -53 callgsubr
          hintmask 1010100111111100
          -67 callsubr
          endchar
        </CharString>
        <CharString name="Eacute">
          36 callsubr
          12 34 -30 90 -73 59 -34 169 10 55 66 -20 callgsubr
          hintmask 101001001111111110000000
          -95 callgsubr
          hintmask 101000010111111110000000
          -2 callsubr
          hintmask 101000100111111110000000
          -68 callsubr
          hvcurveto
          hintmask 011000010111111110000000
          130 109 164 184 1 vhcurveto
          -92 callgsubr
          0 callsubr
          -88 -44 52 61 -15 hvcurveto
          30 8 28 13 25 15 rrcurveto
          533 408 rmoveto
          35 18 16 26 25 vvcurveto
          hintmask 101000010111111110000000
          45 -54 43 -101 -109 -61 -72 -65 -17 4 -16 8 -14 vhcurveto
          -26 -4 -28 -7 -28 -9 rrcurveto
          hintmask 011000100111111110000000
          -41 callgsubr
          hintmask 101000100111111110000000
          -70 callgsubr
          hintmask 100100100111111110000000
          -53 callgsubr
          hintmask 100010100111111110000000
          -80 -92 -111 -157 -108 -74 37 39 -67 vhcurveto
          24 8 25 7 25 4 rrcurveto
          -33 callsubr
          hintmask 101001001111111110000000
          -29 callsubr
          15 -4 17 17 vvcurveto
          58 44 64 -73 callsubr
          -7 217 -23 callsubr
        </CharString>
        <CharString name="Ecircumflex">
          -24 callgsubr
          68 54 25 callgsubr
          hintmask 1001001111111110
          -95 callgsubr
          -2 callsubr
          hintmask 1010010111111110
          -68 callsubr
          130 109 164 184 1 hvcurveto
          -92 callgsubr
          hvcurveto
          hintmask 0110001111111110
          -50 callsubr
          hintmask 1010010111111110
          -41 callgsubr
          -70 callgsubr
          hintmask 1001010111111110
          -53 callgsubr
          hintmask 1010100111111110
          -67 callsubr
          -93 230 -104 callgsubr
          endchar
        </CharString>
        <CharString name="Edieresis">
          36 callsubr
          0 58 -46 34 -30 90 -73 59 -34 169 10 98 9 -20 callgsubr
          hintmask 101000100110111111000000
          -74 callsubr
          hintmask 101000001010111111000000
          -57 callgsubr
          hintmask 101000010010111111000000
          33 callsubr
          hvcurveto
          hintmask 011000001010111111000000
          13 15 1 15 vhcurveto
          -80 callsubr
          hintmask 101000100110111111000000
          38 callsubr
          52 callsubr
          hintmask 100010010010111111000000
          -44 callsubr
          hintmask 100100010010111111000000
          25 callsubr
          hintmask 101001000010111111000000
          -18 callgsubr
          hintmask 011000010010111111000000
          24 callgsubr
          hvcurveto
          hintmask 101000001010111111000000
          23 callsubr
          hintmask 101001000010111111000000
          36 callgsubr
          36 255 rmoveto
          -15 -13 -20 -10 -10 7 -3 7 5 5 2 3 4 hvcurveto
          5 4 9 11 9 -28 callsubr
          hintmask 101001000001111111000000
          -73 9 rmoveto
          -15 -13 -20 -10 -10 7 -3 7 5 5 2 3 4 hvcurveto
          5 4 9 11 9 -28 callsubr
          endchar
        </CharString>
        <CharString name="Egrave">
          -24 callgsubr
          -10 69 66 -20 callgsubr
          hintmask 1001001011111110
          -74 callsubr
          -57 callgsubr
          hintmask 0110010111111110
          33 callsubr
          13 15 1 15 hvcurveto
          -80 callsubr
          38 callsubr
          hintmask 1010100111111110
          52 callsubr
          -44 callsubr
          hintmask 1001010111111110
          25 callsubr
          hintmask 1010010111111110
          -18 callgsubr
          24 callgsubr
          23 callsubr
          hintmask 1010001011111110
          36 callgsubr
          45 221 rmoveto
          5 -5 -1 -8 2 vhcurveto
          -36 9 -20 11 -22 24 rrcurveto
          5 -5 -10 6 -7 hhcurveto
          -5 -3 -3 -6 hvcurveto
          hintmask 1010100111111110
          -23 83 -34 31 4 3 2 3 vhcurveto
          endchar
        </CharString>
        <CharString name="Eth">
          615 -11 86 -64 -21 185 23 22 3 callgsubr
          hintmask 1010101111010000
          -62 callgsubr
          hintmask 1011011110110000
          -62 callsubr
          75 33 65 51 60 59 rrcurveto
          73 -86 callgsubr
          -98 callsubr
          -63 hlineto
          135 140 110 178 141 106 -54 callsubr
          6 1 21 callgsubr
          -155 -111 -117 -182 -133 -140 rrcurveto
          -101 -103 callsubr
          94 hlineto
          -57 -57 -61 -49 -69 -31 rrcurveto
          17 -65 -63 20 -57 hhcurveto
          -54 -49 -6 -31 hvcurveto
          hintmask 0111011111010000
          61 callgsubr
          hintmask 1011011111010000
          -75 callsubr
        </CharString>
        <CharString name="Euro">
          349 -19 -21 39 -21 226 23 33 23 -23 99 -18 162 -20 20 3 22 92 21 hstemhm
          149 32 -11 23 289 149 238 26 hintmask 1010101111011000
          506 400 rmoveto
          41 57 42 24 6 4 -3 -6 -19 -37 -30 -54 -26 vhcurveto
          125 84 rmoveto
          14 -9 6 -13 -41 -86 -58 -48 vhcurveto
          -8 vlineto
          -22 -53 -66 -17 -63 hhcurveto
          -14 hlineto
          145 111 182 125 167 hhcurveto
          88 35 -27 -38 -91 -172 -105 -133 -30 -18 10 14 -7 hvcurveto
          69 30 53 39 31 vvcurveto
          -238 -273 rmoveto
          -98 callsubr
          -179 hlineto
          5 11 5 11 6 11 rrcurveto
          195 -86 callgsubr
          5 5 2 3 2 vvcurveto
          hintmask 1011010110111000
          -65 callgsubr
          -195 hlineto
          10 17 11 17 13 17 rrcurveto
          21 hlineto
          58 71 16 24 61 hvcurveto
          -19 9 21 -14 37 hhcurveto
          163 179 129 102 41 -33 28 -82 -195 -199 -136 -153 -121 hvcurveto
          -51 9 -21 31 31 vvcurveto
          50 51 33 25 vhcurveto
          22 6 -7 5 hhcurveto
          9 0 12 0 9 -10 8 -9 -40 -82 -47 -61 -37 24 -35 59 -11 hvcurveto
          -13 -18 -13 -18 -11 -18 rrcurveto
          -79 -103 callsubr
          81 hlineto
          -6 -11 -6 -11 -5 -11 rrcurveto
          -93 -103 callsubr
          99 hlineto
          hintmask 1011010111011000
          -17 -41 -9 -39 -35 vvcurveto
          -76 46 -53 110 154 100 70 30 38 vhcurveto
          -13 callsubr
          hintmask 0111010111011000
          0 -105 -99 -164 -99 -42 48 70 34 8 36 14 38 vhcurveto
          175 -37 callgsubr
        </CharString>
        <CharString name="F">
          395 -152 143 -17 170 -24 24 80 71 66 47 callgsubr
          -24 81 10 -20 hstemhm
          25 29 176 82 -34 34 153 29 43 23 35 193 -28 28 28 29 hintmask 010100100011011101000000
          626 491 -77 callsubr
          -360 -347 rmoveto
          -8 -4 4 6 12 18 23 33 16 hvcurveto
          -32 -16 -29 -23 vhcurveto
          480 175 rmoveto
          -60 -73 -62 -70 -67 -57 -8 43 -22 38 -40 21 67 47 86 37 106 14 rrcurveto
          -211 -218 rmoveto
          -65 -51 -71 -38 -80 -14 18 66 49 79 81 64 41 -22 21 -39 6 -45 rrcurveto
          -159 -236 rmoveto
          -42 -22 32 48 11 1 12 2 13 hvcurveto
          84 13 73 33 65 46 rrcurveto
          -98 -1 -67 -110 -93 hhcurveto
          298 712 rmoveto
          18 callsubr
          hintmask 101101000011011101000000
          -44 callgsubr
          hintmask 101100100011011011000000
          -18 callsubr
          -427 -586 rmoveto
          -32 callgsubr
          46 21 -30 -31 5 hvcurveto
          -46 -24 -28 -36 -21 vvcurveto
          -11 7 -6 15 37 31 47 46 3 vhcurveto
          6 19 23 5 26 hhcurveto
          22 19 -3 -6 17 hvcurveto
          -92 -68 -54 -84 -18 -70 rrcurveto
          -2 -13 -12 0 -13 hhcurveto
          278 720 rmoveto
          -39 callgsubr
          80 43 -29 -36 19 vhcurveto
          -105 -38 -90 -66 -105 vvcurveto
          hintmask 010110010110111011000000
          -30 callsubr
          52 66 -6 -6 64 hvcurveto
          -104 -75 -91 -118 -95 -115 -119 -17 -97 -39 -75 -51 rrcurveto
          8 -19 -23 4 -27 hhcurveto
          -29 -26 -6 -9 -22 hvcurveto
          37 -3 -24 32 -57 20 callgsubr
          -74 63 -69 147 15 16 1 1 15 hvcurveto
          -2 -11 -1 -11 -10 vvcurveto
          hintmask 101110010111011101000000
          -57 30 -39 60 112 80 127 109 vhcurveto
          6 vlineto
          83 64 71 83 69 85 rrcurveto
          2 19 20 1 20 hhcurveto
          6 5 -1 -4 hvcurveto
          -12 -37 -21 -35 vvcurveto
          -14 19 -8 12 15 0 7 0 0 0 10 -4 -6 -7 2 13 33 43 25 0 vhcurveto
          5 3 5 6 5 vvcurveto
          2 -1 6 -4 1 vhcurveto
          1 -2 -5 0 -6 hhcurveto
          -29 -27 -1 -3 -26 hvcurveto
          90 114 90 114 107 73 rrcurveto
          -6 62 57 -5 39 27 callgsubr
          -40 -59 4 5 -63 hvcurveto
          31 18 32 13 34 30 callsubr
          -49 -19 -47 -29 rrcurveto
          5 -61 -63 4 -49 hhcurveto
          -61 -85 -11 -25 -79 hvcurveto
          hintmask 101110001011011101000000
          40 -21 -49 32 -89 hhcurveto
          endchar
        </CharString>
        <CharString name="G">
          252 -349 -20 23 -21 82 22 -22 184 -184 223 -13 143 -24 24 354 164 -21 21 -21 209 -176 22 hstemhm
          -243 30 280 34 -3 27 121 26 86 25 29 140 201 34 34 33 hintmask 101001001011011111100000
          513 565 rmoveto
          3 3 -2 -3 -17 -36 -30 -49 -27 hvcurveto
          36 1 33 43 45 hhcurveto
          -155 -745 rmoveto
          -43 -32 -40 -33 -15 -6 5 9 20 32 35 52 30 vhcurveto
          1 -5 1 -6 -5 vvcurveto
          387 598 rmoveto
          5 3 -2 -5 -31 -93 -91 -116 -81 hvcurveto
          119 94 72 91 35 hhcurveto
          -883 -767 rmoveto
          -52 -23 19 28 78 177 149 208 38 31 -4 -7 25 hvcurveto
          -145 -131 -138 -118 -135 hhcurveto
          690 921 rmoveto
          10 -10 4 -9 -73 -48 -60 -48 vhcurveto
          -3 vlineto
          -28 -58 -70 -24 -54 hhcurveto
          -11 -11 1 1 -9 hvcurveto
          168 116 204 164 208 hhcurveto
          68 26 -21 -31 -95 -232 -171 -104 -30 -15 14 19 -5 hvcurveto
          68 35 49 41 24 vvcurveto
          -315 36 rmoveto
          7 -7 5 -13 -44 -75 -64 -60 -45 33 -26 36 -11 vhcurveto
          hintmask 010010110011101111100000
          -62 -91 -38 -92 -69 vvcurveto
          -71 39 -47 93 69 89 35 49 88 vhcurveto
          -53 -66 -56 -69 -57 -65 rrcurveto
          7 -27 -33 3 -40 hhcurveto
          -240 -182 -155 -89 -36 29 -25 67 144 154 124 149 140 hvcurveto
          33 -13 18 -20 9 -21 rrcurveto
          hintmask 101001010011101111100000
          -68 -37 -37 -50 -28 vvcurveto
          -13 8 -9 18 55 56 58 57 7 -1 6 -1 6 vhcurveto
          22 45 57 16 63 hhcurveto
          20 42 -3 -10 24 hvcurveto
          -1 2 2 -1 2 hhcurveto
          5 3 3 4 4 -3 4 -7 2 hvcurveto
          hintmask 100101010011101111100000
          3 -8 -32 7 -44 hhcurveto
          -70 -59 -15 -21 -47 hvcurveto
          -11 23 -22 21 -39 14 75 81 71 87 62 79 rrcurveto
          147 94 128 121 42 vvcurveto
          10 -4 7 -11 -73 -106 -129 -153 -122 vhcurveto
          -53 -88 -92 -39 -69 hhcurveto
          -85 -36 45 67 63 32 83 55 83 hvcurveto
          -1 8 7 0 8 hhcurveto
          64 75 23 30 64 hvcurveto
          -23 6 20 -16 38 hhcurveto
          138 238 185 102 hvcurveto
          hintmask 101001000101011111100000
          39 -34 26 -88 -212 -216 -169 -175 -126 vhcurveto
          -35 11 -18 25 37 vvcurveto
          hintmask 101001010011101111100000
          31 44 64 34 vhcurveto
          10 9 -2 6 hhcurveto
          6 3 2 10 hvcurveto
          endchar
        </CharString>
        <CharString name="H">
          707 -116 144 -21 21 -5 21 55 198 23 165 1 148 -19 140 -17 35 hstemhm
          14 27 128 38 2 80 384 31 -19 84 -28 28 134 32 455 132 103 33 hintmask 001110101111011110000000
          274 236 rmoveto
          -12 -11 -42 -23 -1 -2 1 1 -1 vhcurveto
          -2 2 -1 2 3 vvcurveto
          22 15 22 23 18 vhcurveto
          1 -5 2 -6 -6 vvcurveto
          594 379 rmoveto
          11 5 -2 -5 -12 -33 -23 -52 -23 hvcurveto
          38 20 27 27 22 hhcurveto
          -157 -571 rmoveto
          -5 -5 2 4 26 57 23 53 hvcurveto
          2 hlineto
          -35 -38 -34 -20 -30 hhcurveto
          705 492 rmoveto
          30 27 41 26 13 6 -4 -7 -15 -26 -29 -42 -34 vhcurveto
          -3 5 -1 6 7 vvcurveto
          106 79 rmoveto
          hintmask 100111011111011110000000
          12 -11 7 -23 -49 -49 -60 -44 -11 3 -10 6 -7 vhcurveto
          -93 -71 -152 -87 -128 -33 rrcurveto
          198 164 185 229 164 hhcurveto
          61 25 -28 -37 -70 -86 -100 -87 -9 -7 1 3 -5 hvcurveto
          hintmask 010110101111011110000000
          55 45 36 40 23 vvcurveto
          -1028 -130 rmoveto
          -186 -101 86 73 52 52 45 110 170 116 -100 -132 25 hvcurveto
          -14 -56 -64 -10 -66 hhcurveto
          -52 -149 rmoveto
          -43 -2 -67 -26 -52 -35 -11 18 -25 16 -44 7 rrcurveto
          1 -5 -5 0 -5 hhcurveto
          -81 -90 -68 -91 -108 86 -41 101 235 148 146 177 161 hvcurveto
          17 19 rlineto
          -40 25 51 -28 86 hhcurveto
          16 18 1 3 18 hvcurveto
          -54 -68 -51 -62 -46 -44 rrcurveto
          -1 hlineto
          -71 -80 -31 -38 hvcurveto
          hintmask 001111011111011110000000
          -11 10 -8 11 40 47 29 46 51 vhcurveto
          39 -5 32 -20 -42 vvcurveto
          -60 -67 -58 -100 -14 vhcurveto
          -7 1 rlineto
          -4 -2 -4 -4 hvcurveto
          hintmask 100111011111011110000000
          -4 2 -3 5 -1 vhcurveto
          49 156 52 101 47 -41 21 -49 5 hvcurveto
          51 48 55 65 58 69 135 30 163 90 105 80 rrcurveto
          -4 8 12 -2 15 hhcurveto
          93 118 119 80 hvcurveto
          hintmask 100110101111011110000000
          40 -29 30 -77 -203 -196 -249 -203 -162 vhcurveto
          -4 -22 -21 -2 -19 hhcurveto
          -84 -45 31 43 -19 hvcurveto
          74 87 50 73 81 82 23 26 82 81 83 31 rrcurveto
          10 2 10 6 7 vvcurveto
          2 -1 1 -1 2 vhcurveto
          hintmask 100111011110101110000000
          2 -1 -2 0 -3 hhcurveto
          -69 -86 -72 -118 -106 hvcurveto
          -51 -56 -62 -75 -41 -49 rrcurveto
          -1 10 -1 10 10 vvcurveto
          32 8 35 13 29 vhcurveto
          78 34 48 39 21 vvcurveto
          9 -8 5 -18 -44 -47 -43 -57 -29 vhcurveto
          -21 -8 -24 -8 -26 -7 rrcurveto
          136 -23 -121 108 -178 hhcurveto
          -133 -75 -64 -67 -77 97 -81 220 72 66 9 15 58 hvcurveto
          2 -13 1 -14 -13 vvcurveto
          -55 -21 -71 0 vhcurveto
          -4 2 -1 4 -2 vhcurveto
          5 3 8 0 hvcurveto
          hintmask 100111011111011110000000
          9 21 17 63 54 vvcurveto
          11 -1 11 -1 10 vhcurveto
          21 6 19 7 19 7 rrcurveto
          -13 -29 -7 -32 -30 vvcurveto
          -18 2 -18 6 -16 vhcurveto
          -11 -13 -7 -8 -1 -2 rrcurveto
          -162 -140 -146 -162 -232 hhcurveto
          -80 -91 46 82 66 34 67 124 14 hvcurveto
          16 -1 36 -12 16 -27 rrcurveto
          -34 -25 -24 -30 -27 vvcurveto
          -13 11 -5 10 4 5 1 1 3 vhcurveto
          13 5 34 24 46 vvcurveto
          8 -2 8 -3 8 vhcurveto
          34 49 69 22 32 55 -2 -27 13 hhcurveto
          2 3 1 3 2 hvcurveto
          2 2 0 2 2 vvcurveto
          0 -13 33 -54 vhcurveto
          endchar
        </CharString>
        <CharString name="I">
          -47 callsubr
          -56 22 -22 callgsubr
          hintmask 1001000100110111
          619 488 -77 callsubr
          604 200 rmoveto
          9 7 -6 -7 -21 -83 -15 -36 -10 -71 callgsubr
          hintmask 1001001000110111
          -44 callgsubr
          hintmask 1000100100110111
          -91 callgsubr
          hintmask 1001010010110111
          32 callgsubr
          hintmask 0010101000110111
          16 -13 -22 12 -34 20 callgsubr
          hvcurveto
          hintmask 1001010010110111
          -7 callgsubr
          vhcurveto
          -30 callgsubr
          hintmask 1001010001110111
          18 callgsubr
          hintmask 1001001000110111
          -72 callsubr
          hintmask 0101010001101111
          -78 callsubr
          -90 callsubr
          hintmask 1000101000110111
          39 callgsubr
        </CharString>
        <CharString name="Iacute">
          361 -49 170 -24 24 135 35 -16 92 -17 223 -109 245 -151 117 -52 86 -70 55 -41 22 34 54 66 58 callgsubr
          hintmask 1010001000111110
          1081 768 -106 callsubr
          -462 -280 -77 callsubr
          604 200 rmoveto
          9 7 -6 -7 hvcurveto
          hintmask 1010100010111110
          -21 -83 -15 -36 vhcurveto
          -3 hlineto
          -7 -71 callgsubr
          hintmask 1010010000011110
          -44 callgsubr
          hintmask 1001001000111110
          -91 callgsubr
          hintmask 1010100100011110
          32 callgsubr
          16 -13 -22 12 -34 20 callgsubr
          -7 callgsubr
          hvcurveto
          -30 callgsubr
          hintmask 1010100001111110
          18 callgsubr
          hintmask 1010010000011110
          32 -25 -47 23 -76 hhcurveto
          -274 -73 -206 -76 callgsubr
          hintmask 1010100010111110
          0 80 194 243 67 41 -21 -27 23 vhcurveto
          -119 -47 -72 -96 -69 vvcurveto
          -78 callsubr
          hintmask 0110100001111110
          -90 callsubr
          hintmask 1001010000011110
          39 callgsubr
        </CharString>
        <CharString name="Icircumflex">
          -47 callsubr
          -56 22 98 54 -22 callgsubr
          hintmask 100100010011101110000000
          993 778 -104 callgsubr
          -374 -290 -77 callsubr
          604 200 rmoveto
          9 7 -6 -7 -21 -83 -15 -36 hvcurveto
          -3 hlineto
          -7 -71 callgsubr
          hintmask 100100100011101110000000
          -44 callgsubr
          hintmask 100010010011101110000000
          -91 callgsubr
          hintmask 100101001011101110000000
          32 callgsubr
          hintmask 001010100011101110000000
          16 -13 -22 12 -34 20 callgsubr
          hvcurveto
          hintmask 100101001011101110000000
          -7 callgsubr
          vhcurveto
          -30 callgsubr
          hintmask 100101000111101110000000
          18 callgsubr
          hintmask 100100100011101110000000
          -72 callsubr
          hintmask 010101000111011110000000
          -78 callsubr
          -90 callsubr
          hintmask 100010100011101110000000
          39 callgsubr
        </CharString>
        <CharString name="Idieresis">
          361 -49 170 -24 24 135 35 -16 92 -17 223 -109 245 -151 117 -102 80 -30 86 -34 132 -34 -20 63 -20 -22 callgsubr
          hintmask 101010000100110111000000
          1087 807 rmoveto
          -15 -13 -20 -10 -10 7 -3 7 5 5 2 3 4 hvcurveto
          5 4 9 11 9 -28 callsubr
          hintmask 010100100011110111000000
          -73 9 rmoveto
          -15 -13 -20 -10 -10 7 -3 7 5 5 2 3 4 hvcurveto
          5 4 9 11 9 -28 callsubr
          -395 -328 -27 callgsubr
          -74 callgsubr
          hintmask 010101000011101111000000
          -36 callsubr
          hintmask 101000010100110111000000
          -57 callsubr
          hvcurveto
          hintmask 101010001011110111000000
          34 callgsubr
          vhcurveto
          4 callsubr
          47 callsubr
          hintmask 101000100011110111000000
          8 callgsubr
          hintmask 101010001011110111000000
          -5 callsubr
          60 callsubr
          hvcurveto
          13 callgsubr
          hintmask 100101000011110111000000
          -13 2 27 -55 hhcurveto
          endchar
        </CharString>
        <CharString name="Igrave">
          -47 callsubr
          -86 156 -126 22 170 58 callgsubr
          hintmask 1001010001011110
          1129 784 -102 callgsubr
          -510 -296 -27 callgsubr
          hintmask 0100100100011110
          -74 callgsubr
          hintmask 0010101000011110
          -36 callsubr
          hintmask 1001010000111110
          -57 callsubr
          34 callgsubr
          hvcurveto
          4 callsubr
          hintmask 1001010010011110
          47 callsubr
          hintmask 1001000100011110
          8 callgsubr
          hintmask 1001010010011110
          -5 callsubr
          hvcurveto
          hintmask 0010101000011110
          60 callsubr
          vhcurveto
          hintmask 1001010010011110
          13 callgsubr
          hintmask 1000101000011110
          -13 2 27 -55 hhcurveto
          endchar
        </CharString>
        <CharString name="J">
          257 -338 -20 23 -21 401 155 -16 183 -135 135 -17 223 -109 245 -151 117 -52 86 -56 22 36 -20 hstemhm
          -146 31 387 113 -97 29 108 196 -28 28 441 36 hintmask 101010100001101010000000
          456 488 -77 callsubr
          -92 -353 rmoveto
          -35 -29 -42 -32 -9 -3 3 6 15 27 32 45 32 vhcurveto
          1 -4 0 -4 -3 vvcurveto
          682 560 rmoveto
          9 7 -6 -7 -22 -73 -21 -35 -9 -10 0 2 -11 hvcurveto
          34 45 41 20 36 hhcurveto
          -621 -216 rmoveto
          -44 callgsubr
          hintmask 100100010011010110000000
          4 13 12 3 13 hhcurveto
          23 9 -11 -16 -53 -99 -111 -87 -62 -28 33 44 65 62 89 108 37 hvcurveto
          12 -19 5 -22 -20 54 callsubr
          hintmask 100100100001101010000000
          1 callgsubr
          -486 -817 rmoveto
          -38 -16 22 34 135 251 331 168 28 17 -10 -13 8 hvcurveto
          -53 -37 -32 -40 -22 vvcurveto
          hintmask 101010000111101010000000
          -11 8 -6 16 51 38 51 44 6 -1 6 -2 6 vhcurveto
          38 25 47 23 51 13 rrcurveto
          -272 -210 -217 -285 -152 hhcurveto
          695 1013 rmoveto
          -48 -44 -8 -13 -39 hvcurveto
          hintmask 101001001001011010000000
          -72 callsubr
          -78 callsubr
          hintmask 011010000111101010000000
          7 26 28 4 30 hhcurveto
          99 107 -19 -8 79 hvcurveto
          -109 -89 -121 -148 -120 -154 -59 -13 -53 -23 -42 -26 rrcurveto
          16 -11 -20 11 -32 hhcurveto
          -186 -273 -338 -149 -42 22 -27 52 180 234 304 280 218 hvcurveto
          3 17 16 1 17 42 13 -11 4 hhcurveto
          -2 4 3 -1 3 hhcurveto
          5 2 3 4 14 -37 6 -32 -16 -15 -1 -2 -15 hvcurveto
          120 154 115 146 98 82 rrcurveto
          hintmask 101010001001101010000000
          -1 12 13 0 10 hhcurveto
          42 117 22 44 hvcurveto
          hintmask 101010000111101010000000
          21 -22 1 -15 -49 -53 -25 -43 -57 vhcurveto
          10 -67 -99 22 -102 hhcurveto
          endchar
        </CharString>
        <CharString name="K">
          870 -59 190 -133 -21 38 -21 22 -21 112 24 -24 155 -155 174 -15 91 -17 223 -109 247 -153 122 -45 76 -53 22 40 -20 hstemhm
          19 29 179 21 hintmask 1000000101000011
          620 478 -77 callsubr
          28 -232 rmoveto
          12 24 8 19 7 8 -1 -1 8 vhcurveto
          -36 -44 rlineto
          -16 5 -14 9 12 vvcurveto
          77 -34 rmoveto
          -5 -7 0 2 -9 hvcurveto
          36 42 21 -7 21 -12 22 -15 rlinecurve
          -7 -26 -26 -3 -27 hhcurveto
          -416 -40 rmoveto
          -23 -11 -18 -20 -21 -9 8 12 16 17 24 31 22 vhcurveto
          9 -13 4 -15 -13 vvcurveto
          878 522 rmoveto
          10 5 -4 -5 -14 -36 -27 -56 -14 -14 0 1 -15 hvcurveto
          31 39 40 18 41 hhcurveto
          -598 -225 rmoveto
          -44 callgsubr
          hintmask 1000000100100111
          4 13 12 3 13 hhcurveto
          23 9 -11 -16 -53 -99 -111 -87 -50 -23 29 40 62 56 88 99 44 hvcurveto
          10 -18 5 -19 -19 vvcurveto
          18 callsubr
          -117 -203 rmoveto
          10 4 5 4 hvcurveto
          hintmask 0001001010010011
          3 -2 3 -5 -72 -59 -19 -26 -42 vhcurveto
          hintmask 0001010101000011
          16 -15 -23 10 -35 20 callgsubr
          hvcurveto
          hintmask 1000000101000011
          -74 63 -69 147 189 148 117 142 126 vhcurveto
          -1 5 4 0 4 hhcurveto
          40 38 4 8 36 hvcurveto
          -87 119 134 -160 174 hhcurveto
          32 78 9 16 hvcurveto
          hintmask 0001100101000011
          4 -5 2 -5 vhcurveto
          hintmask 0010100101000011
          -2 -1 -1 -1 hhcurveto
          hintmask 0100100100010011
          -11 -33 -25 -6 -20 hhcurveto
          -135 -152 152 88 -135 hvcurveto
          322 88 140 379 304 1 rrcurveto
          7 hlineto
          2 0 2 2 5 -3 7 -7 -288 -224 -389 -84 -270 hvcurveto
          -27 16 -25 13 -25 9 110 135 94 143 92 82 rrcurveto
          -1 14 15 0 14 hhcurveto
          83 63 44 25 hvcurveto
          hintmask 0001100010001111
          10 -9 6 -22 -57 -53 -24 -39 -51 vhcurveto
          7 -79 -85 16 -52 hhcurveto
          -59 -52 -11 -17 -45 hvcurveto
          33 -25 -47 24 -78 hhcurveto
          -274 -73 -206 -76 callgsubr
          0 80 194 243 70 41 -22 -30 23 vhcurveto
          -112 -51 -60 -94 -67 vvcurveto
          -46 28 -34 60 104 119 123 63 22 -14 15 -34 -17 -15 -3 -4 -15 56 callsubr
          6 5 vvcurveto
          20 -5 19 -10 18 vhcurveto
          12 33 36 7 41 hhcurveto
          87 73 -13 -7 72 hvcurveto
          -99 -85 -94 -140 -103 -129 rrcurveto
          3 -12 -11 1 -11 hhcurveto
          -27 -33 -11 -21 -18 18 -13 21 -8 hvcurveto
          -138 -119 -135 -111 -172 -6 callgsubr
          20 -9 -13 14 hvcurveto
          -39 -29 -21 -34 -24 vvcurveto
          -18 12 -12 25 37 26 38 39 14 -4 15 -8 13 vhcurveto
          hintmask 1000000101000011
          22 39 54 18 64 hhcurveto
          endchar
        </CharString>
        <CharString name="L">
          666 26 callsubr
          599 50 callgsubr
          979 -84 callsubr
          hintmask 0101011110000000
          56 36 39 37 27 vvcurveto
          -350 -47 rmoveto
          31 callgsubr
          -95 -119 -102 -120 -134 -69 -42 callsubr
          hintmask 1000101110000000
          -72 callgsubr
          21 17 -105 hvcurveto
          150 74 103 123 90 119 75 12 94 38 74 44 rrcurveto
          7 callgsubr
          hintmask 1001011110000000
          -15 callsubr
          endchar
        </CharString>
        <CharString name="Lslash">
          692 -10 25 -10 -21 35 -21 197 23 148 184 -108 151 -57 186 -146 146 hstemhm
          -32 32 983 124 128 30 hintmask 1001100111100000
          1005 500 rmoveto
          34 31 42 30 11 6 -3 -6 -18 -32 -30 -45 -30 vhcurveto
          -1 3 0 4 4 vvcurveto
          hintmask 0011001011100000
          -264 36 rmoveto
          11 5 -3 -4 -19 -43 -29 -66 -29 hvcurveto
          41 6 39 43 48 hhcurveto
          -612 -538 rmoveto
          -32 -73 0 37 -1 hvcurveto
          24 82 7 15 1 vhcurveto
          80 72 -11 -14 69 hvcurveto
          -28 -63 -70 -16 -79 hhcurveto
          hintmask 1001100111100000
          978 578 rmoveto
          hintmask 1001010011100000
          11 -9 6 -20 -46 -49 -59 -44 -5 0 -5 2 -5 vhcurveto
          -68 -41 -90 -41 -70 -11 rrcurveto
          168 118 108 159 168 hhcurveto
          61 23 -27 -37 -74 -96 -112 -83 -22 -14 7 10 -8 hvcurveto
          hintmask 0101100111100000
          56 36 39 37 27 vvcurveto
          -895 -225 rmoveto
          -120 -92 36 104 59 58 56 119 138 156 -85 -118 44 hvcurveto
          -30 -97 -112 -22 -94 hhcurveto
          342 -53 rmoveto
          33 -7 34 -12 32 vhcurveto
          32 10 30 11 28 12 rrcurveto
          -46 33 -18 48 vhcurveto
          -40 -51 -42 -50 -45 -47 rrcurveto
          -93 -103 callsubr
          86 hlineto
          -54 -54 -60 -48 -67 -35 -42 callsubr
          hintmask 1001010011100000
          -72 callgsubr
          19 19 -105 hvcurveto
          75 37 64 49 56 56 rrcurveto
          72 -86 callgsubr
          -98 callsubr
          -63 hlineto
          46 48 41 52 39 51 75 12 94 38 74 44 rrcurveto
          7 callgsubr
          hintmask 1001001011100000
          39 -29 29 -75 -184 -126 -169 -174 -135 vhcurveto
          -40 1 -28 17 42 vvcurveto
          75 34 51 36 27 vvcurveto
          hintmask 1001100111100000
          9 -10 5 -21 -56 -53 -57 -50 -8 vhcurveto
          -29 -12 -33 -12 -34 -11 rrcurveto
          118 -52 -130 95 -158 hhcurveto
          -139 -83 -75 -73 -100 97 -37 126 102 121 23 33 106 hvcurveto
          15 -37 9 -27 -41 vvcurveto
          -4 1 -3 4 4 1 4 4 vhcurveto
          endchar
        </CharString>
        <CharString name="M">
          834 -46 176 -162 -21 46 -21 147 140 70 20 87 232 31 -20 hstemhm
          25 26 164 82 361 72 -17 130 42 36 hintmask 1000111111010000
          279 185 rmoveto
          -28 -20 -27 -22 -5 -2 2 5 12 16 27 30 25 55 callgsubr
          306 172 -22 callsubr
          228 279 -94 callgsubr
          hintmask 1000111110110000
          -66 callsubr
          hintmask 1000111111010000
          55 callsubr
          hintmask 0111111110110000
          59 52 54 51 34 vvcurveto
          9 -5 7 -10 -66 -45 -83 -67 -4 vhcurveto
          -38 -33 rlineto
          9 vlineto
          86 -45 88 -129 vhcurveto
          -50 -391 rmoveto
          -67 -58 -24 -29 -41 hvcurveto
          20 -15 -27 15 -45 hhcurveto
          -113 -60 -76 -77 hvcurveto
          hintmask 1000111110110000
          -76 59 -76 120 vhcurveto
          345 1 264 480 252 205 -90 -99 -193 -381 -79 -93 -23 -27 -31 -45 -4 -5 rrcurveto
          -3 -3 -2 -4 -3 vvcurveto
          hintmask 0111111110110000
          -3 1 -2 5 -3 vhcurveto
          5 6 6 3 2 hvcurveto
          60 64 483 507 184 91 rrcurveto
          1 -44 -37 -2 -2 hvcurveto
          -116 -101 -340 -376 -123 vvcurveto
          -45 28 -12 36 31 48 15 61 87 vhcurveto
          2 10 callgsubr
          2 vvcurveto
          4 -4 3 -6 vhcurveto
          -8 -1 -20 -21 -32 -20 rrcurveto
          -14 -23 -35 -16 -29 hhcurveto
          -26 -14 19 28 131 401 443 134 92 hvcurveto
          5 2 63 callsubr
          6 -5 3 -6 -5 -7 -3 -3 -7 vhcurveto
          -238 -111 -365 -407 -56 -40 134 187 137 310 88 54 rrcurveto
          4 2 4 6 4 vvcurveto
          4 -5 3 -4 -75 -262 -314 -88 -78 vhcurveto
          -93 -83 -203 -232 -219 hhcurveto
          -108 -53 73 71 66 46 63 92 45 25 -14 -18 12 hvcurveto
          -36 -29 -20 -31 -18 vvcurveto
          -10 6 -6 12 39 25 33 34 9 -2 9 -4 9 vhcurveto
          28 38 54 24 65 hhcurveto
          7 6 0 -1 7 hvcurveto
          -2 6 4 -1 3 hhcurveto
          3 10 callgsubr
          1 hvcurveto
          11 -16 1 0 vhcurveto
          endchar
        </CharString>
        <CharString name="N">
          28 callsubr
          150 -20 40 callsubr
          hintmask 1111101110100000
          288 193 rmoveto
          -34 -26 -36 -20 -5 -2 3 6 15 16 32 34 30 55 callgsubr
          318 164 -22 callsubr
          228 279 -94 callgsubr
          hintmask 1111101101100000
          -66 callsubr
          hintmask 1111101110100000
          55 callsubr
          hintmask 1111101101100000
          -68 callgsubr
          hintmask 1111011110100000
          -97 callsubr
        </CharString>
        <CharString name="Ntilde">
          28 callsubr
          101 120 -18 43 40 callsubr
          hintmask 1111100111010000
          288 193 rmoveto
          -34 -26 -36 -20 -5 -2 3 6 15 16 32 34 30 55 callgsubr
          318 164 -22 callsubr
          759 442 rmoveto
          -15 -28 -9 -20 -2 2 -2 3 2 1 0 3 3 hvcurveto
          9 11 7 4 9 26 39 -26 25 hhcurveto
          12 33 10 16 3 -2 3 -3 hvcurveto
          hintmask 1111011011010000
          57 callgsubr
          hhcurveto
          hintmask 1111100111010000
          9 callsubr
          -531 -163 -94 callgsubr
          hintmask 1111100110110000
          -66 callsubr
          hintmask 1111100111010000
          55 callsubr
          hintmask 1111100110110000
          -68 callgsubr
          hintmask 1111011011010000
          -97 callsubr
        </CharString>
        <CharString name="O">
          311 37 callgsubr
          307 -20 -49 callgsubr
          hintmask 1011110110000000
          462 316 -99 callgsubr
          hintmask 1011101010000000
          -82 callgsubr
          hintmask 1011110110000000
          -107 callsubr
          -82 callsubr
          hintmask 0111110110000000
          -40 -62 -83 callgsubr
          endchar
        </CharString>
        <CharString name="OE">
          831 -29 23 3 -21 34 -21 385 109 -12 58 -12 191 38 callgsubr
          -23 236 -149 22 251 35 89 22 -6 28 215 30 86 36 147 26 hintmask 1001011101110111
          453 322 rmoveto
          6 2 -2 -4 -14 -38 -36 -40 -20 hvcurveto
          43 19 29 33 22 hhcurveto
          657 161 rmoveto
          -30 -22 13 20 -15 hvcurveto
          0 9 1 12 vhcurveto
          54 -3 18 -8 -12 vvcurveto
          -6 -11 -5 -15 vhcurveto
          -660 -416 rmoveto
          62 44 58 55 50 58 rrcurveto
          -5 -21 -3 -23 -23 vvcurveto
          -12 1 -12 2 -12 vhcurveto
          -39 -62 -59 -15 -31 hhcurveto
          186 231 rmoveto
          -59 -85 -79 -84 -83 -59 rrcurveto
          -49 12 -18 36 41 vvcurveto
          23 5 23 9 23 vhcurveto
          hintmask 1001011010110111
          63 25 50 57 25 vvcurveto
          8 -5 5 -11 -45 -46 -52 -60 -24 vhcurveto
          -2 -8 -7 -1 -6 hhcurveto
          hintmask 0011011101101111
          -43 -18 19 31 108 227 247 149 71 30 -37 -56 -56 -30 -75 -48 -78 hvcurveto
          -9 -12 -8 -12 -8 -14 rrcurveto
          620 253 -58 callgsubr
          -85 -14 -103 -40 -79 -66 rrcurveto
          26 53 14 50 41 vvcurveto
          64 -35 43 -83 -176 -234 -268 -117 -33 19 -21 43 12 13 1 3 12 vhcurveto
          -8 -23 -4 -24 -22 vvcurveto
          -45 18 -38 48 -13 vhcurveto
          -41 -63 -83 callgsubr
          8 1 63 callsubr
          2 vlineto
          4 -7 0 0 vhcurveto
          -195 -21 -248 -312 -185 vvcurveto
          hintmask 1001011101110111
          -79 45 -55 113 76 80 31 49 75 vhcurveto
          -1 6 6 0 6 hhcurveto
          68 60 27 31 46 hvcurveto
          hintmask 0101011101110111
          -74 17 57 -58 -60 callgsubr
          hintmask 1000101101110111
          0 callsubr
          -100 -42 67 70 -9 vhcurveto
          31 25 22 23 9 9 rrcurveto
          6 6 6 9 5 vvcurveto
          1 -1 1 0 vhcurveto
          1 20 callsubr
          hhcurveto
          -4 -5 -6 -4 -4 hvcurveto
          -19 -22 -20 -18 -20 -16 rrcurveto
          17 vlineto
          -61 callgsubr
        </CharString>
        <CharString name="Oacute">
          318 53 callgsubr
          45 66 -20 38 callgsubr
          64 23 390 28 hintmask 0111111110000000
          688 705 -106 callsubr
          -226 -389 -99 callgsubr
          -82 callgsubr
          -107 callsubr
          vhcurveto
          hintmask 1011111110000000
          -82 callsubr
          -40 -62 -83 callgsubr
          endchar
        </CharString>
        <CharString name="Ocircumflex">
          319 37 callgsubr
          290 126 -54 54 -49 callgsubr
          hintmask 1010111011000000
          638 715 -104 callgsubr
          -176 -399 -99 callgsubr
          hintmask 1011010101000000
          -82 callgsubr
          hintmask 1011011011000000
          -107 callsubr
          -82 callsubr
          hintmask 0111011011000000
          -40 -62 -83 callgsubr
          endchar
        </CharString>
        <CharString name="Odieresis">
          300 37 callgsubr
          290 111 9 -20 -49 callgsubr
          hintmask 1011011011000000
          745 749 rmoveto
          -15 -13 -20 -10 -10 7 -3 7 5 5 2 3 4 hvcurveto
          5 4 9 11 9 -28 callsubr
          hintmask 1010111011000000
          -73 9 rmoveto
          -15 -13 -20 -10 -10 7 -3 7 5 5 2 3 4 hvcurveto
          5 4 9 11 9 -28 callsubr
          -210 -442 -99 callgsubr
          hintmask 1011010101000000
          -82 callgsubr
          hintmask 1011011011000000
          -107 callsubr
          -82 callsubr
          hintmask 0111011011000000
          -40 -62 -83 callgsubr
          endchar
        </CharString>
        <CharString name="Ograve">
          300 53 callgsubr
          52 66 -20 -49 callgsubr
          hintmask 1011111011000000
          768 712 -102 callgsubr
          -306 -396 -99 callgsubr
          hintmask 1011110101000000
          -82 callgsubr
          hintmask 0111111011000000
          -107 callsubr
          vhcurveto
          hintmask 1011111011000000
          -82 callsubr
          -40 -62 -83 callgsubr
          endchar
        </CharString>
        <CharString name="Omega">
          -98 18 -21 233 -20 hstem
          71 10 rmoveto
          -25 -13 8 21 hvcurveto
          3 vlineto
          44 29 68 65 6 5 rrcurveto
          2 2 1 1 1 hhcurveto
          1 1 -1 -51 callsubr
          -3 -2 -4 hvcurveto
          -38 -20 -10 -84 -53 hhcurveto
          145 211 rmoveto
          -14 -14 -104 -99 -63 -52 rrcurveto
          3 vlineto
          9 -4 4 -4 1 vhcurveto
          1 -1 -2 0 -1 hhcurveto
          -51 callsubr
          -3 -3 hvcurveto
          -3 -3 -4 -6 -11 vvcurveto
          -32 26 -21 39 84 6 118 45 24 vhcurveto
          6 12 17 25 4 4 rrcurveto
          3 3 19 10 8 vvcurveto
          6 -6 2 -3 -4 -4 -4 -5 -4 vhcurveto
          endchar
        </CharString>
        <CharString name="Oslash">
          324 -29 242 -225 -21 43 -21 706 -20 hstemhm
          49 32 184 24 476 28 hintmask 10011110
          300 236 rmoveto
          -7 11 -4 15 22 vvcurveto
          109 226 245 149 37 25 -10 -18 17 vhcurveto
          -110 -91 -178 -151 -155 -132 rrcurveto
          229 37 rmoveto
          3 10 callgsubr
          3 vvcurveto
          4 -2 3 -4 -2 -4 -1 -3 -3 vhcurveto
          -1 -1 -101 -69 -67 hhcurveto
          -14 -13 2 8 -10 hvcurveto
          155 132 175 151 110 93 rrcurveto
          9 -15 4 -18 -21 vvcurveto
          hintmask 01111110
          -179 -305 -377 -228 -69 -42 20 34 -22 vhcurveto
          195 165 rlineto
          -8 11 16 -5 21 hhcurveto
          39 59 20 58 89 hvcurveto
          -530 -294 rmoveto
          hintmask 10011110
          -4 -3 -2 -3 -2 vvcurveto
          hintmask 01111110
          -2 1 -2 9 vhcurveto
          13 10 25 19 32 26 rrcurveto
          hintmask 10011110
          -32 24 43 -19 67 hhcurveto
          268 318 386 192 27 -7 23 -13 18 hvcurveto
          39 33 29 23 13 9 rrcurveto
          6 4 2 3 2 vvcurveto
          -1 callgsubr
          -5 -2 -31 -25 -47 -39 rrcurveto
          18 -19 -29 10 -40 hhcurveto
          -176 -234 -268 -117 0 0 -28 17 -21 hvcurveto
          -73 -63 -67 -57 -51 -43 rrcurveto
          -7 16 -3 20 21 vvcurveto
          176 240 299 168 21 vhcurveto
          8 1 63 callsubr
          2 vlineto
          2 0 2 -4 vhcurveto
          -3 hlineto
          -195 -21 -248 -312 -185 vvcurveto
          -27 5 -23 11 -20 vhcurveto
          -39 -34 -25 -20 -2 -2 rrcurveto
          endchar
        </CharString>
        <CharString name="Otilde">
          322 37 callgsubr
          290 85 -18 43 -49 callgsubr
          hintmask 1010111011000000
          658 748 rmoveto
          -15 -28 -9 -20 -2 2 -2 3 2 1 0 3 3 hvcurveto
          9 11 7 4 9 26 39 -26 25 hhcurveto
          12 33 10 16 3 -2 3 -3 hvcurveto
          hintmask 1011011011000000
          57 callgsubr
          hhcurveto
          hintmask 1010111011000000
          9 callsubr
          -196 -432 -99 callgsubr
          hintmask 1011010101000000
          -82 callgsubr
          hintmask 1011011011000000
          -107 callsubr
          -82 callsubr
          hintmask 0111011011000000
          -40 -62 -83 callgsubr
          endchar
        </CharString>
        <CharString name="P">
          432 62 callsubr
          -12 92 -67 55 -55 67 -17 141 -26 16 callgsubr
          61 -20 hstemhm
          14 35 155 102 128 24 109 191 -106 35 43 28 323 29 hintmask 100100010011111011100000
          793 328 rmoveto
          23 -5 23 -7 27 -7 rrcurveto
          -8 -32 -34 -5 -36 hhcurveto
          -42 41 rmoveto
          16 14 -2 -2 14 hvcurveto
          -31 -36 rlineto
          -30 5 -18 12 10 vvcurveto
          7 11 6 24 vhcurveto
          -130 153 -21 callgsubr
          -367 -359 -34 callgsubr
          578 209 rmoveto
          81 96 77 95 83 72 rrcurveto
          25 -24 12 -29 -30 vvcurveto
          -75 -71 -86 -113 -40 vhcurveto
          -35 7 -29 8 -30 6 rrcurveto
          -345 75 rmoveto
          60 68 95 124 52 vhcurveto
          10 -16 6 -16 -17 vvcurveto
          -5 vlineto
          hintmask 100100000101111100100000
          -57 -14 -42 -55 -26 vvcurveto
          -9 5 -6 11 52 36 45 53 9 vhcurveto
          hintmask 011001010011111011100000
          43 callsubr
          31 callsubr
          -42 -20 22 33 hvcurveto
          42 -124 rmoveto
          -76 -70 -26 -33 -53 hvcurveto
          48 callgsubr
          hintmask 100010010011111100100000
          -74 60 -70 145 223 163 154 169 147 vhcurveto
          51 1 46 8 42 13 rrcurveto
          -7 32 37 -4 51 hhcurveto
          17 4 3 5 4 -3 1 -7 -39 -33 3 5 -30 hvcurveto
          119 46 71 88 77 vvcurveto
          35 -15 33 -31 26 vhcurveto
          64 52 68 37 75 9 15 callgsubr
          -82 -7 -76 -40 -72 -58 rrcurveto
          27 -41 -63 17 -86 54 callgsubr
          hintmask 100100000101111100100000
          -71 callsubr
          hintmask 100000100011111100100000
          -39 25 -27 54 48 callsubr
          vhcurveto
          hintmask 011010001001111011100000
          -12 callgsubr
          15 -5 16 -10 16 vhcurveto
          18 50 59 12 66 hhcurveto
          87 61 -18 -27 39 hvcurveto
          -87 -74 -81 -98 -85 -98 rrcurveto
          2 -14 -15 2 -15 hhcurveto
          -55 -25 -15 -16 -16 24 -16 46 -3 hvcurveto
          -163 -145 -153 -145 -191 hhcurveto
          -133 -51 65 69 hvcurveto
          hintmask 100100010011111100100000
          78 65 82 91 46 25 -20 -25 10 vhcurveto
          -51 -34 -31 -40 -24 vvcurveto
          hintmask 011010010011111100100000
          -13 10 -9 22 35 35 53 48 5 0 5 -1 4 vhcurveto
          32 50 71 28 82 hhcurveto
          3 10 callgsubr
          3 -4 5 -9 2 hvcurveto
          endchar
        </CharString>
        <CharString name="Q">
          300 -145 -21 144 20 1 106 -12 192 238 160 hstemhm
          46 32 199 31 161 24 107 28 152 31 hintmask 1101111111000000
          104 64 rmoveto
          34 12 41 10 43 5 -27 -21 -28 -19 -28 -16 -14 7 -12 10 -9 12 rrcurveto
          8 -44 rmoveto
          -13 -28 -27 -9 -21 hhcurveto
          -16 -7 3 6 10 23 18 37 17 hvcurveto
          10 -13 13 -10 16 -9 rrcurveto
          118 -4 rmoveto
          -30 -26 4 8 -20 hvcurveto
          31 18 32 22 32 24 rrcurveto
          1 6 5 0 6 hhcurveto
          48 48 -7 -17 37 hvcurveto
          -33 -57 -58 -20 -54 hhcurveto
          106 183 rmoveto
          -14 -20 -38 -39 -47 -37 -52 -5 -47 -12 -40 -14 rrcurveto
          -14 21 -6 27 30 vvcurveto
          166 196 266 201 54 vhcurveto
          8 2 3 2 3 vvcurveto
          5 -1 1 2 callsubr
          0 -1 -4 vhcurveto
          -226 -65 -200 -269 -171 vvcurveto
          -32 7 -28 15 -23 vhcurveto
          -52 -23 -32 -27 -16 vvcurveto
          -10 11 -6 25 26 38 14 21 43 vhcurveto
          hintmask 1110111111000000
          -9 23 28 -5 35 hhcurveto
          66 69 23 38 67 hvcurveto
          33 -20 21 -29 -42 vvcurveto
          -35 -24 -53 -52 -31 vhcurveto
          -4 -3 -2 -4 -3 vvcurveto
          -3 2 -3 3 vhcurveto
          8 1 93 65 79 vvcurveto
          40 -23 31 -36 21 vhcurveto
          201 122 176 249 140 vvcurveto
          61 -33 40 -79 -222 -200 -232 -117 -39 23 -26 51 140 137 174 70 18 -9 11 -20 -45 -43 -50 -10 -2 1 -2 5 -2 vhcurveto
          12 19 47 32 hhcurveto
          14 6 -8 -14 hvcurveto
          hintmask 1101111111000000
          -59 -115 -157 -118 -41 -18 22 34 106 177 220 195 71 29 -36 -55 -134 -176 -247 -187 -116 vhcurveto
          hintmask 1110111111000000
          17 -37 -47 9 -49 hhcurveto
          -7 -6 0 -1 -6 hvcurveto
          29 23 27 26 25 26 rrcurveto
          6 6 6 7 5 vvcurveto
          5 -1 4 -7 -9 -5 -7 0 vhcurveto
          endchar
        </CharString>
        <CharString name="R">
          719 -100 22 27 161 -17 177 -12 102 -17 141 -26 16 callgsubr
          51 -20 hstemhm
          3 35 155 102 148 24 109 191 -28 28 329 29 hintmask 1101010011111101
          694 219 rmoveto
          27 30 15 -7 13 -9 13 -12 rlinecurve
          -2 -16 -16 0 -16 hhcurveto
          -49 43 rmoveto
          11 11 -2 -3 11 hvcurveto
          -32 -34 rlineto
          -22 4 -7 8 7 vvcurveto
          10 15 10 13 vhcurveto
          -64 228 -21 callgsubr
          -387 -369 -34 callgsubr
          253 294 rmoveto
          -26 callsubr
          hintmask 1101010011111011
          31 callsubr
          -42 -20 22 33 hvcurveto
          629 92 rmoveto
          -112 -129 -139 -179 -31 vhcurveto
          -17 15 -19 12 -21 8 109 124 100 133 109 89 rrcurveto
          32 -27 15 -34 -38 vvcurveto
          -607 -226 rmoveto
          -76 -70 -26 -33 -53 hvcurveto
          hintmask 1010100011111101
          48 callgsubr
          hintmask 1101010011111101
          -74 60 -70 145 193 148 115 141 132 vhcurveto
          12 hlineto
          28 27 2 4 26 hvcurveto
          -100 98 55 -211 182 hhcurveto
          37 27 11 5 18 hvcurveto
          18 6 34 17 10 vvcurveto
          4 -4 0 -2 -10 -20 -13 -7 -19 vhcurveto
          -8 -22 -21 -3 -19 hhcurveto
          -177 -49 194 99 -102 hvcurveto
          197 39 130 141 117 vvcurveto
          42 -17 40 -38 29 vhcurveto
          59 45 63 30 68 9 15 callgsubr
          -76 -7 -70 -35 -68 -51 rrcurveto
          26 -41 -62 16 -83 54 callgsubr
          hintmask 1101000101111101
          -71 callsubr
          hintmask 1100100011111101
          -39 25 -27 54 48 callsubr
          vhcurveto
          hintmask 1101001001111101
          -12 callgsubr
          15 -5 16 -10 16 vhcurveto
          18 50 59 12 66 hhcurveto
          83 60 -16 -26 39 hvcurveto
          -112 -91 -104 -135 -110 -123 rrcurveto
          3 -12 -14 2 -14 hhcurveto
          -42 -21 -14 -15 -14 17 -15 32 -7 hvcurveto
          -135 -128 -138 -109 -165 14 callgsubr
          hintmask 1010100011111101
          -13 10 -9 22 35 35 53 48 5 0 5 -1 4 vhcurveto
          32 50 71 28 82 hhcurveto
          3 10 callgsubr
          3 -4 5 -9 2 hvcurveto
          endchar
        </CharString>
        <CharString name="S">
          395 -24 callsubr
          14 35 callsubr
          hintmask 011001000100111110000000
          291 176 -40 callgsubr
          hintmask 100000010010111110000000
          -31 callsubr
          -14 callsubr
          hintmask 011001000100111110000000
          -55 callgsubr
          -198 -147 -170 -239 -29 callgsubr
          hintmask 100000100100111110000000
          -8 callsubr
          hintmask 010010010010111110000000
          45 callsubr
          hintmask 010100010010111110000000
          44 callgsubr
          hintmask 100000010010111110000000
          -77 64 -77 143 315 175 246 204 151 -4 callgsubr
          hintmask 100001000100111110000000
          -9 callsubr
          hintmask 010010001001111110000000
          -66 callgsubr
        </CharString>
        <CharString name="Scaron">
          387 -24 callsubr
          -19 123 -54 54 7 35 callsubr
          hintmask 100001000100101111100000
          1365 792 -28 callgsubr
          hintmask 100001000100011111100000
          -55 callsubr
          hintmask 011001000100101111100000
          -63 callsubr
          -1074 -616 -40 callgsubr
          hintmask 100000010010101111100000
          -31 callsubr
          hintmask 011001000001001111100000
          -14 callsubr
          -55 callgsubr
          -200 -149 -168 -237 -29 callgsubr
          hintmask 100000100100101111100000
          -8 callsubr
          hintmask 010010010010101111100000
          45 callsubr
          hintmask 010100010010101111100000
          44 callgsubr
          hintmask 100000010010101111100000
          -77 64 -77 143 315 176 247 203 150 -4 callgsubr
          hintmask 100001000100101111100000
          -9 callsubr
          hintmask 010010001001001111100000
          -66 callgsubr
        </CharString>
        <CharString name="T">
          411 -46 170 -132 -21 129 175 5 78 -17 47 callgsubr
          67 -20 hstemhm
          15 29 168 101 132 29 266 28 hintmask 1001001001111000
          606 471 -77 callsubr
          -350 -347 rmoveto
          -14 -7 5 8 16 23 28 34 27 hvcurveto
          2 -8 1 -7 -8 vvcurveto
          -32 -16 -29 -23 vhcurveto
          398 433 rmoveto
          18 callsubr
          hintmask 1001010001111000
          -44 callgsubr
          hintmask 1001001001111000
          -18 callsubr
          -149 134 rmoveto
          -39 callgsubr
          80 43 -29 -36 19 vhcurveto
          -105 -38 -90 -66 -105 vvcurveto
          hintmask 0110100111111000
          -30 callsubr
          54 70 -6 -7 67 hvcurveto
          -189 -261 -183 -463 -358 hhcurveto
          -32 callgsubr
          35 20 -17 -22 10 hvcurveto
          -45 -36 -30 -40 -23 vvcurveto
          -13 9 -8 21 39 32 52 47 7 -1 8 -2 7 vhcurveto
          hintmask 0111010001111000
          32 46 59 27 52 27 9 -9 12 hhcurveto
          7 2 3 4 4 -2 4 -3 1 hvcurveto
          5 -14 -17 4 -19 hhcurveto
          -55 -60 -27 -35 -48 hvcurveto
          24 -11 -24 17 -42 20 callgsubr
          hvcurveto
          hintmask 1001000111111000
          -74 63 -69 147 414 155 474 192 280 vhcurveto
          -6 58 54 -4 37 27 callgsubr
          -38 -55 4 4 -60 hvcurveto
          31 18 32 14 35 30 callsubr
          -50 -19 -47 -29 rrcurveto
          5 -64 -66 4 -52 hhcurveto
          -61 -85 -11 -25 -79 hvcurveto
          hintmask 1001010001111000
          40 -21 -49 32 -89 hhcurveto
          endchar
        </CharString>
        <CharString name="Thorn">
          503 62 callsubr
          -109 65 -65 78 -17 48 67 16 callgsubr
          172 -20 hstemhm
          14 35 155 102 92 24 109 191 -28 28 323 29 hintmask 100100100111111010000000
          651 213 rmoveto
          5 6 5 12 2 vhcurveto
          -16 -18 rlineto
          -1 2 -1 2 2 vvcurveto
          -95 166 -21 callgsubr
          -331 -248 -34 callgsubr
          476 94 rmoveto
          47 -2 34 -14 46 -11 rrcurveto
          -9 -33 -35 -4 -37 hhcurveto
          -22 -17 4 5 -12 hvcurveto
          -172 97 rmoveto
          -26 -25 -3 -5 -24 hvcurveto
          -2 6 -1 7 8 vvcurveto
          -26 callsubr
          hintmask 100010100111110110000000
          31 callsubr
          -25 -17 8 13 -10 hvcurveto
          5 24 25 3 27 hhcurveto
          3 10 callgsubr
          3 -4 5 -9 2 hvcurveto
          hintmask 100100100111111010000000
          212 -55 rmoveto
          86 95 80 104 82 87 rrcurveto
          59 -26 26 -41 -46 vvcurveto
          -77 -74 -88 -118 -39 vhcurveto
          -51 12 -42 16 -48 3 rrcurveto
          -407 -18 rmoveto
          28 18 34 17 39 11 rrcurveto
          hintmask 010001010011111010000000
          -20 12 23 -12 36 hhcurveto
          48 callsubr
          23 -18 16 -46 -4 -5 0 -1 -4 hvcurveto
          0 1 5 6 vvcurveto
          15 -5 16 -10 16 vhcurveto
          18 50 59 12 66 hhcurveto
          54 45 -7 -12 35 hvcurveto
          -87 -90 -84 -107 -88 -95 rrcurveto
          -45 -3 -20 -14 -14 vvcurveto
          -7 5 -8 10 -6 vhcurveto
          -119 -119 -128 -92 -151 14 callgsubr
          hintmask 011000100111111010000000
          -13 10 -9 22 35 35 53 48 5 0 5 -1 4 vhcurveto
          974 518 rmoveto
          -118 -11 -104 -77 -101 -102 rrcurveto
          11 -35 -45 7 -53 54 callgsubr
          hintmask 100001001011111010000000
          -71 callsubr
          -8 1 -7 2 -7 vhcurveto
          -38 -10 -33 -16 -29 -18 rrcurveto
          27 -10 -26 21 -51 hhcurveto
          hintmask 011000100111111010000000
          -120 -80 -92 -85 hvcurveto
          hintmask 100100100111111010000000
          -74 60 -70 145 175 138 95 122 122 vhcurveto
          -3 13 16 -2 19 hhcurveto
          55 51 8 13 44 hvcurveto
          -7 33 39 -5 53 hhcurveto
          17 3 2 2 5 vvcurveto
          4 -3 1 -7 vhcurveto
          -1 -11 -10 0 -10 hhcurveto
          -29 -25 2 4 -24 hvcurveto
          124 45 73 90 79 vvcurveto
          51 -31 46 -67 28 vhcurveto
          91 93 95 72 109 13 15 callgsubr
          endchar
        </CharString>
        <CharString name="U">
          -31 callgsubr
          -169 34 1 117 -21 callsubr
          hintmask 1101011101011100
          258 456 -79 callgsubr
          hintmask 1101100110111100
          -11 6 -7 13 1 callsubr
          hintmask 1101011110111100
          -85 callsubr
          82 97 127 133 61 hvcurveto
          8 -16 3 -19 -18 vvcurveto
          -9 vlineto
          hintmask 1101011101011100
          -16 callsubr
          hintmask 1101100101011100
          -105 callgsubr
          -2 -5 -13 vhcurveto
          1 4 32 callsubr
          -41 callsubr
          hintmask 1101100110111100
          -84 callgsubr
          hintmask 0011011110111100
          -69 callsubr
          hintmask 1101011110111100
          -51 callgsubr
        </CharString>
        <CharString name="Uacute">
          -31 callgsubr
          -169 34 1 117 42 -20 -21 callsubr
          hintmask 1101011110101110
          753 649 -106 callsubr
          -495 -193 -79 callgsubr
          hintmask 1101100111011110
          -11 6 -7 13 1 callsubr
          hintmask 1101011111011110
          -85 callsubr
          82 97 127 133 61 hvcurveto
          8 -16 3 -19 -18 vvcurveto
          -9 vlineto
          hintmask 1101011110101110
          -16 callsubr
          hintmask 1101100110101110
          -105 callgsubr
          -2 -5 -13 vhcurveto
          1 4 32 callsubr
          -41 callsubr
          hintmask 1101100111011110
          -84 callgsubr
          hintmask 0011011111011110
          -69 callsubr
          hintmask 1101011111011110
          -51 callgsubr
        </CharString>
        <CharString name="Ucircumflex">
          -31 callgsubr
          -169 34 1 117 -18 61 -21 callsubr
          hintmask 1101010111011110
          703 662 rmoveto
          -3 3 -2 4 23 25 10 17 25 vhcurveto
          -26 14 16 -8 10 hhcurveto
          5 6 5 3 1 -1 1 -2 1 hvcurveto
          17 -42 18 33 -17 hhcurveto
          hintmask 1101011010101110
          -87 callsubr
          -445 -206 -79 callgsubr
          hintmask 1101100011011110
          -11 6 -7 13 1 callsubr
          hintmask 1101011011011110
          -85 callsubr
          82 97 127 133 61 hvcurveto
          8 -16 3 -19 -18 vvcurveto
          -9 vlineto
          hintmask 1101011010101110
          -16 callsubr
          hintmask 1101100010101110
          -105 callgsubr
          -2 -5 -13 vhcurveto
          1 4 32 callsubr
          hintmask 1101010111011110
          -41 callsubr
          -84 callgsubr
          hintmask 0011011011011110
          -69 callsubr
          hintmask 1101011011011110
          -51 callgsubr
        </CharString>
        <CharString name="Udieresis">
          405 -19 -21 22 20 -4 -21 270 20 0 172 0 246 -135 144 -143 117 -103 85 53 -20 hstemhm
          38 30 133 34 163 26 88 28 16 26 287 41 hintmask 1101001000111111
          819 694 rmoveto
          -15 -13 -20 -10 -10 7 -3 7 5 5 2 3 4 hvcurveto
          5 4 9 11 9 -28 callsubr
          hintmask 1100100101111111
          -73 9 rmoveto
          -15 -13 -20 -10 -10 7 -3 7 5 5 2 3 4 hvcurveto
          5 4 9 11 9 -28 callsubr
          -488 -247 -78 callgsubr
          51 callsubr
          -14 callgsubr
          hintmask 0011001000111111
          -9 callgsubr
          -8 callgsubr
          hintmask 1101000011111111
          -54 callgsubr
          -3 -1 -4 -59 callgsubr
          hintmask 1101010000111111
          35 callgsubr
          hintmask 1101000101111111
          21 49 53 13 54 hhcurveto
          endchar
        </CharString>
        <CharString name="Ugrave">
          -31 callgsubr
          -134 117 56 -20 hstemhm
          38 30 133 34 163 26 88 28 16 26 -26 137 176 41 hintmask 1101011111101100
          814 663 -102 callgsubr
          -556 -207 -78 callgsubr
          hintmask 1101101111110100
          51 callsubr
          hintmask 1101011111110100
          -14 callgsubr
          -9 callgsubr
          hintmask 0011101111110100
          -8 callgsubr
          hintmask 1101101111110100
          -54 callgsubr
          -4 -1 -3 -59 callgsubr
          35 callgsubr
          hintmask 1101011111110100
          21 49 53 13 54 hhcurveto
          endchar
        </CharString>
        <CharString name="V">
          140 -13 -21 54 -21 711 24 hstem
          -264 26 822 33 vstem
          956 688 rmoveto
          12 6 -3 -5 -20 -81 -53 -99 -39 hvcurveto
          71 74 60 49 28 hhcurveto
          -381 22 rmoveto
          3 2 -1 -1 2 hvcurveto
          1 -1 1 -2 -2 vvcurveto
          -34 -53 -51 -78 -48 vhcurveto
          82 42 41 58 39 hhcurveto
          -546 -275 rmoveto
          -160 -107 96 76 50 45 41 106 139 138 -82 -141 59 hvcurveto
          -25 -73 -77 -15 -70 hhcurveto
          262 -112 rmoveto
          4 2 11 17 vvcurveto
          39 -7 38 -13 35 vhcurveto
          47 17 45 20 42 22 -79 -168 -70 -229 -98 -124 rrcurveto
          -17 -19 -6 -7 -5 vvcurveto
          -3 9 -5 3 89 318 368 210 214 vhcurveto
          139 51 109 70 30 vvcurveto
          8 -9 5 -20 -64 -88 -67 -93 -97 vhcurveto
          -23 -8 -25 -6 -23 -5 rrcurveto
          -19 2 callsubr
          -7 vvcurveto
          -5 8 0 0 vhcurveto
          21 5 21 5 21 7 -192 -191 -220 -280 -126 -57 rrcurveto
          -4 hlineto
          2 3 85 86 90 276 87 181 rlinecurve
          103 60 73 67 44 vvcurveto
          8 -8 10 -10 -71 -57 -78 -106 -53 vhcurveto
          -45 -25 -52 -24 -54 -20 rrcurveto
          132 -54 -136 99 -154 hhcurveto
          -131 -56 -51 -59 -83 112 -100 175 75 80 16 26 76 hvcurveto
          15 -41 9 -46 -50 vvcurveto
          -7 1 -4 5 6 1 10 0 vhcurveto
          endchar
        </CharString>
        <CharString name="W">
          561 -6 -21 23 -21 36 -21 403 24 13 247 -140 119 61 -20 hstemhm
          24 26 164 36 -16 186 -101 101 -25 25 81 25 29 31 hintmask 0101101110101100
          259 459 rmoveto
          15 23 32 30 18 vhcurveto
          -40 -11 -25 -32 -10 hhcurveto
          -5 -2 2 5 hvcurveto
          1134 226 rmoveto
          -49 -96 -48 -88 -33 vhcurveto
          84 78 62 59 31 hhcurveto
          10 3 -7 -6 hvcurveto
          -626 -302 rmoveto
          -32 -93 -98 -106 -90 vhcurveto
          109 57 99 121 30 hhcurveto
          9 4 -4 -6 hvcurveto
          -510 47 rmoveto
          22 37 49 54 14 hvcurveto
          hintmask 0101011110011100
          2 7 8 2 8 hhcurveto
          29 13 -14 -21 -77 -165 -178 -108 -50 -22 25 38 85 112 148 147 66 hvcurveto
          hintmask 0101101110101100
          7 -13 3 -14 -15 vvcurveto
          -11 -1 -10 -3 -10 vhcurveto
          hintmask 0101101101001100
          -44 -22 -37 -43 -24 vvcurveto
          -10 7 -7 16 vhcurveto
          -428 64 rmoveto
          -1 -2 0 -2 -1 vvcurveto
          -4 2 -2 4 3 4 2 5 3 vhcurveto
          25 40 71 62 63 29 rrcurveto
          26 56 75 15 53 hhcurveto
          64 35 -18 -26 18 hvcurveto
          -158 -72 -122 -160 -91 vvcurveto
          -40 23 -26 54 139 180 190 87 26 -16 17 -38 -11 -12 -3 -3 -11 vhcurveto
          2 9 1 10 9 vvcurveto
          16 -3 15 -7 14 vhcurveto
          17 42 43 10 45 hhcurveto
          68 32 -49 -56 hvcurveto
          hintmask 0101101110101100
          -173 -341 -227 -119 vvcurveto
          -32 26 -12 29 58 96 55 72 94 vhcurveto
          -10 -27 -6 -25 -20 vvcurveto
          hintmask 1001011110101100
          -35 17 -22 43 148 287 352 213 197 vhcurveto
          113 40 114 53 9 67 rrcurveto
          16 -12 3 -9 -60 -90 -76 -104 -100 vhcurveto
          -36 -12 -30 -9 -15 -4 rrcurveto
          -5 -1 -3 -2 -3 vvcurveto
          -3 3 -2 4 2 2 0 1 2 vhcurveto
          61 19 rlineto
          hintmask 0011101110101100
          -216 -205 -243 -315 -120 hhcurveto
          -35 -14 18 30 24 10 32 15 35 hvcurveto
          130 104 117 126 43 vvcurveto
          10 -6 5 -13 -54 -136 -159 -127 -60 vhcurveto
          hintmask 1001011110101100
          -75 -93 -96 -62 -46 hhcurveto
          -22 -22 12 25 hvcurveto
          118 336 206 199 vvcurveto
          76 -69 26 -53 -50 -48 -12 -19 -46 vhcurveto
          hintmask 0101101110101100
          30 -19 -41 22 -73 hhcurveto
          -60 -67 -17 -28 -62 hvcurveto
          -98 -45 -65 -82 -6 -11 rrcurveto
          endchar
        </CharString>
        <CharString name="X">
          426 -8 -21 22 -21 33 -21 26 -21 278 20 172 237 -125 125 9 -20 hstemhm
          73 30 162 187 -19 187 -26 26 hintmask 0100110011010000
          293 476 rmoveto
          -5 -2 4 6 18 21 38 36 19 hvcurveto
          -46 -6 -23 -39 -21 hhcurveto
          -28 1 rmoveto
          -11 6 -7 13 1 callsubr
          hintmask 0100101010100000
          -85 callsubr
          96 113 113 117 61 hvcurveto
          8 -17 3 -18 -18 vvcurveto
          -9 vlineto
          hintmask 0100110011010000
          -47 -23 -32 -46 -26 vvcurveto
          -370 -469 rmoveto
          -3 -3 -2 -4 -17 55 -13 46 147 164 106 127 154 hvcurveto
          -17 -45 -11 -46 -45 vvcurveto
          hintmask 1000110011010000
          -69 40 -29 66 95 90 77 23 25 vhcurveto
          5 5 3 5 3 vvcurveto
          3 -2 1 -3 -2 -3 -1 -2 -3 vhcurveto
          hintmask 0001110011010000
          -25 -31 -71 -71 -90 hhcurveto
          -70 -24 56 43 47 12 46 18 45 hvcurveto
          123 104 116 113 94 78 51 42 93 70 122 29 rrcurveto
          3 1 6 5 3 vvcurveto
          2 -2 1 -4 -14 -141 -36 -91 -111 vhcurveto
          -102 -84 -107 -99 -108 -93 rrcurveto
          hintmask 0100110011010000
          50 104 69 96 86 vvcurveto
          100 -52 39 -71 -46 -54 -16 -27 -54 vhcurveto
          hintmask 0010100111010000
          30 -18 -36 22 -59 hhcurveto
          -154 -169 -115 -72 -51 hvcurveto
          -3 -5 -1 -4 -3 vvcurveto
          -5 3 -3 4 4 5 3 9 5 vhcurveto
          65 33 178 116 139 hhcurveto
          54 32 -19 -27 18 hvcurveto
          -130 -69 -124 -126 -99 vvcurveto
          -49 32 -35 78 127 149 176 90 31 -17 21 -43 -14 -13 -2 -5 -13 vhcurveto
          1 4 32 callsubr
          23 48 47 14 41 hhcurveto
          63 46 -34 -84 -95 -71 -107 -50 -111 hvcurveto
          -143 -169 -167 -120 -137 hhcurveto
          -86 -19 24 0 hvcurveto
          endchar
        </CharString>
        <CharString name="Y">
          -59 callsubr
          -36 callgsubr
          hintmask 101010010111101001100000
          357 -281 -102 callsubr
          hintmask 101010101001110101100000
          -13 7 -8 15 1 callsubr
          hintmask 101001100111110011100000
          -96 callgsubr
          hintmask 101010101001101001100000
          -105 callgsubr
          -3 -3 -13 vhcurveto
          1 3 32 callsubr
          -41 callsubr
          hintmask 010101101001110101100000
          -101 callgsubr
        </CharString>
        <CharString name="Yacute">
          -59 callsubr
          38 -20 -36 callgsubr
          hintmask 101010010111110100110000
          752 645 -106 callsubr
          -395 -926 -102 callsubr
          hintmask 101010101001111010110000
          -13 7 -8 15 1 callsubr
          hintmask 101001100111111001110000
          -96 callgsubr
          hintmask 101010101001110100110000
          -105 callgsubr
          -3 -3 -13 vhcurveto
          0 1 5 5 -15 callgsubr
          -41 callsubr
          hintmask 010101101001111010110000
          -101 callgsubr
        </CharString>
        <CharString name="Ydieresis">
          -59 callsubr
          -18 48 9 -20 -36 callgsubr
          hintmask 101010100101011101011000
          825 698 rmoveto
          hintmask 101010100110111101011000
          -15 -13 -20 -10 -10 7 -3 7 5 5 2 3 4 hvcurveto
          5 4 9 11 9 vvcurveto
          hintmask 101010100101011101011000
          -95 callsubr
          hintmask 101010010110111010011000
          -73 9 rmoveto
          -15 -13 -20 -10 -10 7 -3 7 5 5 2 3 4 hvcurveto
          5 4 9 11 9 -28 callsubr
          -395 -988 -102 callsubr
          hintmask 101010101000111101011000
          -13 7 -8 15 1 callsubr
          hintmask 101001100110111100111000
          -96 callgsubr
          hintmask 101010101000111010011000
          -105 callgsubr
          -3 -3 -13 vhcurveto
          1 3 32 callsubr
          hintmask 010101100101011101011000
          -41 callsubr
          -101 callgsubr
        </CharString>
        <CharString name="Z">
          -5 callgsubr
          49 51 callgsubr
          hintmask 1011100011111100
          451 506 -75 callgsubr
          hintmask 1100101000111100
          59 callgsubr
          hintmask 1100100100111100
          5 callgsubr
          hintmask 1100100011111100
          -60 callsubr
          hintmask 1011100011111100
          -50 callgsubr
          hintmask 1100101000111100
          -69 callgsubr
          hintmask 1100010011111100
          4 callgsubr
        </CharString>
        <CharString name="Zcaron">
          -5 callgsubr
          90 54 7 51 callgsubr
          hintmask 1100101001011110
          1069 792 -28 callgsubr
          hintmask 1100101000111110
          -55 callsubr
          hintmask 1011100011011110
          -63 callsubr
          -618 -286 -75 callgsubr
          hintmask 1100101001011110
          59 callgsubr
          hintmask 1100100101011110
          5 callgsubr
          hintmask 1100100011011110
          -60 callsubr
          hintmask 1011100011011110
          -50 callgsubr
          hintmask 1100101001011110
          -69 callgsubr
          hintmask 1100010011011110
          4 callgsubr
        </CharString>
        <CharString name="a">
          -3 170 -152 -21 174 -20 hstemhm
          19 34 hintmask 10010000
          82 12 -61 callsubr
          -103 callgsubr
          hintmask 01110000
          -87 callgsubr
          hintmask 10010000
          0 -17 25 -41 -94 -72 -82 -51 vhcurveto
          hintmask 01110000
          -85 callgsubr
        </CharString>
        <CharString name="aacute">
          45 callgsubr
          34 66 -20 hstemhm
          19 34 hintmask 01011100
          190 206 -106 callsubr
          -108 -194 -61 callsubr
          hintmask 10001100
          -105 callsubr
          hintmask 00111100
          -85 callgsubr
        </CharString>
        <CharString name="acircumflex">
          29 callsubr
          114 -54 54 hstemhm
          19 34 hintmask 10011000
          164 216 -104 callgsubr
          -82 -204 -100 callgsubr
        </CharString>
        <CharString name="acute">
          222 -21 66 -20 hstem
          81 206 -23 callsubr
        </CharString>
        <CharString name="adieresis">
          29 callsubr
          100 9 -20 hstemhm
          19 34 hintmask 01101000
          286 251 rmoveto
          -15 -13 -20 -10 -10 7 -3 7 5 5 2 3 4 hvcurveto
          5 4 9 11 9 -28 callsubr
          hintmask 10011000
          -73 9 rmoveto
          -15 -13 -20 -10 -10 7 -3 7 5 5 2 3 4 hvcurveto
          5 4 9 11 9 -28 callsubr
          -131 -248 -100 callgsubr
        </CharString>
        <CharString name="ae">
          79 -5 172 -152 -21 176 -20 hstemhm
          19 34 286 25 hintmask 01111000
          339 131 rmoveto
          -35 -56 -30 -56 -21 vhcurveto
          42 42 66 47 13 10 -7 -15 vhcurveto
          -257 -119 -67 callgsubr
          -15 -18 rmoveto
          41 50 33 0 hvcurveto
          40 24 rlineto
          hintmask 10011000
          -31 16 -25 52 -77 callgsubr
          hintmask 01111000
          22 -15 9 -20 -16 -15 -4 -7 -14 vhcurveto
          4 -1 -3 5 -5 hhcurveto
          -7 -7 -8 -3 -2 hvcurveto
          -14 -14 -1 -1 -1 hhcurveto
          hintmask 10011000
          0 -17 25 -41 -94 -72 -82 -51 vhcurveto
          hintmask 01111000
          -23 15 -17 33 vhcurveto
          endchar
        </CharString>
        <CharString name="agrave">
          45 callgsubr
          44 66 -20 hstemhm
          19 34 0 107 hintmask 01011010
          281 216 -102 callgsubr
          -199 -204 -61 callsubr
          hintmask 10001100
          -105 callsubr
          hintmask 00111100
          -85 callgsubr
        </CharString>
        <CharString name="ampersand">
          285 -21 238 -224 241 -37 20 17 40 -19 179 -160 146 -51 65 0 123 13 56 59 -20 hstemhm
          51 34 216 32 170 28 0 30 87 26 hintmask 0010010111111010
          456 381 rmoveto
          -12 -51 1 30 -32 hvcurveto
          6 31 27 2 16 hhcurveto
          32 36 -4 -15 -19 -40 -1 -7 hvcurveto
          137 189 rmoveto
          -6 -61 1 51 -11 hvcurveto
          2 17 18 2 19 hhcurveto
          19 58 -2 -26 2 hvcurveto
          0 1 -28 -56 vhcurveto
          72 -328 rmoveto
          30 -56 2 0 vhcurveto
          -69 -90 -57 -80 hhcurveto
          -41 -12 16 0 hvcurveto
          3 -1 -2 0 -2 hhcurveto
          -7 -1 -9 -4 -24 34 -2 18 hvcurveto
          hintmask 0100001011111010
          74 43 37 36 hhcurveto
          16 6 -16 -15 -134 -161 -76 -111 -150 -24 97 59 165 143 67 108 25 hvcurveto
          -33 41 64 -4 18 hhcurveto
          28 44 7 27 19 -41 12 -56 -19 -29 -3 -8 -35 hvcurveto
          -11 15 -7 18 26 vvcurveto
          52 54 65 108 20 vhcurveto
          hintmask 1001000111110110
          3 -24 18 -37 76 -1 rrcurveto
          68 3 14 25 16 vvcurveto
          37 -102 0 0 -20 -19 -1 -3 -19 vhcurveto
          6 vlineto
          0 3 25 17 11 vhcurveto
          0 4 1 5 vvcurveto
          0 0 3 -3 vhcurveto
          -4 -1 rlineto
          0 -36 -13 -1 -40 vhcurveto
          -107 -18 -86 -57 -73 vvcurveto
          -29 10 -21 14 -16 vhcurveto
          -118 -30 -156 -77 -162 vvcurveto
          -67 29 -102 177 149 155 111 112 13 -3 14 -8 12 vhcurveto
          -1 1 0 1 1 vvcurveto
          2 2 0 6 3 vhcurveto
          hintmask 1000100011111010
          0 21 6 22 vhcurveto
          hintmask 1001001011111010
          19 19 -4 -17 11 hvcurveto
          0 4 -7 5 6 1 7 8 vhcurveto
          endchar
        </CharString>
        <CharString name="apple">
          349 -12 45 63 45 327 44 63 45 hstem
          0 45 138 54 164 57 129 45 vstem
          458 204 rmoveto
          134 -221 -10 85 vvcurveto
          32 32 23 48 35 39 -13 -29 33 vhcurveto
          11 43 rlineto
          12 -24 -42 31 -55 hhcurveto
          -57 -74 -24 -79 hvcurveto
          -112 218 -14 -83 vvcurveto
          -35 -36 -24 -54 -36 -45 12 29 -47 vhcurveto
          -9 -47 rlineto
          -18 37 44 -21 48 hhcurveto
          81 74 33 75 hvcurveto
          128 100 rmoveto
          -150 -121 -121 -149 -150 -121 121 150 149 121 122 150 149 121 -122 -149 vhcurveto
          46 hmoveto
          174 -142 142 -174 -175 -141 -142 -174 -174 141 -142 175 174 142 142 174 vhcurveto
          -198 434 rmoveto
          -60 hlineto
          -59 -61 -58 61 rlineto
          -59 hlineto
          90 -85 rlineto
          1 9 9 0 10 hhcurveto
          9 10 0 -1 9 hvcurveto
          endchar
        </CharString>
        <CharString name="aring">
          29 callsubr
          109 -46 -20 hstemhm
          19 34 hintmask 01101000
          82 12 -61 callsubr
          hintmask 10011000
          -105 callsubr
          hintmask 01011000
          -91 callsubr
          96 228 17 callsubr
          -6 -5 3 6 5 9 20 18 hvcurveto
          -22 -46 rmoveto
          22 24 20 20 1 hvcurveto
          hintmask 01101000
          -7 callsubr
          endchar
        </CharString>
        <CharString name="asciicircum">
          77 54 -40 -21 hstemhm
          hintmask 10000000
          89 82 -46 callsubr
        </CharString>
        <CharString name="asciitilde">
          3 68 43 hstem
          132 111 rmoveto
          -15 -28 -9 -20 -2 2 -2 3 2 1 0 3 3 hvcurveto
          9 11 7 4 9 26 39 -26 25 hhcurveto
          12 33 10 16 3 -2 3 -3 hvcurveto
          57 callgsubr
          9 callsubr
          endchar
        </CharString>
        <CharString name="asterisk">
          -39 221 -21 115 -20 hstem
          220 248 rmoveto
          6 5 6 7 3 -1 2 -4 hvcurveto
          -60 -6 52 44 rlineto
          2 2 0 1 2 vvcurveto
          3 -3 3 -5 -5 -5 -4 0 vhcurveto
          -41 -50 3 50 rlineto
          2 0 2 -5 -7 -10 -3 -8 vhcurveto
          13 -44 -52 6 rlineto
          -8 -5 -10 -2 -2 1 -4 5 hvcurveto
          56 7 -49 -42 rlineto
          -51 callsubr
          -2 -2 vvcurveto
          -4 3 -3 4 6 5 5 0 vhcurveto
          40 49 5 -48 rlineto
          -3 1 4 -1 3 hhcurveto
          6 5 2 5 1 0 1 -18 44 hvcurveto
          endchar
        </CharString>
        <CharString name="at">
          201 -120 132 -73 73 -18 173 -16 98 hstemhm
          23 156 -156 200 -78 34 100 21 -21 216 hintmask 1001100010000000
          208 12 -67 callgsubr
          79 16 rmoveto
          -3 -7 -5 -16 -16 vvcurveto
          hintmask 0101010010000000
          -25 15 -25 35 21 32 8 38 42 vhcurveto
          0 71 66 78 vvcurveto
          34 -19 86 -134 -110 -209 -90 -172 vhcurveto
          hintmask 1001010100000000
          -37 21 -70 77 46 56 24 37 4 -2 1 -1 -2 -3 -3 0 vhcurveto
          -43 -20 -48 -6 -23 hhcurveto
          -58 -25 49 38 164 194 92 106 95 44 -51 -53 -39 -20 -35 0 hvcurveto
          -104 -57 -63 -5 -10 hhcurveto
          -25 -5 18 15 9 2 8 0 hvcurveto
          9 22 39 3 4 vhcurveto
          6 9 63 76 10 13 rrcurveto
          0 4 4 5 vvcurveto
          -87 callgsubr
          hintmask 0010001100000000
          0 -17 25 -41 -94 -72 -82 -51 -23 15 -17 33 41 50 33 0 vhcurveto
          1 -39 callsubr
          hhcurveto
          endchar
        </CharString>
        <CharString name="atilde">
          29 callsubr
          76 -18 43 hstemhm
          19 34 hintmask 10011000
          176 252 rmoveto
          -15 -28 -9 -20 -2 2 -2 3 2 1 0 3 3 hvcurveto
          9 11 7 4 9 26 39 -26 25 hhcurveto
          12 33 10 16 3 -2 3 -3 hvcurveto
          hintmask 01101000
          57 callgsubr
          hhcurveto
          hintmask 10011000
          9 callsubr
          -94 -240 -100 callgsubr
        </CharString>
        <CharString name="b">
          -34 -6 182 -158 -21 158 21 305 -20 hstemhm
          241 28 hintmask 01111000
          113 130 rmoveto
          12 22 25 13 22 hhcurveto
          43 16 -17 -21 -42 -65 -63 -57 -23 -36 2 31 -17 hvcurveto
          158 224 rmoveto
          -31 -43 -70 -85 -103 -119 rrcurveto
          -8 -9 -3 -6 -3 vvcurveto
          -4 6 -3 4 6 6 6 9 7 vhcurveto
          1 1 11 13 5 7 rrcurveto
          hintmask 10011000
          -31 17 33 -8 27 hhcurveto
          81 79 82 53 34 -28 13 -33 -25 -27 -7 -12 -21 hvcurveto
          55 67 30 37 3 2 rrcurveto
          115 98 89 87 70 -56 callsubr
          18 -12 14 -32 -83 -99 -92 -120 -104 vhcurveto
          endchar
        </CharString>
        <CharString name="backslash">
          -149 -264 -21 766 -20 hstem
          -341 -285 rmoveto
          136 177 226 204 162 hvcurveto
          -56 callgsubr
          -63 hlineto
          8 callsubr
          59 hlineto
          -200 -156 -167 -217 -119 hhcurveto
          0 -20 0 -7 vvcurveto
          -3 4 -3 9 vhcurveto
          endchar
        </CharString>
        <CharString name="bar">
          -6 callsubr
          337 961 rlineto
          34 callsubr
          endchar
        </CharString>
        <CharString name="braceleft">
          24 -287 24 607 65 355 94 -20 20 hstemhm
          13 21 hintmask 11011000
          149 375 rmoveto
          9 6 6 9 10 15 -8 -21 13 vhcurveto
          -1 -7 -7 0 -8 hhcurveto
          -19 -12 8 7 hvcurveto
          91 -116 rmoveto
          37 -5 29 -9 22 vhcurveto
          44 296 -222 447 295 hhcurveto
          35 21 -15 -15 -13 -16 -12 -37 -20 -7 -4 -5 hvcurveto
          hintmask 11101000
          -5 7 -5 8 57 25 24 24 23 -24 23 -44 -331 247 -459 -37 -297 vhcurveto
          33 -17 -24 14 -20 hhcurveto
          -21 -16 -14 -20 -15 23 -16 33 11 11 0 1 11 hvcurveto
          8 -20 7 -29 -40 -151 -212 -100 -139 vvcurveto
          -42 39 -111 75 31 26 23 33 19 -9 23 -21 24 vhcurveto
          4 -4 -4 2 -4 hhcurveto
          -2 -3 -1 -1 -1 hvcurveto
          -1 -1 -1 -1 -2 vvcurveto
          -4 4 -7 10 -11 vhcurveto
          12 -15 5 -14 -11 vvcurveto
          -22 -19 -14 -21 -59 -32 94 33 vhcurveto
          129 206 118 148 vvcurveto
          endchar
        </CharString>
        <CharString name="braceright">
          163 -286 20 -20 94 355 65 607 24 hstemhm
          565 21 hintmask 10111000
          419 212 rmoveto
          19 12 -8 -7 -9 -6 -6 -9 -10 -16 8 21 -13 hvcurveto
          1 8 7 0 8 hhcurveto
          -60 101 rmoveto
          -37 5 -29 8 -23 vhcurveto
          -43 -295 222 -447 -295 hhcurveto
          -35 -21 15 15 13 16 12 37 20 7 4 5 hvcurveto
          hintmask 01111000
          5 -7 5 -8 -57 -25 -24 -24 -23 24 -23 44 330 -246 459 36 296 vhcurveto
          -33 17 24 -13 21 hhcurveto
          21 16 14 20 15 -23 16 -33 -12 -11 -1 -1 -10 hvcurveto
          -9 21 -6 29 40 151 212 100 139 vvcurveto
          42 -39 111 -75 -31 -26 -23 -33 -19 9 -23 21 -24 vhcurveto
          -4 4 4 -2 4 hhcurveto
          2 3 1 1 1 hvcurveto
          2 callgsubr
          2 vvcurveto
          4 -4 7 -10 11 vhcurveto
          -12 15 -5 14 11 vvcurveto
          22 19 14 21 59 32 -94 -33 vhcurveto
          -129 -206 -118 -148 vvcurveto
          endchar
        </CharString>
        <CharString name="bracketleft">
          -26 -199 -21 985 -20 hstem
          74 -220 rmoveto
          7 9 7 5 5 -5 1 -5 hvcurveto
          -52 hlineto
          332 950 rlineto
          49 hlineto
          8 11 7 5 3 -3 2 -10 hvcurveto
          -58 hlineto
          -5 -7 -6 -8 -2 hvcurveto
          -337 -961 rlineto
          -5 3 -5 4 vhcurveto
          endchar
        </CharString>
        <CharString name="bracketright">
          131 -198 -21 985 -20 hstem
          442 766 rmoveto
          -7 -9 -7 -5 -5 5 -1 5 hvcurveto
          52 hlineto
          -332 -950 rlineto
          -49 hlineto
          -8 -11 -7 -5 -3 3 -2 10 hvcurveto
          58 hlineto
          5 7 6 8 2 hvcurveto
          337 961 rlineto
          5 -3 5 -4 vhcurveto
          endchar
        </CharString>
        <CharString name="breve">
          -96 206 22 42 -20 hstem
          240 258 rmoveto
          0 -1 4 -4 vhcurveto
          -19 -23 -25 -15 -21 hhcurveto
          -17 -14 11 29 -7 hvcurveto
          1 -1 -2 1 -2 hhcurveto
          -2 -1 -1 -3 hvcurveto
          -44 1 16 -16 21 hhcurveto
          27 34 26 26 21 hvcurveto
          endchar
        </CharString>
        <CharString name="brokenbar">
          -6 callsubr
          142 405 rlineto
          -19 hlineto
          214 556 rmoveto
          34 callsubr
          -140 -400 rlineto
          19 hlineto
          endchar
        </CharString>
        <CharString name="bullet">
          65 -21 76 -20 hstem
          144 44 rmoveto
          29 31 26 26 3 hvcurveto
          17 -11 7 -16 -40 -20 -40 -13 -3 vhcurveto
          -23 27 0 0 vhcurveto
          endchar
        </CharString>
        <CharString name="c">
          -68 -11 58 callsubr
          hintmask 10110000
          93 -11 rmoveto
          113 50 65 7 3 -2 2 -2 -51 callsubr
          -3 -2 hvcurveto
          -93 callgsubr
          hintmask 01110000
          -17 callsubr
          hintmask 10110000
          -27 21 -21 53 vhcurveto
          endchar
        </CharString>
        <CharString name="caron">
          205 54 7 -20 hstemhm
          hintmask 10000000
          212 254 -28 callgsubr
          hintmask 01000000
          -55 callsubr
          hintmask 10000000
          -63 callsubr
          endchar
        </CharString>
        <CharString name="ccedilla">
          -68 -60 63 -14 58 callsubr
          hintmask 01011000
          114 -31 rmoveto
          6 -7 5 -7 2 vhcurveto
          1 7 rlineto
          107 3 48 62 7 vvcurveto
          3 -2 2 -2 -51 callsubr
          -3 -2 vhcurveto
          hintmask 10111000
          -93 callgsubr
          -17 callsubr
          hintmask 01011000
          -27 20 -20 50 -1 vhcurveto
          -2 -8 11 callgsubr
          hvcurveto
          hintmask 10111000
          -5 10 -3 21 29 18 12 17 vhcurveto
          endchar
        </CharString>
        <CharString name="cedilla">
          -134 -39 -21 57 -20 hstem
          92 -3 rmoveto
          -5 -16 11 callgsubr
          -5 10 -3 21 29 18 12 17 6 -7 5 -7 2 hvcurveto
          3 15 rlineto
          endchar
        </CharString>
        <CharString name="cent">
          41 123 -21 97 182 -96 96 98 -20 hstemhm
          107 32 158 27 hintmask 11011100
          181 199 rmoveto
          113 50 65 7 3 -2 2 -2 -51 callsubr
          -3 -2 hvcurveto
          -93 callgsubr
          hintmask 10111100
          -7 9 -15 23 27 41 27 32 16 -11 11 -16 6 vhcurveto
          53 79 rlineto
          2 3 1 4 4 vvcurveto
          6 -3 6 -4 -2 -1 0 -3 -2 vhcurveto
          -64 -95 rlineto
          -7 hlineto
          -82 -81 -80 -54 -23 15 -19 37 -5 hvcurveto
          -46 -70 -2 -5 -6 -9 -2 -6 rlinecurve
          -4 1 -4 5 vhcurveto
          4 hlineto
          1 3 0 4 3 hvcurveto
          hintmask 11011100
          60 93 rlineto
          1 hlineto
          endchar
        </CharString>
        <CharString name="circumflex">
          211 54 -40 -21 hstemhm
          hintmask 10000000
          80 216 -46 callsubr
        </CharString>
        <CharString name="colon">
          -95 16 -21 185 -20 hstem
          163 180 rmoveto
          -15 -13 -20 -10 -10 7 -3 7 5 5 2 3 4 hvcurveto
          5 4 9 11 9 -28 callsubr
          -68 -142 rmoveto
          -15 -13 -20 -10 -10 7 -3 7 5 5 2 3 4 hvcurveto
          5 4 9 11 9 -28 callsubr
          endchar
        </CharString>
        <CharString name="comma">
          -133 -38 -21 75 -21 43 -20 hstem
          89 38 rmoveto
          -86 callsubr
        </CharString>
        <CharString name="copyright">
          217 -39 147 -109 -21 116 182 -96 96 -11 145 hstemhm
          20 30 110 32 158 27 130 31 hintmask 0110011110000000
          234 94 rmoveto
          113 50 65 7 3 -2 2 -2 -51 callsubr
          -3 -2 hvcurveto
          hintmask 1000111110000000
          -93 callgsubr
          hintmask 1001011110000000
          -17 callsubr
          hintmask 0110011110000000
          -27 21 -21 53 vhcurveto
          304 150 rmoveto
          hintmask 1000111110000000
          41 callgsubr
          40 callgsubr
          hintmask 0110011110000000
          -319 -266 5 callsubr
          endchar
        </CharString>
        <CharString name="currency">
          89 163 -21 44 225 39 -20 hstem
          212 23 187 23 vstem
          305 205 rmoveto
          -44 -26 31 39 61 57 58 60 44 26 -31 -40 -85 -82 -33 -35 hvcurveto
          140 123 rmoveto
          13 -3 12 -5 11 vhcurveto
          65 46 rlineto
          11 8 6 6 4 vvcurveto
          4 -6 3 -10 vhcurveto
          -73 -58 rlineto
          21 -15 -25 13 -31 hhcurveto
          -31 -32 -13 -20 -26 hvcurveto
          -39 54 rlineto
          5 -4 -6 13 -7 hhcurveto
          -4 -3 -9 -9 -1 hvcurveto
          50 -66 rlineto
          -26 -26 -18 -34 -36 vvcurveto
          -16 4 -15 7 -13 vhcurveto
          -68 -51 rlineto
          -3 -3 -4 -8 -5 vvcurveto
          -3 1 -2 3 -39 callsubr
          2 vhcurveto
          79 55 rlineto
          -15 15 21 -9 26 hhcurveto
          30 26 8 14 21 hvcurveto
          42 -59 rlineto
          -5 5 5 -2 4 hhcurveto
          6 4 3 3 2 -2 2 0 hvcurveto
          -48 67 rlineto
          36 31 19 46 32 vvcurveto
          endchar
        </CharString>
        <CharString name="d">
          61 callsubr
          128 21 130 25 vstem
          196 389 rmoveto
          21 12 83 57 43 18 -39 -56 -45 -12 -54 -19 -55 vhcurveto
          -62 23 -37 66 56 vvcurveto
          -23 -217 rmoveto
          -95 -56 -80 -53 -27 14 -20 30 109 88 113 118 48 hvcurveto
          -1 5 6 0 5 hhcurveto
          58 52 23 38 37 hvcurveto
          4 4 4 6 5 vvcurveto
          3 -2 3 -2 -6 -9 -10 -3 -3 vhcurveto
          -18 -17 -41 -37 -61 hhcurveto
          -9 -7 0 2 -8 hvcurveto
          21 58 13 58 46 vvcurveto
          61 -33 51 -45 -66 -32 -90 -51 -60 50 -64 63 -19 vhcurveto
          -113 -44 -79 -105 -84 -10 callsubr
          hvcurveto
          endchar
        </CharString>
        <CharString name="dagger">
          78 -15 -21 312 -38 callgsubr
          -154 -280 rlineto
          -2 -2 -2 -10 -8 vvcurveto
          -7 2 -5 5 2 3 1 6 4 vhcurveto
          169 305 rlineto
          149 -86 callgsubr
          -98 callsubr
          -149 hlineto
          68 114 37 callsubr
          endchar
        </CharString>
        <CharString name="daggerdbl">
          -39 -3 180 315 -20 hstem
          153 29 47 31 vstem
          260 149 rmoveto
          0 -4 28 -34 -18 -25 -7 -23 -38 vhcurveto
          112 127 150 170 41 30 rrcurveto
          0 5 5 5 vvcurveto
          4 -6 4 -4 -4 -5 -3 -5 -6 vhcurveto
          -47 -59 -59 -12 -15 -15 -11 9 -5 hhcurveto
          -2 -5 -4 -4 -4 5 -8 27 33 42 17 5 8 hvcurveto
          1 2 1 0 1 hhcurveto
          1 1 0 -2 -3 -2 -5 -7 -7 hvcurveto
          -56 -63 -308 -331 21 callsubr
          7 5 8 9 hvcurveto
          18 18 34 37 41 47 26 16 33 19 31 19 callgsubr
          -31 -76 -50 -39 vvcurveto
          -106 callgsubr
          -10 -4 5 6 hvcurveto
          56 callgsubr
          endchar
        </CharString>
        <CharString name="degree">
          8 445 120 hstem
          291 547 rmoveto
          15 14 -7 -15 hvcurveto
          -32 -5 -32 -30 -32 hhcurveto
          -15 -14 7 15 12 25 50 44 hvcurveto
          -49 -102 rmoveto
          46 49 41 42 4 hvcurveto
          26 -17 11 -24 -64 -31 -62 -22 -4 vhcurveto
          -36 41 0 0 vhcurveto
          endchar
        </CharString>
        <CharString name="dieresis">
          8 229 -21 52 -20 hstem
          198 251 rmoveto
          -15 -13 -20 -10 -10 7 -3 7 5 5 2 3 4 hvcurveto
          5 4 9 11 9 -28 callsubr
          -73 9 rmoveto
          -15 -13 -20 -10 -10 7 -3 7 5 5 2 3 4 hvcurveto
          5 4 9 11 9 -28 callsubr
          endchar
        </CharString>
        <CharString name="divide">
          78 201 -21 96 23 90 -20 hstem
          314 389 rmoveto
          -15 -13 -20 -10 -10 7 -3 7 5 5 2 3 4 hvcurveto
          5 4 9 11 9 -28 callsubr
          -91 -166 rmoveto
          -15 -13 -20 -10 -10 7 -3 7 5 5 2 3 4 hvcurveto
          5 4 9 11 9 -28 callsubr
          209 59 rmoveto
          -98 callsubr
          -302 -103 callsubr
          305 -37 callgsubr
        </CharString>
        <CharString name="dollar">
          217 -47 -21 66 -21 34 -21 698 -20 hstemhm
          86 28 252 31 155 30 hintmask 10111110
          456 399 rmoveto
          62 callgsubr
          14 13 -1 -3 12 vhcurveto
          -144 -224 rlineto
          81 -182 rmoveto
          -92 -118 -122 -163 -6 -10 1 1 -11 vhcurveto
          229 354 rlineto
          34 -35 45 -58 -49 vvcurveto
          122 455 rmoveto
          3 4 1 4 5 vvcurveto
          8 -4 8 -5 -51 callsubr
          -3 -2 vhcurveto
          -38 -58 rlineto
          2 -12 -14 1 -13 hhcurveto
          59 callsubr
          hvcurveto
          0 8 -7 11 -11 vhcurveto
          -237 -367 rlineto
          -47 9 -58 29 80 vvcurveto
          52 48 124 153 15 5 2 3 4 -8 4 -6 -124 -111 -84 -106 -89 71 -30 54 -11 vhcurveto
          -10 -16 -3 -6 -8 -11 -2 -8 rlinecurve
          -5 1 -4 7 -1 vhcurveto
          4 hlineto
          2 3 1 4 4 hvcurveto
          27 42 rlineto
          hintmask 11011110
          -1 14 11 -1 6 hhcurveto
          213 102 160 71 62 -57 64 -37 36 hvcurveto
          151 234 rlineto
          26 -10 18 -18 -25 vvcurveto
          -11 9 -10 8 7 7 8 21 31 -27 20 -37 11 vhcurveto
          endchar
        </CharString>
        <CharString name="dotaccent">
          234 -21 43 -20 hstem
          240 256 rmoveto
          -15 -13 -20 -10 -10 7 -3 7 5 5 2 3 4 hvcurveto
          5 4 9 11 9 -28 callsubr
          endchar
        </CharString>
        <CharString name="dotlessi">
          -182 18 -21 177 -20 hstem
          32 25 rmoveto
          15 13 15 13 14 vhcurveto
          75 85 rlineto
          3 3 3 3 4 vvcurveto
          5 -6 5 -5 -5 -5 -3 -3 -3 vhcurveto
          -5 -3 -41 -51 -29 -34 rrcurveto
          -13 -17 -24 -22 -21 vvcurveto
          -106 callgsubr
          -10 -4 5 6 hvcurveto
          endchar
        </CharString>
        <CharString name="e">
          -96 -5 175 hstem
          23 29 112 25 vstem
          52 52 rmoveto
          -2 callgsubr
          137 94 rmoveto
          22 -15 9 -20 -67 -64 -73 -52 -28 19 -22 49 -77 callgsubr
          endchar
        </CharString>
        <CharString name="eacute">
          -96 -5 175 -158 141 17 31 66 -20 49 callsubr
          -25 70 hintmask 01111010
          113 206 -106 callsubr
          -61 -154 rmoveto
          -2 callgsubr
          hintmask 10011100
          137 94 rmoveto
          22 -15 9 -20 -67 -64 -73 -52 -28 19 -22 49 70 64 52 14 3 -2 2 -2 -51 callsubr
          -3 -2 vhcurveto
          hintmask 01111100
          -37 -41 -41 -13 -34 hhcurveto
          -25 -14 9 14 -5 hvcurveto
          55 18 79 35 51 vvcurveto
          endchar
        </CharString>
        <CharString name="ecircumflex">
          -96 -5 175 -17 112 -54 54 49 callsubr
          hintmask 10111000
          94 216 -104 callgsubr
          -42 -164 rmoveto
          hintmask 01011000
          -2 callgsubr
          137 94 rmoveto
          hintmask 10111000
          22 -15 9 -20 -67 -64 -73 -52 -28 19 -22 49 -77 callgsubr
          endchar
        </CharString>
        <CharString name="edieresis">
          -96 -5 175 -158 141 17 81 9 -20 49 callsubr
          hintmask 01101100
          215 251 rmoveto
          -15 -13 -20 -10 -10 7 -3 7 5 5 2 3 4 hvcurveto
          5 4 9 11 9 -28 callsubr
          hintmask 01011100
          -73 9 rmoveto
          -15 -13 -20 -10 -10 7 -3 7 5 5 2 3 4 hvcurveto
          5 4 9 11 9 -28 callsubr
          -90 -215 -43 callsubr
          hintmask 10011100
          26 callgsubr
        </CharString>
        <CharString name="egrave">
          -96 -5 175 -17 58 66 -20 49 callsubr
          hintmask 01111000
          213 216 -102 callgsubr
          -161 -171 -43 callsubr
          hintmask 10111000
          26 callgsubr
        </CharString>
        <CharString name="eight">
          217 -23 133 -99 -21 104 106 -15 118 -13 76 263 -20 hstemhm
          86 28 122 24 106 31 12 21 122 30 101 31 hintmask 1001011111110000
          359 185 rmoveto
          13 14 -2 -5 14 hvcurveto
          -37 -17 -40 -31 -55 hhcurveto
          -20 -8 7 10 22 43 36 56 hvcurveto
          324 366 rmoveto
          -83 -113 -57 -96 -27 vhcurveto
          -11 9 -7 6 0 vvcurveto
          62 callgsubr
          58 49 -20 -43 vhcurveto
          hintmask 0110111111110000
          -406 -457 rmoveto
          64 49 35 41 24 hvcurveto
          9 -6 8 -9 5 -12 rrcurveto
          0 2 -7 3 2 6 5 9 4 -1 5 -4 6 vhcurveto
          hintmask 1001011111110000
          0 -8 10 -15 10 vhcurveto
          6 13 3 13 13 vvcurveto
          43 -32 36 -77 -124 -111 -84 -106 -130 154 -6 27 213 102 160 71 61 -58 66 -37 36 vhcurveto
          113 33 114 68 87 vvcurveto
          47 -59 23 -69 59 callsubr
          vhcurveto
          0 3 -3 3 -2 vhcurveto
          hintmask 0110111111110000
          -7 -30 -26 -3 -19 -18 1 2 -7 hhcurveto
          -4 -1 -3 0 hvcurveto
          -3 vlineto
          -6 4 -4 13 -1 vhcurveto
          30 34 4 8 36 hvcurveto
          31 -30 65 -69 -60 vvcurveto
          -92 -118 -122 -163 -32 -125 7 117 52 48 124 153 66 28 -34 -39 -8 -1 -8 -3 -8 vhcurveto
          4 -11 -13 3 -17 hhcurveto
          -72 -56 -49 -31 -15 13 -11 28 hvcurveto
          endchar
        </CharString>
        <CharString name="ellipsis">
          81 -5 43 hstem
          315 38 rmoveto
          -15 -13 -20 -10 -10 7 -3 7 5 5 2 3 4 hvcurveto
          5 4 9 11 9 -28 callsubr
          -105 hmoveto
          -15 -13 -20 -10 -10 7 -3 7 5 5 2 3 4 hvcurveto
          5 4 9 11 9 -28 callsubr
          -115 hmoveto
          -15 -13 -20 -10 -10 7 -3 7 5 5 2 3 4 hvcurveto
          5 4 9 11 9 -28 callsubr
          endchar
        </CharString>
        <CharString name="emdash">
          209 82 23 hstem
          452 88 rmoveto
          -98 callsubr
          -322 -103 callsubr
          325 -37 callgsubr
        </CharString>
        <CharString name="endash">
          31 82 23 hstem
          277 88 rmoveto
          3 5 1 3 2 vvcurveto
          6 -5 1 0 vhcurveto
          -161 hlineto
          -2 -6 -1 -11 -5 hvcurveto
          0 -1 -2 -3 vvcurveto
          -3 1 -3 5 vhcurveto
          163 hlineto
          0 5 0 2 6 vhcurveto
          endchar
        </CharString>
        <CharString name="equal">
          109 247 23 34 23 hstem
          463 310 rmoveto
          -98 callsubr
          -302 -103 callsubr
          305 -86 callgsubr
          -31 -57 rmoveto
          -98 callsubr
          -302 -103 callsubr
          305 -37 callgsubr
        </CharString>
        <CharString name="eth">
          61 callsubr
          279 25 vstem
          397 355 rmoveto
          60 callgsubr
          -55 -10 rlineto
          2 13 1 13 12 vvcurveto
          61 -33 51 -45 -14 -8 -7 -5 -4 4 -3 10 43 18 -39 -56 -13 -1 -13 -2 -14 vhcurveto
          -57 -10 rlineto
          33 callgsubr
          66 11 rlineto
          -142 -24 -103 -189 -113 -10 callsubr
          -95 -56 -80 -53 -27 14 -20 30 148 109 207 147 23 hvcurveto
          endchar
        </CharString>
        <CharString name="exclam">
          -12 18 -21 616 -20 hstem
          510 613 rmoveto
          -17 -43 -52 0 0 -212 -262 -84 -153 hvcurveto
          -1 -3 0 -2 -2 vvcurveto
          -7 1 -3 9 6 5 17 14 6 vhcurveto
          8 16 35 51 0 vvcurveto
          219 330 87 41 0 vvcurveto
          12 -9 2 -10 1 vhcurveto
          -394 -573 rmoveto
          -15 -13 -20 -10 -10 7 -3 7 5 5 2 3 4 hvcurveto
          5 4 9 11 9 -28 callsubr
          endchar
        </CharString>
        <CharString name="exclamdown">
          -12 -284 -21 616 -20 hstem
          -119 -305 rmoveto
          17 43 52 0 0 212 262 84 153 hvcurveto
          1 3 0 2 2 vvcurveto
          7 -1 3 -9 -6 -5 -17 -14 -6 vhcurveto
          -8 -16 -35 -51 0 vvcurveto
          -219 -330 -87 -41 0 vvcurveto
          -12 9 -2 10 -1 vhcurveto
          394 573 -3 callsubr
          endchar
        </CharString>
        <CharString name="f">
          -149 -285 197 -163 163 569 -20 hstemhm
          -395 30 229 84 hintmask 10111000
          -111 -230 -35 callgsubr
          391 432 rmoveto
          8 callsubr
          59 hlineto
          -68 -85 -68 -88 -66 -73 -26 callgsubr
          hintmask 01111000
          -37 callsubr
          71 76 71 91 71 88 rrcurveto
          -56 callgsubr
          endchar
        </CharString>
        <CharString name="fi">
          -58 -285 197 -163 163 85 177 307 -20 hstemhm
          -395 30 229 84 hintmask 10111100
          335 269 rmoveto
          -15 -13 -20 -10 -10 7 -3 7 5 5 2 3 4 hvcurveto
          5 4 9 11 9 -28 callsubr
          -446 -499 -35 callgsubr
          874 721 rmoveto
          18 -12 14 -32 -104 -130 -145 -163 -131 vhcurveto
          -59 hlineto
          8 callsubr
          54 hlineto
          -71 -89 -72 -93 -69 -77 -26 callgsubr
          hintmask 01111100
          -37 callsubr
          74 80 75 96 74 92 rrcurveto
          95 hlineto
          -15 -17 -28 -36 -22 -25 rrcurveto
          -13 -17 -24 -22 -21 vvcurveto
          -106 callgsubr
          -10 -4 5 6 15 13 15 13 14 hvcurveto
          75 85 rlineto
          3 3 3 3 4 vvcurveto
          5 -6 5 -5 vhcurveto
          -105 hlineto
          155 126 119 136 87 -56 callsubr
          endchar
        </CharString>
        <CharString name="five">
          189 2 133 -18 184 -12 145 -14 161 -15 95 -94 94 hstemhm
          98 28 97 217 -23 23 110 25 43 177 -28 28 hintmask 1001001101010000
          740 644 rmoveto
          24 3 -9 -9 -33 -67 -9 -51 -3 hvcurveto
          38 17 41 25 33 hhcurveto
          -486 -642 rmoveto
          hintmask 1010101101100000
          195 126 170 117 113 -105 32 -69 -30 -22 -4 0 hvcurveto
          -1 -3 -1 0 -2 hhcurveto
          -4 -1 2 3 3 2 4 0 hvcurveto
          20 28 87 102 0 vvcurveto
          0 5 7 5 vhcurveto
          0 73 -12 80 vhcurveto
          10 hlineto
          -2 -6 0 -6 -6 vvcurveto
          -46 32 0 0 vhcurveto
          7 1 2 3 2 vvcurveto
          3 -4 3 0 vhcurveto
          -12 7 -1 17 8 vvcurveto
          hintmask 1010011101100000
          7 1 7 1 7 vhcurveto
          72 3 79 16 47 vvcurveto
          22 -24 6 -19 vhcurveto
          hintmask 0101001101100000
          -61 -49 -39 -41 -17 hvcurveto
          -8 hlineto
          -97 -64 26 0 hvcurveto
          -9 -6 -5 0 0 -128 -151 -38 -50 hvcurveto
          0 -3 -6 -5 vvcurveto
          -3 1 -3 4 3 5 2 4 8 vhcurveto
          0 53 30 63 67 74 -38 -89 -137 -147 -139 -147 -25 -105 5 95 vhcurveto
          hintmask 1010101011100000
          80 85 92 115 31 60 -4 -60 -35 -31 -55 -83 -6 -7 1 1 -7 vhcurveto
          0 -27 3 -11 20 vhcurveto
          0 -4 8 -7 vhcurveto
          hintmask 0101001101100000
          -8 -3 -4 -13 -13 15 -21 48 33 121 12 99 10 -2 63 -109 -83 -148 -58 -123 hvcurveto
          hintmask 1010101101100000
          0 -1 -118 157 vhcurveto
          endchar
        </CharString>
        <CharString name="fl">
          1 -264 -21 305 -21 482 -20 hstem
          176 26 vstem
          -334 -272 rmoveto
          0 -20 0 -7 vvcurveto
          -3 4 -3 9 136 178 226 204 161 vhcurveto
          72 hlineto
          11 1 7 5 4 vvcurveto
          3 -4 2 -8 vhcurveto
          -65 hlineto
          161 130 122 144 90 hhcurveto
          16 hlineto
          -28 -31 -301 -350 -54 -81 callsubr
          -1 callsubr
          40 280 333 42 40 hvcurveto
          6 5 3 4 4 vvcurveto
          9 -15 5 -22 -107 -133 -153 -168 -136 vhcurveto
          -63 hlineto
          8 callsubr
          59 hlineto
          -200 -156 -167 -217 -119 hhcurveto
          endchar
        </CharString>
        <CharString name="four">
          300 17 -21 137 177 -18 173 -16 178 hstemhm
          607 31 -31 212 hintmask 10101000
          610 292 rmoveto
          16 0 -12 0 -36 -39 -22 -63 -12 hvcurveto
          42 11 40 40 35 hhcurveto
          -377 -296 rmoveto
          9 6 13 0 hvcurveto
          36 60 44 59 43 53 46 2 44 3 39 5 rrcurveto
          -2 vlineto
          hintmask 11011000
          -36 25 -20 24 8 2 5 2 3 -3 1 0 vhcurveto
          -33 6 -1 25 15 vvcurveto
          5 vlineto
          78 14 52 27 50 vvcurveto
          17 -13 7 -16 -67 -43 -61 -42 -11 vhcurveto
          -34 -5 -41 -3 -44 -2 rrcurveto
          87 106 80 78 0 vvcurveto
          5 5 2 3 3 vvcurveto
          5 -7 1 0 -16 -7 -7 0 0 -82 -79 -94 -116 vhcurveto
          -55 hlineto
          -97 -83 5 0 hvcurveto
          -11 1 -3 3 5 vvcurveto
          9 11 11 0 vhcurveto
          209 214 282 131 0 vvcurveto
          0 69 36 64 57 6 -31 -14 vhcurveto
          hintmask 10101000
          -65 -84 -36 -48 -26 -4 11 7 36 58 5 3 1 vhcurveto
          6 1 1 4 3 vvcurveto
          2 0 6 -15 -10 -12 -1 -10 -22 vhcurveto
          -20 -9 -20 -19 -20 vvcurveto
          hintmask 11010100
          -14 11 -19 46 66 89 50 70 26 -13 32 -65 -68 -75 -37 0 0 -315 -145 -225 -226 vhcurveto
          0 -13 -11 -10 vvcurveto
          -7 7 -6 21 vhcurveto
          0 90 -5 107 vhcurveto
          68 hlineto
          -39 -48 -39 -53 -37 -56 rrcurveto
          0 -3 -6 -7 vvcurveto
          0 0 -14 13 vhcurveto
          endchar
        </CharString>
        <CharString name="foursuperior">
          47 311 -21 226 89 hstem
          486 96 vstem
          478 438 -16 callgsubr
          -189 -148 -100 callsubr
          5 12 27 10 21 hhcurveto
          15 11 -5 -14 16 callsubr
          hvcurveto
          -34 callsubr
          43 callgsubr
          -47 callgsubr
          -40 callsubr
          endchar
        </CharString>
        <CharString name="fraction">
          87 -38 -21 756 -20 hstem
          507 668 -73 callgsubr
          endchar
        </CharString>
        <CharString name="g">
          -55 -267 197 -13 101 -17 173 hstemhm
          -214 32 195 29 hintmask 01011000
          165 158 rmoveto
          47 11 -23 -13 2 hvcurveto
          -54 -68 rlineto
          0 -55 -36 -38 -25 -11 13 19 41 54 67 69 vhcurveto
          -318 -413 rmoveto
          -20 -9 9 14 47 104 102 140 hvcurveto
          1 hlineto
          -107 -88 -74 -65 -54 hhcurveto
          424 423 rmoveto
          -4 -7 -2 -9 -6 hvcurveto
          -1 -2 -7 -11 -7 -8 rrcurveto
          hintmask 10111000
          26 -6 -29 12 -35 hhcurveto
          -89 -67 -77 -51 -26 17 -19 40 26 31 11 12 20 hvcurveto
          -73 -94 rlineto
          -154 -1 -134 -108 -56 vvcurveto
          -19 16 -13 37 85 82 89 93 82 vhcurveto
          57 -9 28 -37 -34 vvcurveto
          -31 -23 -27 -46 vhcurveto
          -13 -6 3 -3 hhcurveto
          -51 callsubr
          -3 -4 4 -2 9 -2 hvcurveto
          -1 6 5 0 5 hhcurveto
          56 28 35 38 39 -30 42 -62 8 hvcurveto
          37 45 142 174 12 vvcurveto
          0 0 8 -7 vhcurveto
          endchar
        </CharString>
        <CharString name="germandbls">
          -31 -264 -21 272 81 175 64 -13 187 hstemhm
          332 23 126 22 hintmask 11011100
          287 294 rmoveto
          27 13 -11 -17 4 hvcurveto
          -6 -13 -11 -3 -11 hhcurveto
          -26 -10 7 8 14 12 8 15 hvcurveto
          -653 -579 rmoveto
          248 377 750 205 hhcurveto
          12 5 -6 -11 -38 -66 -89 -62 -42 hvcurveto
          hintmask 11101100
          18 -4 -15 10 -27 hhcurveto
          -44 -33 -24 -20 -11 13 -9 32 18 20 4 8 19 hvcurveto
          -78 -1 -151 -171 -90 hhcurveto
          -12 -5 6 8 14 17 20 28 6 6 -1 -2 7 hvcurveto
          -1 2 2 0 2 hhcurveto
          5 2 3 3 3 -2 3 -5 2 hvcurveto
          3 -11 -10 1 -9 hhcurveto
          -44 -26 -31 -24 -14 10 -12 20 119 163 191 87 hvcurveto
          2 vlineto
          78 44 70 93 48 vvcurveto
          hintmask 11011100
          18 -9 11 -23 vhcurveto
          -236 -372 -753 -222 hhcurveto
          endchar
        </CharString>
        <CharString name="grave">
          232 -21 66 -20 hstem
          203 216 -102 callgsubr
          endchar
        </CharString>
        <CharString name="greater">
          38 177 -21 287 -20 hstem
          392 305 rmoveto
          -51 -30 -113 -63 -42 -34 rrcurveto
          -4 -3 -6 -7 -3 vvcurveto
          -6 4 -3 8 6 3 2 17 22 vhcurveto
          31 23 101 62 37 20 rrcurveto
          25 14 6 5 9 vvcurveto
          9 -131 90 -35 30 vhcurveto
          0 -5 6 -11 vhcurveto
          0 -11 -1 -4 vvcurveto
          -1 2 -3 3 -2 vhcurveto
          endchar
        </CharString>
        <CharString name="greaterequal">
          77 152 23 274 -20 hstem
          423 321 rmoveto
          -47 -22 -157 -45 -59 -26 rrcurveto
          -5 -2 -4 -6 -4 vvcurveto
          -4 4 -3 8 vhcurveto
          269 93 rlineto
          13 8 3 6 7 vvcurveto
          9 -133 82 -46 29 vhcurveto
          2 -3 -8 4 -7 hhcurveto
          -5 -4 -2 -5 -1 2 -3 3 -2 hvcurveto
          163 -278 rmoveto
          -98 callsubr
          -272 hlineto
          -8 -19 -6 -11 -3 2 -3 9 hvcurveto
          275 -37 callgsubr
        </CharString>
        <CharString name="guillemotleft">
          5 -4 -21 209 -20 hstem
          162 62 -89 callgsubr
          -185 76 -89 callgsubr
          endchar
        </CharString>
        <CharString name="guillemotright">
          39 -3 -21 209 -20 hstem
          213 98 -89 callsubr
          185 -76 -89 callsubr
          endchar
        </CharString>
        <CharString name="guilsinglleft">
          -86 -4 -21 209 -20 hstem
          71 62 -89 callgsubr
          endchar
        </CharString>
        <CharString name="guilsinglright">
          -52 -3 -21 209 -20 hstem
          213 98 -89 callsubr
          endchar
        </CharString>
        <CharString name="h">
          -38 -3 180 -157 -21 467 21 hstemhm
          148 29 47 31 hintmask 01111000
          458 459 rmoveto
          -27 -98 -94 -106 -57 vhcurveto
          98 87 83 87 26 hhcurveto
          6 2 -4 -3 hvcurveto
          -252 -201 rmoveto
          -100 -111 -103 -125 21 callsubr
          4 8 8 9 hvcurveto
          17 17 34 40 42 48 25 15 31 18 30 19 callgsubr
          -31 -76 -50 -39 vvcurveto
          hintmask 10111000
          -106 callgsubr
          -10 -4 5 6 hvcurveto
          56 callgsubr
          0 -4 28 -34 -17 -26 -7 -22 -36 vhcurveto
          30 35 32 37 33 37 rrcurveto
          123 61 133 114 38 vvcurveto
          10 -10 7 -8 -45 -115 -114 -115 -105 vhcurveto
          endchar
        </CharString>
        <CharString name="hungarumlaut">
          217 222 -21 101 -20 hstem
          129 241 -106 callsubr
          25 -35 -23 callsubr
        </CharString>
        <CharString name="hyphen">
          269 82 23 hstem
          512 88 rmoveto
          -98 callsubr
          -382 -103 callsubr
          385 -37 callgsubr
        </CharString>
        <CharString name="i">
          -182 18 -21 272 -20 hstem
          3 135 vstem
          201 269 rmoveto
          -15 -13 -20 -10 -10 7 -3 7 5 5 2 3 4 hvcurveto
          5 4 9 11 9 -28 callsubr
          -169 -244 -92 callsubr
        </CharString>
        <CharString name="iacute">
          -182 18 -21 270 -20 hstem
          127 206 -106 callsubr
          -95 -181 rmoveto
          15 13 15 13 14 vhcurveto
          75 85 rlineto
          3 3 3 3 4 vvcurveto
          5 -6 5 -5 -5 -5 -3 -3 -3 vhcurveto
          -5 -3 -41 -51 -29 -34 rrcurveto
          -13 -17 -24 -22 -21 vvcurveto
          -106 callgsubr
          -10 -4 5 6 hvcurveto
          endchar
        </CharString>
        <CharString name="icircumflex">
          -182 18 -21 214 54 hstem
          81 216 -104 callgsubr
          -49 -191 rmoveto
          15 13 15 13 14 vhcurveto
          75 85 rlineto
          3 3 3 3 4 vvcurveto
          5 -6 5 -5 -5 -5 -3 -3 -3 vhcurveto
          -5 -3 -41 -51 -29 -34 rrcurveto
          -13 -17 -24 -22 -21 vvcurveto
          -106 callgsubr
          -10 -4 5 6 hvcurveto
          endchar
        </CharString>
        <CharString name="idieresis">
          -182 18 -21 263 -20 hstem
          3 135 vstem
          146 260 rmoveto
          -15 -13 -20 -10 -10 7 -3 7 5 5 2 3 4 hvcurveto
          5 4 9 11 9 -28 callsubr
          73 -9 rmoveto
          -15 -13 -20 -10 -10 7 -3 7 5 5 2 3 4 hvcurveto
          5 4 9 11 9 -28 callsubr
          -187 -226 -92 callsubr
        </CharString>
        <CharString name="igrave">
          -182 -3 214 66 -20 hstem
          3 135 vstem
          185 216 -102 callgsubr
          -153 -191 -92 callsubr
        </CharString>
        <CharString name="j">
          -184 -275 178 -163 21 508 -20 hstemhm
          -384 32 210 102 hintmask 01111000
          190 269 rmoveto
          -15 -13 -20 -10 -10 7 -3 7 5 5 2 3 4 hvcurveto
          5 4 9 11 9 -28 callsubr
          -312 -498 rmoveto
          14 23 26 39 15 vhcurveto
          -33 -3 -27 -32 -19 hhcurveto
          -9 -4 4 6 hvcurveto
          -34 122 rmoveto
          12 11 -1 -1 9 hvcurveto
          -80 -74 -77 -69 -48 hhcurveto
          -20 -9 11 16 43 70 81 126 hvcurveto
          291 290 rmoveto
          -12 -15 -31 -32 -32 hvcurveto
          -33 -33 -76 -97 -81 -89 rrcurveto
          hintmask 10111000
          2 -10 -12 0 -13 hhcurveto
          hintmask 01111000
          -152 -83 -90 -52 hvcurveto
          hintmask 10111000
          -21 14 -15 28 72 84 70 91 84 vhcurveto
          30 -11 11 -19 1 -20 rrcurveto
          -51 -20 -31 -39 -22 vvcurveto
          hintmask 01111000
          -9 6 -6 11 39 44 49 44 2 vhcurveto
          3 14 15 2 16 hhcurveto
          27 10 -29 -7 4 hvcurveto
          -2 1 2 -1 2 hhcurveto
          4 3 4 4 hvcurveto
          31 -6 -21 10 -24 hhcurveto
          -17 -15 -2 -4 -15 hvcurveto
          -2 23 -15 21 -35 10 80 87 80 102 72 80 rrcurveto
          0 5 5 5 vvcurveto
          4 -6 4 -4 vhcurveto
          endchar
        </CharString>
        <CharString name="k">
          -29 -5 176 -20 20 321 -20 hstemhm
          114 27 76 35 hintmask 01111000
          168 12 rmoveto
          -10 -17 3 28 hvcurveto
          65 111 -27 57 vvcurveto
          24 -14 9 -21 -32 -47 -21 -15 -29 vhcurveto
          113 138 171 200 1 1 rrcurveto
          0 5 5 5 vvcurveto
          4 -6 4 -4 -4 -5 -3 -5 -6 vhcurveto
          -47 -59 -59 -12 -15 -15 -11 9 -5 hhcurveto
          -2 -5 -4 -4 -4 5 -8 27 33 42 17 5 8 hvcurveto
          1 2 1 0 1 hhcurveto
          1 1 0 -2 -3 -2 -5 -7 -7 hvcurveto
          -112 -140 -85 -94 -129 -164 rrcurveto
          -3 -3 -3 -5 -4 vvcurveto
          -4 3 -4 8 -1 vhcurveto
          10 11 13 13 10 hvcurveto
          14 19 25 32 30 38 17 9 19 8 16 7 rrcurveto
          6 14 18 5 15 hhcurveto
          15 9 -4 -14 hvcurveto
          -46 -103 29 -78 vvcurveto
          hintmask 10111000
          -38 37 -5 9 70 64 52 14 3 -2 2 -2 -51 callsubr
          -3 -2 vhcurveto
          -37 -41 -41 -13 -34 hhcurveto
          endchar
        </CharString>
        <CharString name="l">
          6 callgsubr
          40 280 333 42 40 hvcurveto
          -12 callsubr
          -21 -27 -304 -354 -54 -81 callsubr
          endchar
        </CharString>
        <CharString name="less">
          7 176 -21 287 -20 hstem
          169 293 rmoveto
          51 30 113 63 42 34 rrcurveto
          4 3 6 7 3 vvcurveto
          6 -4 3 -8 -6 -3 -2 -17 -22 vhcurveto
          -31 -23 -101 -62 -37 -20 rrcurveto
          -25 -14 -6 -5 -9 vvcurveto
          -9 131 -90 35 -30 vhcurveto
          0 5 -6 11 vhcurveto
          0 11 1 4 vvcurveto
          1 -2 3 -3 2 vhcurveto
          endchar
        </CharString>
        <CharString name="lessequal">
          62 152 23 274 -20 hstem
          226 328 rmoveto
          216 101 rlineto
          6 3 1 5 4 vvcurveto
          5 -3 3 -8 vhcurveto
          -47 -27 -99 -42 -60 -26 rrcurveto
          -26 -11 -5 -8 -9 vvcurveto
          -9 133 -82 46 -29 vhcurveto
          -2 3 8 -4 7 hhcurveto
          5 4 2 5 1 -2 3 -3 2 hvcurveto
          8 -55 rmoveto
          -98 callsubr
          -272 hlineto
          -8 -19 -6 -11 -3 2 -3 9 hvcurveto
          275 -37 callgsubr
        </CharString>
        <CharString name="logicalnot">
          78 180 -21 117 23 hstem
          101 282 rmoveto
          -3 2 -3 9 vhcurveto
          291 hlineto
          -50 -85 rlineto
          -2 -2 -2 -10 -8 vvcurveto
          -7 2 -5 5 2 3 1 6 4 vhcurveto
          73 123 1 2 1 vvcurveto
          -65 callgsubr
          -302 hlineto
          -4 -11 -1 -11 -10 hvcurveto
          0 -2 -2 -3 vvcurveto
          endchar
        </CharString>
        <CharString name="lslash">
          6 callgsubr
          19 64 86 72 90 hvcurveto
          56 10 rlineto
          60 callgsubr
          -47 -9 73 91 77 89 21 20 rlinecurve
          -12 callsubr
          -11 -14 -85 -100 -81 -102 -61 -10 rcurveline
          33 callgsubr
          57 10 rlineto
          -70 -90 -63 -87 -24 -81 callsubr
          endchar
        </CharString>
        <CharString name="m">
          47 -9 177 -154 -21 181 -20 hstemhm
          228 107 -31 31 hintmask 10001000
          257 19 rmoveto
          56 callgsubr
          0 -2 25 -33 -20 -30 -10 -28 -48 vhcurveto
          2 3 2 7 5 vvcurveto
          16 -11 5 -14 -23 -30 -14 -6 -9 vhcurveto
          -1 -1 0 2 0 vvcurveto
          4 4 3 8 5 vvcurveto
          hintmask 01101000
          6 -3 4 -6 -6 -5 -3 -5 -4 vhcurveto
          -3 -4 -28 -40 -30 -37 -25 -32 -25 -34 -4 -5 rrcurveto
          -4 -4 -1 -4 -4 vvcurveto
          -5 3 -4 5 4 4 2 6 5 vhcurveto
          7 10 71 96 11 8 rrcurveto
          10 13 42 24 21 hhcurveto
          8 5 -3 -8 -15 -2 6 -75 -102 hvcurveto
          -4 -4 -5 -6 -5 vvcurveto
          -5 3 -5 5 5 6 4 3 2 vhcurveto
          4 4 44 62 23 32 28 17 40 23 26 19 callgsubr
          hintmask 01110000
          -31 -76 -50 -39 vvcurveto
          hintmask 10010000
          -17 9 -6 13 47 72 56 14 3 -2 2 -2 -51 callsubr
          -3 -2 vhcurveto
          -37 -41 -32 -17 -15 hhcurveto
          -10 -4 5 6 hvcurveto
          endchar
        </CharString>
        <CharString name="macron">
          216 -20 25 -21 hstemhm
          hintmask 10000000
          298 204 rmoveto
          3 3 1 2 2 vvcurveto
          4 -5 1 0 vhcurveto
          -161 hlineto
          -2 -6 -1 -8 -5 hvcurveto
          0 -1 -1 -2 vvcurveto
          hintmask 01000000
          -2 1 -2 5 vhcurveto
          163 hlineto
          0 5 0 2 4 vhcurveto
          endchar
        </CharString>
        <CharString name="minus">
          78 276 23 hstem
          432 282 rmoveto
          -98 callsubr
          -302 -103 callsubr
          305 -37 callgsubr
        </CharString>
        <CharString name="mu">
          -55 -120 -21 138 21 2 -21 174 -20 hstemhm
          hintmask 10110000
          125 20 rmoveto
          hintmask 11010000
          -106 callgsubr
          -15 -5 7 9 11 7 13 3 7 hvcurveto
          4 9 54 56 9 11 rrcurveto
          8 9 7 6 6 vvcurveto
          5 -4 2 -4 -6 -8 -5 -6 -5 vhcurveto
          -9 -13 -22 -23 -26 -23 rrcurveto
          0 -79 -77 -37 -11 -5 4 7 25 62 63 32 36 vhcurveto
          5 5 2 4 4 vvcurveto
          5 -3 2 -5 -4 2 callsubr
          -3 vhcurveto
          1 2 -46 -43 -33 -43 -53 -68 -54 -68 -52 -57 rrcurveto
          -8 -7 -19 -13 -22 hhcurveto
          -5 -10 rlineto
          -1 4 3 0 4 hhcurveto
          26 19 14 8 8 hvcurveto
          38 41 40 44 38 47 rrcurveto
          hintmask 10110000
          -9 3 8 -5 17 hhcurveto
          44 67 57 0 hvcurveto
          1 1 0 -2 -1 9 callgsubr
        </CharString>
        <CharString name="multiply">
          89 175 -21 270 -20 hstem
          336 286 rmoveto
          129 95 rlineto
          11 8 6 6 4 vvcurveto
          4 -8 3 -10 vhcurveto
          -140 -105 -79 105 rlineto
          5 -4 -6 13 -7 hhcurveto
          -4 -4 -9 -9 -1 hvcurveto
          89 -117 -153 -114 rlineto
          -3 -3 -2 -8 -5 vvcurveto
          -3 1 -2 3 -39 callsubr
          2 vhcurveto
          162 119 87 -113 rlineto
          -5 5 4 -2 4 hhcurveto
          6 5 3 3 2 -2 2 0 hvcurveto
          endchar
        </CharString>
        <CharString name="n">
          -48 -3 180 6 -20 hstemhm
          138 29 47 31 hintmask 10110000
          12 callgsubr
          hintmask 01110000
          28 callgsubr
          hintmask 10110000
          -6 3 -4 8 vhcurveto
          4 1 28 33 7 8 6 7 41 50 24 23 26 14 32 20 30 19 callgsubr
          -31 -76 -50 -39 vvcurveto
          -106 callgsubr
          -10 -4 5 6 hvcurveto
          56 callgsubr
          endchar
        </CharString>
        <CharString name="nine">
          257 -33 158 -125 -21 392 161 -14 114 hstemhm
          118 25 85 26 -26 167 -19 111 -20 112 -19 122 -22 22 hintmask 1010101010100000
          395 409 rmoveto
          40 28 30 31 18 vhcurveto
          5 -5 2 -4 0 vvcurveto
          4 -9 2 -9 -8 vvcurveto
          -38 -36 -25 0 vhcurveto
          -6 -9 -7 -2 -5 hhcurveto
          -15 0 10 7 hvcurveto
          1 vlineto
          -252 -413 rmoveto
          -24 21 33 -5 26 hhcurveto
          hintmask 1001110101000000
          213 246 292 217 120 -84 36 -78 -200 -92 -178 -82 -42 22 -76 90 hvcurveto
          hintmask 1010110010100000
          118 121 97 113 24 -6 44 -52 -22 -20 -5 -8 -17 hvcurveto
          6 -9 -13 3 -15 hhcurveto
          -15 -11 -4 0 hvcurveto
          hintmask 1001110101000000
          -4 -2 -1 -2 -2 vvcurveto
          -4 5 -2 0 vhcurveto
          1 4 4 0 4 hhcurveto
          12 10 -3 -3 8 hvcurveto
          -42 -29 -23 -48 -30 vvcurveto
          hintmask 1010110101000000
          -17 7 -12 16 49 39 56 45 13 -4 13 -8 10 vhcurveto
          hintmask 1001110101000000
          7 16 16 3 10 hhcurveto
          30 13 -20 -25 -97 -110 -109 -105 -68 -23 49 44 70 68 188 205 hvcurveto
          hintmask 0110110100100000
          59 74 -34 -97 -142 -202 -366 -235 -12 -68 2 64 6 0 6 2 7 hvcurveto
          0 6 34 26 9 vhcurveto
          0 6 4 4 vvcurveto
          hintmask 1010110101000000
          2 -2 8 -10 -23 -30 -34 -37 -18 7 -20 18 -20 vhcurveto
          endchar
        </CharString>
        <CharString name="ntilde">
          -48 -3 180 -180 230 -18 43 hstemhm
          138 29 47 31 hintmask 10111000
          12 callgsubr
          28 callgsubr
          -6 3 -4 8 vhcurveto
          4 1 28 33 7 8 6 7 41 50 24 23 26 14 32 20 30 19 callgsubr
          -31 -76 -50 -39 vvcurveto
          -106 callgsubr
          -10 -4 5 6 hvcurveto
          56 callgsubr
          -67 103 rmoveto
          -15 -28 -9 -20 -2 2 -2 3 2 1 0 3 3 hvcurveto
          9 11 7 4 9 26 39 -26 25 hhcurveto
          12 33 10 16 3 -2 3 -3 hvcurveto
          hintmask 01011000
          57 callgsubr
          hhcurveto
          hintmask 10111000
          9 callsubr
          endchar
        </CharString>
        <CharString name="numbersign">
          207 104 -21 193 23 58 23 -23 210 hstemhm
          hintmask 11010000
          396 357 rmoveto
          79 hlineto
          -31 -58 rlineto
          -79 hlineto
          133 251 rmoveto
          -11 callsubr
          hintmask 11100000
          -97 -182 rlineto
          -164 -103 callsubr
          167 hlineto
          -31 -58 rlineto
          -157 -103 callsubr
          161 hlineto
          -86 -161 rlineto
          -2 -2 -2 -10 -8 vvcurveto
          -7 2 -5 5 2 3 1 6 4 vhcurveto
          99 186 rlineto
          79 hlineto
          -86 -161 rlineto
          -2 -2 -2 -10 -8 vvcurveto
          -7 2 -5 5 2 3 1 6 4 vhcurveto
          99 186 rlineto
          154 -86 callgsubr
          -98 callsubr
          -155 hlineto
          31 58 rlineto
          148 -86 callgsubr
          -98 callsubr
          -148 hlineto
          85 159 37 callsubr
          hintmask 11010000
          -11 callsubr
          hintmask 11100000
          -97 -182 rlineto
          -79 hlineto
          85 159 37 callsubr
          endchar
        </CharString>
        <CharString name="o">
          0 callgsubr
          49 callgsubr
          34 22 hintmask 10011000
          154 164 -88 callgsubr
        </CharString>
        <CharString name="oacute">
          -70 -5 175 -160 144 35 24 66 -20 hstemhm
          4 34 150 22 hintmask 01111100
          158 218 -106 callsubr
          -4 -54 -88 callsubr
          -70 callsubr
          hintmask 10111100
          -25 17 -19 42 60 58 51 54 21 vhcurveto
          44 2 54 23 17 14 rrcurveto
          2 callgsubr
          2 vvcurveto
          0 0 5 -5 vhcurveto
          -5 -5 -58 -30 -45 hhcurveto
          3 9 1 9 9 vvcurveto
          35 -22 14 -20 -15 -14 -7 -12 -6 vhcurveto
          -60 -1 -69 -78 -52 vvcurveto
          endchar
        </CharString>
        <CharString name="ocircumflex">
          0 callgsubr
          22 54 49 callgsubr
          34 22 hintmask 10101100
          117 216 -104 callgsubr
          37 -52 -88 callsubr
          hintmask 01110100
          -70 callsubr
          -25 17 -19 42 60 58 51 54 21 vhcurveto
          44 2 54 23 17 14 rrcurveto
          2 callgsubr
          2 vvcurveto
          0 0 5 -5 vhcurveto
          -5 -5 -58 -30 -45 hhcurveto
          3 9 1 9 9 vvcurveto
          35 -22 14 -20 vhcurveto
          hintmask 10110100
          -46 callgsubr
          endchar
        </CharString>
        <CharString name="odieresis">
          -70 -5 175 -160 144 35 62 9 -20 hstemhm
          4 34 hintmask 10101000
          233 251 rmoveto
          -15 -13 -20 -10 -10 7 -3 7 5 5 2 3 4 hvcurveto
          5 4 9 11 9 -28 callsubr
          hintmask 01011000
          -73 9 rmoveto
          -15 -13 -20 -10 -10 7 -3 7 5 5 2 3 4 hvcurveto
          5 4 9 11 9 -28 callsubr
          -6 -96 -49 callsubr
          hintmask 10101000
          52 69 78 60 1 vhcurveto
          -48 callgsubr
        </CharString>
        <CharString name="oe">
          46 -5 175 -17 36 49 callgsubr
          -150 190 -6 143 -25 25 hintmask 01010100
          154 164 rmoveto
          5 4 3 5 10 15 -12 -29 -6 0 -5 -1 -5 vhcurveto
          -20 5 -13 14 30 vvcurveto
          129 -11 rmoveto
          hintmask 01001010
          13 10 -7 -15 -35 -56 -30 -56 -21 hvcurveto
          6 vlineto
          42 44 60 45 vhcurveto
          -206 -143 rmoveto
          hintmask 10100100
          -28 -11 16 21 42 45 63 48 2 hvcurveto
          2 -36 21 -15 29 -3 rrcurveto
          20 callsubr
          -1 vvcurveto
          -5 -7 -3 -7 -3 -7 rrcurveto
          -39 -23 -44 -27 -27 hhcurveto
          -14 -15 rmoveto
          37 37 20 29 28 hvcurveto
          -28 20 -21 48 -77 callgsubr
          22 -15 9 -20 -32 -31 -17 -23 -24 vhcurveto
          1 3 0 4 3 vvcurveto
          hintmask 01100100
          35 -22 14 -20 vhcurveto
          hintmask 10100100
          -46 callgsubr
          -25 17 -19 42 vhcurveto
          endchar
        </CharString>
        <CharString name="ogonek">
          -96 -30 -21 51 -20 hstem
          130 -45 rmoveto
          0 1 1 2 vvcurveto
          1 -1 2 -2 vhcurveto
          -1 -6 -5 0 -4 hhcurveto
          -15 -7 5 9 6 3 8 7 9 hvcurveto
          -2 3 rlineto
          -16 -7 -10 -14 -12 vvcurveto
          -10 8 -8 17 8 11 2 4 13 vhcurveto
          endchar
        </CharString>
        <CharString name="ograve">
          0 callgsubr
          -194 225 66 -20 hstemhm
          4 34 hintmask 00111000
          257 225 -102 callgsubr
          -103 -61 -49 callsubr
          hintmask 10011000
          52 69 78 60 1 vhcurveto
          hintmask 01011000
          -48 callgsubr
        </CharString>
        <CharString name="one">
          79 14 -21 417 163 58 -20 hstem
          183 128 vstem
          207 446 rmoveto
          23 20 34 59 30 vhcurveto
          4 -8 2 -8 -9 vvcurveto
          -37 -29 -43 -38 -15 -3 9 9 vhcurveto
          -119 -437 rmoveto
          8 16 35 51 0 vvcurveto
          223 312 219 229 0 vvcurveto
          2 10 callgsubr
          2 vvcurveto
          6 -10 2 -2 -9 -8 -6 0 vhcurveto
          -21 -17 -28 -1 0 vvcurveto
          -79 -13 -71 -18 -54 -23 rrcurveto
          15 -15 -23 5 -16 hhcurveto
          -18 -13 -4 0 hvcurveto
          -7 -2 -1 -7 -4 vvcurveto
          0 1 -3 4 vhcurveto
          7 3 5 21 hhcurveto
          18 13 -5 -8 9 hvcurveto
          -59 -27 -35 -35 -40 vvcurveto
          -24 16 -9 19 67 26 75 28 11 -3 9 -4 8 vhcurveto
          12 5 14 5 15 5 rrcurveto
          0 106 34 37 7 6 -1 -5 -3 -1 -4 -6 -6 vhcurveto
          0 -357 -408 -84 -153 vhcurveto
          -1 -3 0 -2 -2 vvcurveto
          -7 5 -3 9 6 10 2 14 6 vhcurveto
          endchar
        </CharString>
        <CharString name="onehalf">
          265 -48 -21 77 106 -95 -21 22 -21 22 23 0 70 0 64 -64 195 -131 140 175 68 100 -20 21 -20 hstemhm
          277 71 53 133 -69 69 -16 62 -16 38 hintmask 110000001101100100000000
          479 63 10 callsubr
          -187 439 -33 callgsubr
          126 -295 11 callsubr
          19 380 -101 callsubr
          203 71 -80 callgsubr
          hintmask 101010100110110010000000
          17 callgsubr
          -161 -337 rmoveto
          12 9 -3 -5 6 hvcurveto
          22 callgsubr
          hintmask 101010010101110010000000
          -19 callsubr
          hintmask 100101001101110010000000
          43 callsubr
          hintmask 110000001101100100000000
          -42 callgsubr
          hintmask 101010001101101010000000
          -65 callsubr
          27 callsubr
          42 callgsubr
        </CharString>
        <CharString name="onequarter">
          265 -48 -21 83 -21 157 69 0 89 185 68 100 -20 21 -20 hstemhm
          277 71 239 96 hintmask 1110101110000000
          579 141 -16 callgsubr
          -189 -148 -100 callsubr
          20 9 66 21 -34 vvcurveto
          16 callsubr
          vhcurveto
          -34 callsubr
          43 callgsubr
          vhcurveto
          hintmask 1101101110000000
          -47 callgsubr
          -40 callsubr
          -98 509 -33 callgsubr
          145 85 -101 callsubr
          203 71 -80 callgsubr
          hintmask 1101110110000000
          17 callgsubr
          endchar
        </CharString>
        <CharString name="onesuperior">
          -107 296 -21 218 68 33 -20 hstem
          212 71 vstem
          227 502 -33 callgsubr
          145 85 -101 callsubr
          endchar
        </CharString>
        <CharString name="ordfeminine">
          358 170 -152 -21 174 -20 hstemhm
          128 34 hintmask 10010000
          191 373 -61 callsubr
          -103 callgsubr
          hintmask 01110000
          -87 callgsubr
          hintmask 10010000
          0 -17 25 -41 -94 -72 -82 -51 vhcurveto
          hintmask 01110000
          -85 callgsubr
        </CharString>
        <CharString name="ordmasculine">
          -70 353 175 -175 194 hstemhm
          150 34 -34 150 34 22 hintmask 10011000
          300 522 -88 callgsubr
        </CharString>
        <CharString name="oslash">
          0 callgsubr
          -182 -21 213 -20 hstemhm
          4 34 hintmask 00111000
          165 127 rmoveto
          21 18 rlineto
          1 -4 1 -5 -5 vvcurveto
          -6 0 -5 -1 -5 vhcurveto
          -9 2 -8 4 -5 6 rrcurveto
          -11 37 rmoveto
          5 4 3 5 6 8 -5 -10 5 vhcurveto
          -24 -19 rlineto
          -3 7 -1 8 11 vvcurveto
          -14 -41 rmoveto
          -35 -29 -38 -30 -29 -25 rrcurveto
          8 vlineto
          42 45 63 48 2 vhcurveto
          -13 4 -10 5 -8 vhcurveto
          43 -23 rmoveto
          -52 -17 -57 -38 -32 hhcurveto
          -17 -10 5 9 -6 hvcurveto
          37 30 35 31 33 28 9 -7 12 -4 13 -2 rrcurveto
          -194 -102 15 callsubr
          9 7 9 6 9 6 rrcurveto
          hintmask 01001000
          -6 10 14 -4 19 hhcurveto
          60 58 51 54 21 hvcurveto
          44 2 54 23 17 14 rrcurveto
          2 callgsubr
          2 vvcurveto
          0 0 5 -5 vhcurveto
          -5 -5 -58 -30 -45 hhcurveto
          3 9 1 9 9 vvcurveto
          8 -1 8 -3 6 vhcurveto
          14 10 14 9 13 8 rrcurveto
          6 3 10 callgsubr
          vvcurveto
          hintmask 10011000
          -1 callgsubr
          -6 -3 -14 -9 -18 -14 rrcurveto
          hintmask 01001000
          12 -8 -13 6 -12 hhcurveto
          hintmask 10011000
          -46 callgsubr
          -9 2 -8 4 -7 vhcurveto
          endchar
        </CharString>
        <CharString name="otilde">
          0 callgsubr
          -194 238 -79 104 -43 43 49 callgsubr
          34 22 hintmask 10001101
          147 258 rmoveto
          -15 -28 -9 -20 -2 2 -2 3 2 1 0 3 3 hvcurveto
          9 11 7 4 9 26 39 -26 25 hhcurveto
          12 33 10 16 3 -2 3 -3 hvcurveto
          hintmask 00100101
          57 callgsubr
          hhcurveto
          hintmask 10001011
          9 callsubr
          7 -94 -88 callsubr
          hintmask 00010101
          -70 callsubr
          hintmask 01001101
          -25 17 -19 42 60 58 51 54 21 vhcurveto
          44 2 54 23 17 14 rrcurveto
          2 callgsubr
          2 vvcurveto
          0 0 5 -5 vhcurveto
          -5 -5 -58 -30 -45 hhcurveto
          3 9 1 9 9 vvcurveto
          35 -22 14 -20 vhcurveto
          hintmask 10001101
          -46 callgsubr
          endchar
        </CharString>
        <CharString name="p">
          46 callgsubr
          129 -27 callsubr
          15 12 -1 -3 11 hvcurveto
          -103 -94 -86 -76 -56 -17 callgsubr
          91 105 24 callsubr
          -92 -115 -113 -149 -105 -117 rrcurveto
          4 -14 -16 2 -19 -93 callsubr
        </CharString>
        <CharString name="paragraph">
          47 -171 -21 481 191 hstem
          -34 -168 rmoveto
          -6 -6 -2 -5 -3 vvcurveto
          -3 2 -2 4 4 5 2 5 5 vhcurveto
          85 110 320 401 67 55 rrcurveto
          -1 6 6 -1 5 hhcurveto
          12 33 10 16 3 -2 3 -3 hvcurveto
          57 callgsubr
          hhcurveto
          -20 -22 10 7 -19 hvcurveto
          16 -3 -14 45 -55 hhcurveto
          -77 -58 -73 -56 -34 21 -27 51 -1 hvcurveto
          -212 -176 -177 -253 -119 hhcurveto
          -6 -15 1 5 hvcurveto
          9 17 4 12 vvcurveto
          11 -25 0 -1 vhcurveto
          0 -21 -8 -18 vvcurveto
          -18 12 -14 32 168 237 379 217 202 vhcurveto
          30 -12 -29 -12 -427 -539 -12 -9 rlinecurve
          endchar
        </CharString>
        <CharString name="parenleft">
          -72 -235 -21 1029 -20 hstem
          79 26 vstem
          127 -241 rmoveto
          -10 3 6 -5 4 hhcurveto
          4 2 3 6 2 0 2 -1 3 hvcurveto
          -27 91 -13 88 85 vvcurveto
          347 206 285 246 104 vhcurveto
          6 3 4 4 3 vvcurveto
          2 -2 1 -3 vhcurveto
          -2 hlineto
          -157 -50 -324 -269 -414 vvcurveto
          -87 15 -95 33 -99 vhcurveto
          endchar
        </CharString>
        <CharString name="parenright">
          105 -234 -21 1029 -20 hstem
          381 26 vstem
          359 759 rmoveto
          10 -3 -6 5 -4 hhcurveto
          2 callsubr
          -6 -2 0 -2 1 -3 hvcurveto
          27 -91 13 -88 -85 vvcurveto
          -347 -206 -285 -246 -104 vhcurveto
          -6 -3 -4 -4 -3 vvcurveto
          -2 2 -1 3 vhcurveto
          2 hlineto
          157 50 324 269 414 vvcurveto
          87 -15 95 -33 99 vhcurveto
          endchar
        </CharString>
        <CharString name="percent">
          571 -38 -21 49 237 52 237 181 -20 hstemhm
          158 -11 callgsubr
          24 -11 callgsubr
          hintmask 1111101010100000
          741 215 rmoveto
          -58 callsubr
          -350 289 rmoveto
          -58 callsubr
          339 164 -73 callgsubr
          482 281 -97 callgsubr
          hintmask 1111101001010000
          3 callsubr
          -350 289 -97 callgsubr
          hintmask 1111010110100000
          -4 callsubr
        </CharString>
        <CharString name="period">
          -139 16 -21 43 -20 hstem
          95 38 rmoveto
          -15 -13 -20 -10 -10 7 -3 7 5 5 2 3 4 hvcurveto
          5 4 9 11 9 -28 callsubr
          endchar
        </CharString>
        <CharString name="periodcentered">
          -85 84 -21 43 -20 hstem
          145 106 rmoveto
          -15 -13 -20 -10 -10 7 -3 7 5 5 2 3 4 hvcurveto
          5 4 9 11 9 -28 callsubr
          endchar
        </CharString>
        <CharString name="perthousand">
          901 -38 -21 49 177 -40 40 -40 100 -69 162 -41 237 181 -20 hstemhm
          158 -11 callgsubr
          24 -11 callgsubr
          -1 -11 callgsubr
          hintmask 110001110101010001000000
          741 215 rmoveto
          -58 callsubr
          325 hmoveto
          -58 callsubr
          -675 289 rmoveto
          -58 callsubr
          339 164 -73 callgsubr
          hintmask 100101110101010001000000
          807 281 -45 callsubr
          hvcurveto
          hintmask 100010110101010001000000
          -15 -10 11 20 hvcurveto
          -2 hlineto
          -28 -12 19 24 -1 hvcurveto
          69 3 80 50 49 hhcurveto
          46 3 -50 -16 hvcurveto
          hintmask 110001110101000100100000
          -52 callsubr
          hintmask 101001110101000010100000
          -10 callgsubr
          hintmask 100101110101010001000000
          32 4 25 28 22 hhcurveto
          -325 hmoveto
          -79 callsubr
          hvcurveto
          hintmask 100010110101010001000000
          -15 -10 11 20 hvcurveto
          -2 hlineto
          -28 -12 19 24 -1 hvcurveto
          69 3 80 50 49 hhcurveto
          46 3 -50 -16 hvcurveto
          hintmask 110001110101001001000000
          -52 callsubr
          hintmask 110001110100101001000000
          -10 callgsubr
          hintmask 100101110101010001000000
          32 4 25 28 22 hhcurveto
          -350 289 -97 callgsubr
          hintmask 110001101011010001000000
          -4 callsubr
        </CharString>
        <CharString name="plus">
          78 165 -21 132 -38 callgsubr
          -59 -100 rlineto
          -2 -2 -2 -10 -8 vvcurveto
          -7 2 -5 5 2 3 1 6 4 vhcurveto
          74 125 rlineto
          149 -86 callgsubr
          -98 callsubr
          -149 hlineto
          68 114 37 callsubr
          endchar
        </CharString>
        <CharString name="plusminus">
          134 152 23 140 23 103 -20 hstem
          386 424 rmoveto
          -11 callsubr
          -59 -98 rlineto
          -126 -103 callsubr
          129 hlineto
          -39 -66 rlineto
          -2 -2 -2 -10 -8 vvcurveto
          -7 2 -5 5 2 3 1 6 4 vhcurveto
          54 91 rlineto
          149 -86 callgsubr
          -98 callsubr
          -149 hlineto
          45 75 37 callsubr
          25 -266 rmoveto
          -98 callsubr
          -302 -103 callsubr
          305 -37 callgsubr
        </CharString>
        <CharString name="q">
          -47 -289 221 73 176 hstemhm
          -100 217 -101 28 46 27 hintmask 11011000
          -56 -273 rmoveto
          -10 -9 2 7 10 144 162 0 hvcurveto
          12 -8 9 -13 -18 vvcurveto
          -74 -121 -68 -25 vhcurveto
          155 294 rmoveto
          -37 -18 15 25 48 57 56 63 50 11 -26 -13 2 hvcurveto
          -14 -64 -66 0 vhcurveto
          0 -30 -25 -34 vhcurveto
          144 122 rmoveto
          26 -11 -30 12 -34 hhcurveto
          -67 -85 -45 -77 -46 36 -8 29 14 19 3 8 25 hvcurveto
          -25 -28 -20 -29 -27 -30 rrcurveto
          2 -10 -10 1 -10 hhcurveto
          -80 -77 -62 -17 -21 hvcurveto
          0 -7 -6 -5 vvcurveto
          -1 0 -1 1 -1 vhcurveto
          -1 1 2 -2 2 hhcurveto
          3 3 2 5 4 hvcurveto
          55 58 82 18 25 1 rrcurveto
          8 9 -1 -4 8 hvcurveto
          hintmask 11100000
          -76 -92 -79 -74 -21 vvcurveto
          -15 21 -2 4 68 124 89 82 18 -10 14 -24 10 vhcurveto
          94 104 95 118 5 5 rrcurveto
          6 6 3 8 3 vvcurveto
          0 0 8 -9 -5 -6 -4 -5 -4 vhcurveto
          endchar
        </CharString>
        <CharString name="question">
          102 18 -21 398 22 -22 208 -208 222 hstemhm
          167 34 128 23 184 33 hintmask 11001110
          116 40 rmoveto
          -15 -13 -20 -10 -10 7 -3 7 5 5 2 3 4 hvcurveto
          5 4 9 11 9 -28 callsubr
          86 400 rmoveto
          31 42 58 67 38 vhcurveto
          10 -9 8 -14 -19 vvcurveto
          -29 -40 -79 -62 -16 -9 7 16 vhcurveto
          -1 -279 rmoveto
          10 125 358 91 155 vvcurveto
          hintmask 10011110
          81 -98 4 -23 -46 -42 -11 -18 -38 vhcurveto
          hintmask 10101110
          11 -17 -21 4 -16 hhcurveto
          -26 -23 -7 0 hvcurveto
          -46 -15 -8 -30 0 vvcurveto
          0 2 -6 4 2 1 1 3 2 vhcurveto
          0 26 38 57 11 15 -3 -8 14 vhcurveto
          -74 -41 -49 -64 -40 vvcurveto
          -22 13 -14 21 64 78 77 63 19 -7 15 -11 10 vhcurveto
          16 34 38 10 41 hhcurveto
          39 50 -11 -57 hvcurveto
          -164 -369 -91 -122 vvcurveto
          -6 3 -6 21 3 6 1 12 1 vhcurveto
          endchar
        </CharString>
        <CharString name="questiondown">
          102 -308 222 -210 -20 22 208 -22 22 398 -20 hstemhm
          -40 33 184 23 128 34 hintmask 01011111
          413 269 -3 callsubr
          -86 -400 rmoveto
          -31 -43 -58 -67 -38 vhcurveto
          -10 9 -7 14 19 vvcurveto
          29 40 79 62 16 9 -7 -16 vhcurveto
          1 279 rmoveto
          -10 -125 -358 -91 -155 vvcurveto
          hintmask 10001111
          -81 98 -4 23 45 43 11 18 37 vhcurveto
          hintmask 01101111
          -11 17 22 -4 16 hhcurveto
          26 23 7 0 hvcurveto
          46 15 8 30 0 vvcurveto
          0 -2 6 -4 -2 -1 -1 -3 -2 vhcurveto
          0 -26 -38 -57 -12 -15 3 8 -13 vhcurveto
          74 41 49 64 40 vvcurveto
          22 -13 14 -21 -64 -78 -77 -63 -19 7 -15 10 -10 vhcurveto
          -16 -33 -38 -10 -41 hhcurveto
          -39 -50 11 57 hvcurveto
          164 369 91 122 vvcurveto
          6 -3 6 -21 -3 -6 -1 -12 -1 vhcurveto
          endchar
        </CharString>
        <CharString name="quotedbl">
          -76 368 97 hstem
          328 465 rmoveto
          -96 callsubr
          -64 hmoveto
          -86 callsubr
        </CharString>
        <CharString name="quotedblbase">
          -69 -53 97 hstem
          153 44 rmoveto
          -96 callsubr
          -64 hmoveto
          -96 callsubr
          endchar
        </CharString>
        <CharString name="quotedblleft">
          -76 367 97 -32 callsubr
          64 hmoveto
          15 13 20 10 10 -7 3 -8 hvcurveto
          29 6 47 15 8 hhcurveto
          9 1 4 3 2 vvcurveto
          2 -4 2 -7 vhcurveto
          -42 -3 -48 -36 -44 vvcurveto
          -6 7 -8 7 vhcurveto
          endchar
        </CharString>
        <CharString name="quotedblright">
          -76 368 97 hstem
          328 465 rmoveto
          -96 callsubr
          -64 hmoveto
          -86 callsubr
        </CharString>
        <CharString name="quoteleft">
          -140 388 -21 97 -20 -32 callsubr
          endchar
        </CharString>
        <CharString name="quoteright">
          -140 389 -21 97 -20 hstem
          264 465 rmoveto
          -96 callsubr
          endchar
        </CharString>
        <CharString name="quotesinglbase">
          -133 -38 -21 75 -21 43 -20 hstem
          89 38 rmoveto
          -86 callsubr
        </CharString>
        <CharString name="quotesingle">
          -140 389 -21 97 -20 hstem
          264 465 rmoveto
          -96 callsubr
          endchar
        </CharString>
        <CharString name="r">
          -105 16 -21 168 -20 21 -20 hstemhm
          126 29 hintmask 11010000
          178 89 -43 callgsubr
          hintmask 10110000
          -13 callgsubr
          7 5 5 4 vhcurveto
          71 89 20 15 35 19 3 1 rlinecurve
          -25 callgsubr
          endchar
        </CharString>
        <CharString name="registered">
          217 -18 -21 38 -21 212 220 hstemhm
          20 30 269 29 159 31 hintmask 01111100
          371 203 -43 callgsubr
          -13 callgsubr
          8 4 6 3 vhcurveto
          4 7 44 53 23 29 20 15 35 19 3 1 rrcurveto
          -25 callgsubr
          -152 -225 5 callsubr
          319 266 rmoveto
          41 callgsubr
          vhcurveto
          hintmask 10111100
          40 callgsubr
          endchar
        </CharString>
        <CharString name="ring">
          214 -20 29 -21 58 -20 hstemhm
          hintmask 10100000
          150 248 17 callsubr
          hintmask 01100000
          -6 -5 3 6 5 9 20 18 hvcurveto
          -22 -46 rmoveto
          22 24 20 20 1 hvcurveto
          -7 callsubr
          endchar
        </CharString>
        <CharString name="s">
          -68 -9 116 -10 87 hstemhm
          16 25 hintmask 10100000
          16 39 rmoveto
          0 0 -48 59 vhcurveto
          -63 callgsubr
          hintmask 01100000
          18 -24 9 -17 vhcurveto
          -64 callgsubr
          vhcurveto
          hintmask 10100000
          14 callsubr
          hvcurveto
          endchar
        </CharString>
        <CharString name="scaron">
          -68 -9 116 -10 87 -12 105 -54 54 7 -20 hstemhm
          16 25 hintmask 10010100
          342 272 -28 callgsubr
          hintmask 10001100
          -55 callsubr
          hintmask 10010100
          -63 callsubr
          -326 -233 rmoveto
          0 0 -48 59 vhcurveto
          hintmask 10100100
          -63 callgsubr
          hintmask 01010100
          18 -24 9 -17 vhcurveto
          -64 callgsubr
          vhcurveto
          hintmask 10100100
          14 callsubr
          hvcurveto
          endchar
        </CharString>
        <CharString name="section">
          49 106 120 -12 85 -12 120 hstemhm
          123 25 hintmask 10110000
          345 287 rmoveto
          8 6 -4 -5 2 hvcurveto
          -30 -11 -16 -22 -32 hhcurveto
          -4 -4 0 1 -3 hvcurveto
          33 11 13 27 30 hhcurveto
          -163 -181 rmoveto
          hintmask 01010000
          71 18 58 50 16 hvcurveto
          11 hlineto
          -63 callgsubr
          hintmask 10110000
          18 -24 9 -17 -66 -12 -61 -51 -17 vhcurveto
          hintmask 01010000
          2 -7 -8 2 -6 -64 callgsubr
          14 callsubr
          vhcurveto
          hintmask 10110000
          0 0 -48 59 vhcurveto
          endchar
        </CharString>
        <CharString name="semicolon">
          -95 -38 -21 75 -21 185 -20 hstem
          163 180 rmoveto
          -15 -13 -20 -10 -10 7 -3 7 5 5 2 3 4 hvcurveto
          5 4 9 11 9 -28 callsubr
          -74 -142 rmoveto
          7 7 -8 -6 -44 -48 -36 -42 -3 hvcurveto
          -7 -4 2 2 2 4 3 9 1 hvcurveto
          8 47 15 29 6 hvcurveto
          -8 -7 3 10 10 13 20 15 hvcurveto
          endchar
        </CharString>
        <CharString name="seven">
          170 -1 -21 344 23 97 172 -88 88 5 -20 hstemhm
          177 25 -25 188 380 26 hintmask 11010101
          669 542 rmoveto
          -26 -23 3 6 -22 hvcurveto
          33 49 42 20 29 hhcurveto
          22 5 -7 -12 -25 -37 -18 -39 hvcurveto
          -218 -214 rmoveto
          -98 callsubr
          -87 hlineto
          74 77 75 67 65 47 rrcurveto
          -6 24 24 -4 27 hhcurveto
          52 68 18 46 hvcurveto
          hintmask 11001101
          16 -15 13 -32 -41 -52 -24 -38 -57 vhcurveto
          hintmask 11100011
          21 -67 -60 36 -78 hhcurveto
          -128 -64 -62 -48 -50 45 -12 34 61 47 45 29 1 hvcurveto
          7 -2 2 -2 -3 -4 -4 -4 -2 vhcurveto
          0 -33 -61 -62 vhcurveto
          hintmask 11100101
          -8 -47 0 44 49 64 51 77 78 63 -35 -22 68 hvcurveto
          -72 -51 -78 -72 -72 -75 rrcurveto
          -80 -103 callsubr
          74 hlineto
          -129 -139 -104 -143 -39 vvcurveto
          -8 1 5 -15 7 hhcurveto
          3 5 3 10 4 hvcurveto
          16 35 17 30 0 vvcurveto
          56 89 74 93 77 84 rrcurveto
          96 -37 callgsubr
        </CharString>
        <CharString name="six">
          183 2 -21 33 -21 245 21 -21 132 244 -20 hstemhm
          75 25 114 22 54 23 99 22 97 23 70 29 hintmask 0110111111100000
          394 238 rmoveto
          12 6 -7 -10 -29 -42 -56 -57 -13 hvcurveto
          65 50 50 31 vhcurveto
          -105 -133 rmoveto
          3 hlineto
          -26 8 22 -5 1 hhcurveto
          4 1 4 2 3 -3 2 0 hvcurveto
          -6 7 -3 8 -2 8 rrcurveto
          64 16 56 68 39 vvcurveto
          17 -10 11 -23 -64 -47 -90 -46 vhcurveto
          -2 vlineto
          -35 -19 15 32 106 122 84 78 67 28 -37 -51 -108 -130 -169 -157 -86 -58 62 73 175 242 297 220 11 50 -2 -44 1 hvcurveto
          0 -1 -67 -97 -16 vhcurveto
          0 -8 -1 -4 vvcurveto
          -4 13 0 5 18 99 18 78 54 -84 2 0 -260 -234 -302 -173 vhcurveto
          hintmask 1010111111100000
          -87 56 -71 110 194 119 163 115 vhcurveto
          hintmask 0101111111100000
          63 -36 48 -78 -75 -151 -70 -125 -70 75 0 0 vhcurveto
          endchar
        </CharString>
        <CharString name="slash">
          136 -12 -21 728 -20 hstem
          4 -21 15 callsubr
          101 70 675 593 75 52 rrcurveto
          6 4 2 3 2 vvcurveto
          -1 callgsubr
          -29 -12 -806 -693 -12 -9 rrcurveto
          endchar
        </CharString>
        <CharString name="space">
          -153 endchar
        </CharString>
        <CharString name="sterling">
          735 26 callsubr
          568 50 callgsubr
          948 -84 callsubr
          hintmask 1001011110000000
          56 36 39 37 27 vvcurveto
          -358 -365 rmoveto
          -98 callsubr
          -116 hlineto
          10 11 11 11 9 11 rrcurveto
          118 -86 callgsubr
          -98 callsubr
          -111 hlineto
          23 28 22 29 22 28 75 12 94 38 74 44 rrcurveto
          hintmask 1000101110000000
          7 callgsubr
          hintmask 0101011110000000
          -15 callsubr
          31 callgsubr
          -22 -28 -23 -27 -23 -27 rrcurveto
          -145 -103 callsubr
          141 hlineto
          -9 -11 -10 -11 -10 -11 rrcurveto
          -141 -103 callsubr
          135 hlineto
          -58 -59 -62 -51 -72 -37 -42 callsubr
          hintmask 1001011110000000
          -72 callgsubr
          21 17 -105 hvcurveto
          79 39 67 53 58 60 rrcurveto
          125 -37 callgsubr
        </CharString>
        <CharString name="t">
          -179 -1 20 -20 222 119 -20 hstemhm
          11 26 hintmask 10110000
          87 24 rmoveto
          -1 callsubr
          23 57 75 57 68 hvcurveto
          83 hlineto
          17 7 4 4 hvcurveto
          hintmask 01110000
          3 -4 3 -8 vhcurveto
          -83 hlineto
          38 45 36 40 17 16 rrcurveto
          -12 callsubr
          -9 -12 -40 -45 -44 -54 rrcurveto
          -69 hlineto
          -8 -1 -9 -2 -4 vvcurveto
          -3 6 -3 11 vhcurveto
          -1 14 20 0 23 hhcurveto
          -57 -70 -58 -79 -29 -81 callsubr
          endchar
        </CharString>
        <CharString name="thorn">
          46 callgsubr
          324 -27 callsubr
          11 10 0 -2 9 hvcurveto
          -106 -98 -85 -75 -45 -17 callgsubr
          245 300 24 callsubr
          -109 -137 -199 -259 -165 -178 rrcurveto
          3 -11 -14 1 -15 -93 callsubr
        </CharString>
        <CharString name="three">
          217 -11 119 -16 185 -85 85 -14 74 -16 75 -14 85 -13 176 hstemhm
          80 26 121 20 60 25 196 29 66 28 hintmask 1001010111110000
          376 382 rmoveto
          13 49 -4 -28 39 hvcurveto
          -8 -27 -32 -5 -37 hhcurveto
          -28 -32 4 20 -1 hvcurveto
          0 -1 21 57 vhcurveto
          hintmask 1010101111110000
          -39 -190 rmoveto
          4 5 0 -1 5 hvcurveto
          -1 vlineto
          -40 -30 -42 -49 -12 -13 3 18 16 29 47 61 vhcurveto
          hintmask 0100101111110000
          -70 -100 rmoveto
          53 43 49 47 5 hvcurveto
          8 -2 7 -4 8 -4 rrcurveto
          0 6 -4 5 3 4 3 4 3 -3 6 -9 5 vhcurveto
          0 -12 6 -16 4 vhcurveto
          38 -4 -32 34 -75 hhcurveto
          -108 -70 -85 -78 hvcurveto
          hintmask 1010101111110000
          -65 49 -60 119 173 136 123 121 46 -20 30 0 vhcurveto
          -9 14 -11 13 -11 10 rrcurveto
          16 6 10 6 0 vvcurveto
          113 62 6 78 18 vvcurveto
          93 -95 21 -64 -123 -62 -64 -53 -54 61 -5 21 99 9 64 0 12 -4 6 -5 -4 -5 -5 -10 -3 vhcurveto
          hintmask 1010010111110000
          0 -13 -53 -71 -1 vhcurveto
          -11 -49 2 43 18 9 87 161 21 100 -5 -92 -24 -20 -99 -109 -41 hvcurveto
          hintmask 1010101111110000
          35 -46 -55 5 -25 hhcurveto
          -50 -30 -21 -17 -33 71 -4 19 45 38 9 9 28 hvcurveto
          22 -21 17 -30 -46 vvcurveto
          -52 -49 -188 -231 -100 -42 53 58 vhcurveto
          hintmask 1001010111110000
          71 63 79 93 53 27 -26 -30 7 vhcurveto
          1 -4 -3 0 -3 hhcurveto
          -34 -78 -24 -58 hvcurveto
          hintmask 0100101111110000
          -20 13 -13 27 -1 vhcurveto
          endchar
        </CharString>
</ttFont>
